%TF.GenerationSoftware,KiCad,Pcbnew,9.0.6*%
%TF.CreationDate,2026-04-02T10:37:21-07:00*%
%TF.ProjectId,AA-W6EEN,41412d57-3645-4454-9e2e-6b696361645f,rev?*%
%TF.SameCoordinates,Original*%
%TF.FileFunction,Legend,Bot*%
%TF.FilePolarity,Positive*%
%FSLAX46Y46*%
G04 Gerber Fmt 4.6, Leading zero omitted, Abs format (unit mm)*
G04 Created by KiCad (PCBNEW 9.0.6) date 2026-04-02 10:37:21*
%MOMM*%
%LPD*%
G01*
G04 APERTURE LIST*
%ADD10C,0.100000*%
G04 APERTURE END LIST*
D10*
X69958533Y-78296115D02*
X69958533Y-77534211D01*
X69577580Y-77915163D02*
X70339485Y-77915163D01*
X70577580Y-76581830D02*
X70577580Y-77058020D01*
X70577580Y-77058020D02*
X70101390Y-77105639D01*
X70101390Y-77105639D02*
X70149009Y-77058020D01*
X70149009Y-77058020D02*
X70196628Y-76962782D01*
X70196628Y-76962782D02*
X70196628Y-76724687D01*
X70196628Y-76724687D02*
X70149009Y-76629449D01*
X70149009Y-76629449D02*
X70101390Y-76581830D01*
X70101390Y-76581830D02*
X70006152Y-76534211D01*
X70006152Y-76534211D02*
X69768057Y-76534211D01*
X69768057Y-76534211D02*
X69672819Y-76581830D01*
X69672819Y-76581830D02*
X69625200Y-76629449D01*
X69625200Y-76629449D02*
X69577580Y-76724687D01*
X69577580Y-76724687D02*
X69577580Y-76962782D01*
X69577580Y-76962782D02*
X69625200Y-77058020D01*
X69625200Y-77058020D02*
X69672819Y-77105639D01*
X70577580Y-76248496D02*
X69577580Y-75915163D01*
X69577580Y-75915163D02*
X70577580Y-75581830D01*
X64375200Y-78243734D02*
X64327580Y-78100877D01*
X64327580Y-78100877D02*
X64327580Y-77862782D01*
X64327580Y-77862782D02*
X64375200Y-77767544D01*
X64375200Y-77767544D02*
X64422819Y-77719925D01*
X64422819Y-77719925D02*
X64518057Y-77672306D01*
X64518057Y-77672306D02*
X64613295Y-77672306D01*
X64613295Y-77672306D02*
X64708533Y-77719925D01*
X64708533Y-77719925D02*
X64756152Y-77767544D01*
X64756152Y-77767544D02*
X64803771Y-77862782D01*
X64803771Y-77862782D02*
X64851390Y-78053258D01*
X64851390Y-78053258D02*
X64899009Y-78148496D01*
X64899009Y-78148496D02*
X64946628Y-78196115D01*
X64946628Y-78196115D02*
X65041866Y-78243734D01*
X65041866Y-78243734D02*
X65137104Y-78243734D01*
X65137104Y-78243734D02*
X65232342Y-78196115D01*
X65232342Y-78196115D02*
X65279961Y-78148496D01*
X65279961Y-78148496D02*
X65327580Y-78053258D01*
X65327580Y-78053258D02*
X65327580Y-77815163D01*
X65327580Y-77815163D02*
X65279961Y-77672306D01*
X65327580Y-77386591D02*
X65327580Y-76815163D01*
X64327580Y-77100877D02*
X65327580Y-77100877D01*
X64851390Y-76481829D02*
X64851390Y-76148496D01*
X64327580Y-76005639D02*
X64327580Y-76481829D01*
X64327580Y-76481829D02*
X65327580Y-76481829D01*
X65327580Y-76481829D02*
X65327580Y-76005639D01*
X64327580Y-75577067D02*
X65327580Y-75577067D01*
X65327580Y-75577067D02*
X65327580Y-75196115D01*
X65327580Y-75196115D02*
X65279961Y-75100877D01*
X65279961Y-75100877D02*
X65232342Y-75053258D01*
X65232342Y-75053258D02*
X65137104Y-75005639D01*
X65137104Y-75005639D02*
X64994247Y-75005639D01*
X64994247Y-75005639D02*
X64899009Y-75053258D01*
X64899009Y-75053258D02*
X64851390Y-75100877D01*
X64851390Y-75100877D02*
X64803771Y-75196115D01*
X64803771Y-75196115D02*
X64803771Y-75577067D01*
X64708533Y-74577067D02*
X64708533Y-73815163D01*
X64327580Y-73338972D02*
X65327580Y-73338972D01*
X64327580Y-72862782D02*
X65327580Y-72862782D01*
X65327580Y-72862782D02*
X64327580Y-72291354D01*
X64327580Y-72291354D02*
X65327580Y-72291354D01*
X67222819Y-77574687D02*
X67175200Y-77622306D01*
X67175200Y-77622306D02*
X67127580Y-77765163D01*
X67127580Y-77765163D02*
X67127580Y-77860401D01*
X67127580Y-77860401D02*
X67175200Y-78003258D01*
X67175200Y-78003258D02*
X67270438Y-78098496D01*
X67270438Y-78098496D02*
X67365676Y-78146115D01*
X67365676Y-78146115D02*
X67556152Y-78193734D01*
X67556152Y-78193734D02*
X67699009Y-78193734D01*
X67699009Y-78193734D02*
X67889485Y-78146115D01*
X67889485Y-78146115D02*
X67984723Y-78098496D01*
X67984723Y-78098496D02*
X68079961Y-78003258D01*
X68079961Y-78003258D02*
X68127580Y-77860401D01*
X68127580Y-77860401D02*
X68127580Y-77765163D01*
X68127580Y-77765163D02*
X68079961Y-77622306D01*
X68079961Y-77622306D02*
X68032342Y-77574687D01*
X67127580Y-77146115D02*
X68127580Y-77146115D01*
X67651390Y-77146115D02*
X67651390Y-76574687D01*
X67127580Y-76574687D02*
X68127580Y-76574687D01*
X67127580Y-75527068D02*
X67603771Y-75860401D01*
X67127580Y-76098496D02*
X68127580Y-76098496D01*
X68127580Y-76098496D02*
X68127580Y-75717544D01*
X68127580Y-75717544D02*
X68079961Y-75622306D01*
X68079961Y-75622306D02*
X68032342Y-75574687D01*
X68032342Y-75574687D02*
X67937104Y-75527068D01*
X67937104Y-75527068D02*
X67794247Y-75527068D01*
X67794247Y-75527068D02*
X67699009Y-75574687D01*
X67699009Y-75574687D02*
X67651390Y-75622306D01*
X67651390Y-75622306D02*
X67603771Y-75717544D01*
X67603771Y-75717544D02*
X67603771Y-76098496D01*
X68079961Y-74574687D02*
X68127580Y-74669925D01*
X68127580Y-74669925D02*
X68127580Y-74812782D01*
X68127580Y-74812782D02*
X68079961Y-74955639D01*
X68079961Y-74955639D02*
X67984723Y-75050877D01*
X67984723Y-75050877D02*
X67889485Y-75098496D01*
X67889485Y-75098496D02*
X67699009Y-75146115D01*
X67699009Y-75146115D02*
X67556152Y-75146115D01*
X67556152Y-75146115D02*
X67365676Y-75098496D01*
X67365676Y-75098496D02*
X67270438Y-75050877D01*
X67270438Y-75050877D02*
X67175200Y-74955639D01*
X67175200Y-74955639D02*
X67127580Y-74812782D01*
X67127580Y-74812782D02*
X67127580Y-74717544D01*
X67127580Y-74717544D02*
X67175200Y-74574687D01*
X67175200Y-74574687D02*
X67222819Y-74527068D01*
X67222819Y-74527068D02*
X67556152Y-74527068D01*
X67556152Y-74527068D02*
X67556152Y-74717544D01*
X67508533Y-74098496D02*
X67508533Y-73336592D01*
X68127580Y-72669925D02*
X68127580Y-72479449D01*
X68127580Y-72479449D02*
X68079961Y-72384211D01*
X68079961Y-72384211D02*
X67984723Y-72288973D01*
X67984723Y-72288973D02*
X67794247Y-72241354D01*
X67794247Y-72241354D02*
X67460914Y-72241354D01*
X67460914Y-72241354D02*
X67270438Y-72288973D01*
X67270438Y-72288973D02*
X67175200Y-72384211D01*
X67175200Y-72384211D02*
X67127580Y-72479449D01*
X67127580Y-72479449D02*
X67127580Y-72669925D01*
X67127580Y-72669925D02*
X67175200Y-72765163D01*
X67175200Y-72765163D02*
X67270438Y-72860401D01*
X67270438Y-72860401D02*
X67460914Y-72908020D01*
X67460914Y-72908020D02*
X67794247Y-72908020D01*
X67794247Y-72908020D02*
X67984723Y-72860401D01*
X67984723Y-72860401D02*
X68079961Y-72765163D01*
X68079961Y-72765163D02*
X68127580Y-72669925D01*
X68127580Y-71812782D02*
X67318057Y-71812782D01*
X67318057Y-71812782D02*
X67222819Y-71765163D01*
X67222819Y-71765163D02*
X67175200Y-71717544D01*
X67175200Y-71717544D02*
X67127580Y-71622306D01*
X67127580Y-71622306D02*
X67127580Y-71431830D01*
X67127580Y-71431830D02*
X67175200Y-71336592D01*
X67175200Y-71336592D02*
X67222819Y-71288973D01*
X67222819Y-71288973D02*
X67318057Y-71241354D01*
X67318057Y-71241354D02*
X68127580Y-71241354D01*
X68127580Y-70908020D02*
X68127580Y-70336592D01*
X67127580Y-70622306D02*
X68127580Y-70622306D01*
X72779961Y-77522306D02*
X72827580Y-77617544D01*
X72827580Y-77617544D02*
X72827580Y-77760401D01*
X72827580Y-77760401D02*
X72779961Y-77903258D01*
X72779961Y-77903258D02*
X72684723Y-77998496D01*
X72684723Y-77998496D02*
X72589485Y-78046115D01*
X72589485Y-78046115D02*
X72399009Y-78093734D01*
X72399009Y-78093734D02*
X72256152Y-78093734D01*
X72256152Y-78093734D02*
X72065676Y-78046115D01*
X72065676Y-78046115D02*
X71970438Y-77998496D01*
X71970438Y-77998496D02*
X71875200Y-77903258D01*
X71875200Y-77903258D02*
X71827580Y-77760401D01*
X71827580Y-77760401D02*
X71827580Y-77665163D01*
X71827580Y-77665163D02*
X71875200Y-77522306D01*
X71875200Y-77522306D02*
X71922819Y-77474687D01*
X71922819Y-77474687D02*
X72256152Y-77474687D01*
X72256152Y-77474687D02*
X72256152Y-77665163D01*
X71827580Y-77046115D02*
X72827580Y-77046115D01*
X72827580Y-77046115D02*
X71827580Y-76474687D01*
X71827580Y-76474687D02*
X72827580Y-76474687D01*
X71827580Y-75998496D02*
X72827580Y-75998496D01*
X72827580Y-75998496D02*
X72827580Y-75760401D01*
X72827580Y-75760401D02*
X72779961Y-75617544D01*
X72779961Y-75617544D02*
X72684723Y-75522306D01*
X72684723Y-75522306D02*
X72589485Y-75474687D01*
X72589485Y-75474687D02*
X72399009Y-75427068D01*
X72399009Y-75427068D02*
X72256152Y-75427068D01*
X72256152Y-75427068D02*
X72065676Y-75474687D01*
X72065676Y-75474687D02*
X71970438Y-75522306D01*
X71970438Y-75522306D02*
X71875200Y-75617544D01*
X71875200Y-75617544D02*
X71827580Y-75760401D01*
X71827580Y-75760401D02*
X71827580Y-75998496D01*
M02*
