%TF.GenerationSoftware,KiCad,Pcbnew,9.0.6*%
%TF.CreationDate,2026-04-02T10:37:20-07:00*%
%TF.ProjectId,AA-W6EEN,41412d57-3645-4454-9e2e-6b696361645f,rev?*%
%TF.SameCoordinates,Original*%
%TF.FileFunction,Copper,L2,Bot*%
%TF.FilePolarity,Positive*%
%FSLAX46Y46*%
G04 Gerber Fmt 4.6, Leading zero omitted, Abs format (unit mm)*
G04 Created by KiCad (PCBNEW 9.0.6) date 2026-04-02 10:37:20*
%MOMM*%
%LPD*%
G01*
G04 APERTURE LIST*
G04 Aperture macros list*
%AMRoundRect*
0 Rectangle with rounded corners*
0 $1 Rounding radius*
0 $2 $3 $4 $5 $6 $7 $8 $9 X,Y pos of 4 corners*
0 Add a 4 corners polygon primitive as box body*
4,1,4,$2,$3,$4,$5,$6,$7,$8,$9,$2,$3,0*
0 Add four circle primitives for the rounded corners*
1,1,$1+$1,$2,$3*
1,1,$1+$1,$4,$5*
1,1,$1+$1,$6,$7*
1,1,$1+$1,$8,$9*
0 Add four rect primitives between the rounded corners*
20,1,$1+$1,$2,$3,$4,$5,0*
20,1,$1+$1,$4,$5,$6,$7,0*
20,1,$1+$1,$6,$7,$8,$9,0*
20,1,$1+$1,$8,$9,$2,$3,0*%
G04 Aperture macros list end*
%TA.AperFunction,ComponentPad*%
%ADD10R,1.700000X1.700000*%
%TD*%
%TA.AperFunction,ComponentPad*%
%ADD11C,1.700000*%
%TD*%
%TA.AperFunction,ComponentPad*%
%ADD12C,3.000000*%
%TD*%
%TA.AperFunction,ComponentPad*%
%ADD13R,1.600000X1.600000*%
%TD*%
%TA.AperFunction,ComponentPad*%
%ADD14O,1.600000X1.600000*%
%TD*%
%TA.AperFunction,ComponentPad*%
%ADD15O,1.600000X2.500000*%
%TD*%
%TA.AperFunction,ComponentPad*%
%ADD16O,3.500000X7.000000*%
%TD*%
%TA.AperFunction,ComponentPad*%
%ADD17RoundRect,0.250000X0.600000X0.725000X-0.600000X0.725000X-0.600000X-0.725000X0.600000X-0.725000X0*%
%TD*%
%TA.AperFunction,ComponentPad*%
%ADD18O,1.700000X1.950000*%
%TD*%
%TA.AperFunction,ViaPad*%
%ADD19C,0.600000*%
%TD*%
%TA.AperFunction,Conductor*%
%ADD20C,0.500000*%
%TD*%
%TA.AperFunction,Conductor*%
%ADD21C,0.200000*%
%TD*%
G04 APERTURE END LIST*
D10*
%TO.P,J3,1,Pin_1*%
%TO.N,GND*%
X33500000Y-76040000D03*
D11*
%TO.P,J3,2,Pin_2*%
%TO.N,+3.3V*%
X33500000Y-73500000D03*
%TO.P,J3,3,Pin_3*%
%TO.N,Net-(J3-Pin_3)*%
X33500000Y-70960000D03*
%TO.P,J3,4,Pin_4*%
%TO.N,Net-(J3-Pin_4)*%
X33500000Y-68420000D03*
%TO.P,J3,5,Pin_5*%
%TO.N,Net-(J3-Pin_5)*%
X33500000Y-65880000D03*
%TO.P,J3,6,Pin_6*%
%TO.N,Net-(J3-Pin_6)*%
X33500000Y-63340000D03*
%TO.P,J3,7,Pin_7*%
%TO.N,Net-(J3-Pin_7)*%
X33500000Y-60800000D03*
%TO.P,J3,8,Pin_8*%
%TO.N,+3.3V*%
X33500000Y-58260000D03*
%TO.P,J3,9,Pin_9*%
%TO.N,Net-(A1-D2)*%
X33500000Y-55720000D03*
%TO.P,J3,10,Pin_10*%
%TO.N,Net-(A1-D3)*%
X33500000Y-53180000D03*
%TO.P,J3,11,Pin_11*%
%TO.N,Net-(A1-D4)*%
X33500000Y-50640000D03*
%TO.P,J3,12,Pin_12*%
%TO.N,PWR_BTN*%
X33500000Y-48100000D03*
%TD*%
D12*
%TO.P,T1,1,1*%
%TO.N,Net-(R3-Pad2)*%
X44801000Y-48799000D03*
%TO.P,T1,2,2*%
%TO.N,GND*%
X44801000Y-64799000D03*
%TO.P,T1,3,3*%
%TO.N,Net-(C1-Pad2)*%
X54801000Y-48799000D03*
%TO.P,T1,4,4*%
%TO.N,Net-(C3-Pad1)*%
X54801000Y-64799000D03*
%TD*%
D13*
%TO.P,A1,1,D1/TX*%
%TO.N,unconnected-(A1-D1{slash}TX-Pad1)*%
X80460000Y-72740000D03*
D14*
%TO.P,A1,2,D0/RX*%
%TO.N,unconnected-(A1-D0{slash}RX-Pad2)*%
X83000000Y-72740000D03*
%TO.P,A1,3,~{RESET}*%
%TO.N,unconnected-(A1-~{RESET}-Pad3)*%
X85540000Y-72740000D03*
%TO.P,A1,4,GND*%
%TO.N,GND*%
X88080000Y-72740000D03*
%TO.P,A1,5,D2*%
%TO.N,Net-(A1-D2)*%
X90620000Y-72740000D03*
%TO.P,A1,6,D3*%
%TO.N,Net-(A1-D3)*%
X93160000Y-72740000D03*
%TO.P,A1,7,D4*%
%TO.N,Net-(A1-D4)*%
X95700000Y-72740000D03*
%TO.P,A1,8,D5*%
%TO.N,D5*%
X98240000Y-72740000D03*
%TO.P,A1,9,D6*%
%TO.N,D6*%
X100780000Y-72740000D03*
%TO.P,A1,10,D7*%
%TO.N,unconnected-(A1-D7-Pad10)*%
X103320000Y-72740000D03*
%TO.P,A1,11,D8*%
%TO.N,Net-(A1-D8)*%
X105860000Y-72740000D03*
%TO.P,A1,12,D9*%
%TO.N,Net-(A1-D9)*%
X108400000Y-72740000D03*
%TO.P,A1,13,D10*%
%TO.N,Net-(A1-D10)*%
X110940000Y-72740000D03*
%TO.P,A1,14,D11*%
%TO.N,Net-(A1-D11)*%
X113480000Y-72740000D03*
%TO.P,A1,15,D12*%
%TO.N,unconnected-(A1-D12-Pad15)*%
X116020000Y-72740000D03*
%TO.P,A1,16,D13*%
%TO.N,Net-(A1-D13)*%
X116020000Y-57500000D03*
%TO.P,A1,17,3V3*%
%TO.N,unconnected-(A1-3V3-Pad17)*%
X113480000Y-57500000D03*
%TO.P,A1,18,AREF*%
%TO.N,Net-(A1-AREF)*%
X110940000Y-57500000D03*
%TO.P,A1,19,A0*%
%TO.N,Net-(A1-A0)*%
X108400000Y-57500000D03*
%TO.P,A1,20,A1*%
%TO.N,unconnected-(A1-A1-Pad20)*%
X105860000Y-57500000D03*
%TO.P,A1,21,A2*%
%TO.N,A2*%
X103320000Y-57500000D03*
%TO.P,A1,22,A3*%
%TO.N,unconnected-(A1-A3-Pad22)*%
X100780000Y-57500000D03*
%TO.P,A1,23,A4*%
%TO.N,SDA*%
X98240000Y-57500000D03*
%TO.P,A1,24,A5*%
%TO.N,SCL*%
X95700000Y-57500000D03*
%TO.P,A1,25,A6*%
%TO.N,unconnected-(A1-A6-Pad25)*%
X93160000Y-57500000D03*
%TO.P,A1,26,A7*%
%TO.N,unconnected-(A1-A7-Pad26)*%
X90620000Y-57500000D03*
%TO.P,A1,27,+5V*%
%TO.N,+5V*%
X88080000Y-57500000D03*
%TO.P,A1,28,~{RESET}*%
%TO.N,unconnected-(A1-~{RESET}-Pad28)*%
X85540000Y-57500000D03*
%TO.P,A1,29,GND*%
%TO.N,GND*%
X83000000Y-57500000D03*
%TO.P,A1,30,VIN*%
%TO.N,unconnected-(A1-VIN-Pad30)*%
X80460000Y-57500000D03*
%TD*%
D15*
%TO.P,J1,1,In*%
%TO.N,Net-(J1-In)*%
X72000000Y-52900000D03*
D16*
%TO.P,J1,2,Ext*%
%TO.N,GND*%
X66920000Y-47820000D03*
D15*
X69460000Y-52900000D03*
D16*
X77080000Y-47820000D03*
%TD*%
D17*
%TO.P,J2,1,Pin_1*%
%TO.N,GND*%
X72450000Y-79525000D03*
D18*
%TO.P,J2,2,Pin_2*%
%TO.N,+5V*%
X69950000Y-79525000D03*
%TO.P,J2,3,Pin_3*%
%TO.N,Net-(J2-Pin_3)*%
X67450000Y-79525000D03*
%TO.P,J2,4,Pin_4*%
%TO.N,Net-(J2-Pin_4)*%
X64950000Y-79525000D03*
%TD*%
D19*
%TO.N,GND*%
X104500000Y-48500000D03*
X78462500Y-79000000D03*
X72450000Y-74850000D03*
X62800000Y-71400000D03*
X64800000Y-69200000D03*
X102500000Y-82450000D03*
X65637500Y-61500000D03*
X80500000Y-61500000D03*
X51500000Y-75000000D03*
X96250000Y-81700000D03*
X52000000Y-45500000D03*
X84000000Y-65000000D03*
X115750000Y-49900000D03*
X51050000Y-79450000D03*
X106000000Y-82400000D03*
X50300000Y-53750000D03*
X50350000Y-57700000D03*
X83000000Y-60000000D03*
X57500000Y-80000000D03*
X109550000Y-82450000D03*
X44500000Y-79500000D03*
X105125000Y-65125000D03*
X52500000Y-69000000D03*
X67000000Y-63800000D03*
X40050000Y-53450000D03*
X40000000Y-59100000D03*
X58750000Y-59750000D03*
X88850000Y-74950000D03*
X104287500Y-44950000D03*
X37500000Y-80500000D03*
X70037500Y-61500000D03*
X106500000Y-69250000D03*
X88900000Y-78900000D03*
X93100000Y-69250000D03*
%TO.N,+5V*%
X88100000Y-54700000D03*
X77650000Y-63050000D03*
X77650000Y-68150000D03*
X87337500Y-60462500D03*
X62825000Y-74925000D03*
X68475000Y-74925000D03*
%TO.N,Net-(A1-A0)*%
X102250000Y-64401000D03*
X98900000Y-64401000D03*
%TO.N,Net-(C3-Pad2)*%
X57000000Y-75400000D03*
X57000000Y-73700000D03*
%TO.N,Net-(C4-Pad2)*%
X54850000Y-72700000D03*
X52750000Y-78950000D03*
X54800000Y-79000000D03*
X58000000Y-62500000D03*
%TO.N,Net-(U2A-+)*%
X101900000Y-50950000D03*
X98900000Y-50950000D03*
%TO.N,PWR_BTN*%
X91950000Y-79650000D03*
%TO.N,Net-(J3-Pin_7)*%
X107900000Y-76200000D03*
%TO.N,Net-(J3-Pin_5)*%
X104000000Y-77400000D03*
%TO.N,Net-(J3-Pin_6)*%
X100650000Y-76800000D03*
%TO.N,Net-(J3-Pin_3)*%
X49500000Y-70300000D03*
X70750000Y-70300000D03*
X102150000Y-67000000D03*
X98900000Y-67000000D03*
%TO.N,Net-(J3-Pin_4)*%
X112325000Y-79275000D03*
%TD*%
D20*
%TO.N,GND*%
X83000000Y-60000000D02*
X83000000Y-57500000D01*
D21*
X98900000Y-81700000D02*
X98950000Y-81750000D01*
D20*
%TO.N,+5V*%
X77650000Y-68150000D02*
X77650000Y-63050000D01*
X68475000Y-74925000D02*
X62825000Y-74925000D01*
X87337500Y-60462500D02*
X88080000Y-59720000D01*
X88100000Y-57480000D02*
X88080000Y-57500000D01*
X88100000Y-54700000D02*
X88100000Y-57480000D01*
X88080000Y-59720000D02*
X88080000Y-57500000D01*
D21*
%TO.N,Net-(A1-D3)*%
X35712000Y-55392000D02*
X75812000Y-55392000D01*
X75812000Y-55392000D02*
X93160000Y-72740000D01*
X33500000Y-53180000D02*
X35712000Y-55392000D01*
%TO.N,Net-(A1-D4)*%
X93041950Y-71639000D02*
X94599000Y-71639000D01*
X37924000Y-55064000D02*
X76466950Y-55064000D01*
X76466950Y-55064000D02*
X93041950Y-71639000D01*
X33500000Y-50640000D02*
X37924000Y-55064000D01*
X94599000Y-71639000D02*
X95700000Y-72740000D01*
%TO.N,Net-(A1-A0)*%
X98900000Y-64401000D02*
X102250000Y-64401000D01*
%TO.N,Net-(A1-D2)*%
X89190000Y-71310000D02*
X90620000Y-72740000D01*
X73600000Y-55720000D02*
X89190000Y-71310000D01*
X33500000Y-55720000D02*
X73600000Y-55720000D01*
%TO.N,Net-(C3-Pad2)*%
X57000000Y-75400000D02*
X57000000Y-75200000D01*
X57000000Y-75400000D02*
X57000000Y-73700000D01*
%TO.N,Net-(C4-Pad2)*%
X48274000Y-67726000D02*
X48274000Y-70473943D01*
X48274000Y-70473943D02*
X50500057Y-72700000D01*
X52750000Y-78950000D02*
X54750000Y-78950000D01*
X58000000Y-62500000D02*
X53500000Y-62500000D01*
X54750000Y-78950000D02*
X54800000Y-79000000D01*
X53500000Y-62500000D02*
X48274000Y-67726000D01*
X50500057Y-72700000D02*
X54850000Y-72700000D01*
%TO.N,Net-(U2A-+)*%
X98900000Y-50950000D02*
X101900000Y-50950000D01*
%TO.N,PWR_BTN*%
X91950000Y-79650000D02*
X92000000Y-79650000D01*
X33500000Y-48100000D02*
X31050000Y-50550000D01*
X32297437Y-78300000D02*
X40550000Y-78300000D01*
X88050000Y-81300000D02*
X89700000Y-79650000D01*
X31050000Y-50550000D02*
X31050000Y-77052563D01*
X40550000Y-78300000D02*
X43550000Y-81300000D01*
X31050000Y-77052563D02*
X32297437Y-78300000D01*
X89700000Y-79650000D02*
X91950000Y-79650000D01*
X43550000Y-81300000D02*
X88050000Y-81300000D01*
%TO.N,Net-(J3-Pin_7)*%
X107750000Y-76050000D02*
X107900000Y-76200000D01*
X48750000Y-76050000D02*
X107750000Y-76050000D01*
X33500000Y-60800000D02*
X48750000Y-76050000D01*
%TO.N,Net-(J3-Pin_5)*%
X103850000Y-77250000D02*
X104000000Y-77400000D01*
X101049943Y-77250000D02*
X103850000Y-77250000D01*
X100401057Y-77401000D02*
X100898943Y-77401000D01*
X100250057Y-77250000D02*
X100401057Y-77401000D01*
X33500000Y-65880000D02*
X44870000Y-77250000D01*
X100898943Y-77401000D02*
X101049943Y-77250000D01*
X44870000Y-77250000D02*
X100250057Y-77250000D01*
%TO.N,Net-(J3-Pin_6)*%
X33500000Y-63340000D02*
X46760000Y-76600000D01*
X46760000Y-76600000D02*
X100450000Y-76600000D01*
X100450000Y-76600000D02*
X100650000Y-76800000D01*
%TO.N,Net-(J3-Pin_3)*%
X98900000Y-67000000D02*
X102150000Y-67000000D01*
X49500000Y-70300000D02*
X70750000Y-70300000D01*
%TO.N,Net-(J3-Pin_4)*%
X104248943Y-78001000D02*
X104399943Y-77850000D01*
X110900000Y-77850000D02*
X112325000Y-79275000D01*
X103751057Y-78001000D02*
X104248943Y-78001000D01*
X33500000Y-68420000D02*
X42930000Y-77850000D01*
X104399943Y-77850000D02*
X110900000Y-77850000D01*
X42930000Y-77850000D02*
X103600057Y-77850000D01*
X103600057Y-77850000D02*
X103751057Y-78001000D01*
%TD*%
%TA.AperFunction,Conductor*%
%TO.N,GND*%
G36*
X119425000Y-40520462D02*
G01*
X119479538Y-40575000D01*
X119499500Y-40649500D01*
X119499500Y-83350500D01*
X119479538Y-83425000D01*
X119425000Y-83479538D01*
X119350500Y-83499500D01*
X75049500Y-83499500D01*
X74975000Y-83479538D01*
X74920462Y-83425000D01*
X74900500Y-83350500D01*
X74900500Y-82734108D01*
X74900499Y-82734106D01*
X74866392Y-82606814D01*
X74800500Y-82492686D01*
X74707314Y-82399500D01*
X74707311Y-82399498D01*
X74707310Y-82399497D01*
X74636514Y-82358623D01*
X74593186Y-82333608D01*
X74465892Y-82299500D01*
X63065892Y-82299500D01*
X62934108Y-82299500D01*
X62806814Y-82333608D01*
X62806812Y-82333608D01*
X62806812Y-82333609D01*
X62692689Y-82399497D01*
X62599497Y-82492689D01*
X62533609Y-82606812D01*
X62499500Y-82734106D01*
X62499500Y-83350500D01*
X62479538Y-83425000D01*
X62425000Y-83479538D01*
X62350500Y-83499500D01*
X30649500Y-83499500D01*
X30575000Y-83479538D01*
X30520462Y-83425000D01*
X30500500Y-83350500D01*
X30500500Y-77712016D01*
X30520462Y-77637516D01*
X30575000Y-77582978D01*
X30649500Y-77563016D01*
X30724000Y-77582978D01*
X30754859Y-77606657D01*
X31816915Y-78668713D01*
X31816917Y-78668716D01*
X31928721Y-78780520D01*
X31980226Y-78810256D01*
X31991966Y-78817034D01*
X32065648Y-78859575D01*
X32065649Y-78859575D01*
X32065652Y-78859577D01*
X32156639Y-78883957D01*
X32223433Y-78922520D01*
X32261997Y-78989315D01*
X32261997Y-79066443D01*
X32223433Y-79133238D01*
X32175096Y-79165536D01*
X32108867Y-79192969D01*
X31880625Y-79324745D01*
X31880624Y-79324745D01*
X31671543Y-79485180D01*
X31671543Y-79485181D01*
X31671541Y-79485183D01*
X31485183Y-79671541D01*
X31485181Y-79671543D01*
X31485180Y-79671543D01*
X31324745Y-79880624D01*
X31324745Y-79880625D01*
X31192970Y-80108866D01*
X31092113Y-80352355D01*
X31023898Y-80606936D01*
X30989500Y-80868219D01*
X30989500Y-81131780D01*
X31023898Y-81393063D01*
X31092113Y-81647644D01*
X31133889Y-81748500D01*
X31179898Y-81859576D01*
X31192970Y-81891133D01*
X31324745Y-82119374D01*
X31324745Y-82119375D01*
X31485180Y-82328456D01*
X31671543Y-82514819D01*
X31791430Y-82606812D01*
X31880629Y-82675257D01*
X32108871Y-82807032D01*
X32352359Y-82907888D01*
X32606929Y-82976100D01*
X32606935Y-82976100D01*
X32606936Y-82976101D01*
X32677968Y-82985452D01*
X32868225Y-83010500D01*
X33131775Y-83010500D01*
X33393071Y-82976100D01*
X33647641Y-82907888D01*
X33891129Y-82807032D01*
X34119371Y-82675257D01*
X34328456Y-82514819D01*
X34328457Y-82514819D01*
X34514819Y-82328457D01*
X34514819Y-82328456D01*
X34675254Y-82119375D01*
X34675254Y-82119374D01*
X34675257Y-82119371D01*
X34807032Y-81891129D01*
X34907888Y-81647641D01*
X34976100Y-81393071D01*
X35010500Y-81131775D01*
X35010500Y-80868225D01*
X34976100Y-80606929D01*
X34907888Y-80352359D01*
X34807032Y-80108871D01*
X34675257Y-79880629D01*
X34675254Y-79880625D01*
X34675254Y-79880624D01*
X34514819Y-79671543D01*
X34328456Y-79485180D01*
X34119374Y-79324745D01*
X33891134Y-79192970D01*
X33889616Y-79192341D01*
X33877099Y-79187156D01*
X33815911Y-79140206D01*
X33786396Y-79068949D01*
X33796463Y-78992480D01*
X33843415Y-78931290D01*
X33914672Y-78901775D01*
X33934121Y-78900500D01*
X40239547Y-78900500D01*
X40314047Y-78920462D01*
X40344905Y-78944140D01*
X43181284Y-81780520D01*
X43318216Y-81859577D01*
X43470943Y-81900501D01*
X43470948Y-81900501D01*
X43638187Y-81900501D01*
X43638203Y-81900500D01*
X87961798Y-81900500D01*
X87961814Y-81900501D01*
X87970943Y-81900501D01*
X88129052Y-81900501D01*
X88129057Y-81900501D01*
X88281785Y-81859577D01*
X88300813Y-81848590D01*
X88331900Y-81830642D01*
X88331904Y-81830639D01*
X88418716Y-81780520D01*
X88530520Y-81668716D01*
X88530520Y-81668714D01*
X88542782Y-81656453D01*
X88542785Y-81656448D01*
X89331015Y-80868219D01*
X114989500Y-80868219D01*
X114989500Y-81131780D01*
X115023898Y-81393063D01*
X115092113Y-81647644D01*
X115133889Y-81748500D01*
X115179898Y-81859576D01*
X115192970Y-81891133D01*
X115324745Y-82119374D01*
X115324745Y-82119375D01*
X115485180Y-82328456D01*
X115671543Y-82514819D01*
X115791430Y-82606812D01*
X115880629Y-82675257D01*
X116108871Y-82807032D01*
X116352359Y-82907888D01*
X116606929Y-82976100D01*
X116606935Y-82976100D01*
X116606936Y-82976101D01*
X116677968Y-82985452D01*
X116868225Y-83010500D01*
X117131775Y-83010500D01*
X117393071Y-82976100D01*
X117647641Y-82907888D01*
X117891129Y-82807032D01*
X118119371Y-82675257D01*
X118328456Y-82514819D01*
X118328457Y-82514819D01*
X118514819Y-82328457D01*
X118514819Y-82328456D01*
X118675254Y-82119375D01*
X118675254Y-82119374D01*
X118675257Y-82119371D01*
X118807032Y-81891129D01*
X118907888Y-81647641D01*
X118976100Y-81393071D01*
X119010500Y-81131775D01*
X119010500Y-80868225D01*
X118976100Y-80606929D01*
X118907888Y-80352359D01*
X118807032Y-80108871D01*
X118675257Y-79880629D01*
X118675254Y-79880625D01*
X118675254Y-79880624D01*
X118514819Y-79671543D01*
X118328456Y-79485180D01*
X118119374Y-79324745D01*
X118067788Y-79294962D01*
X118013443Y-79263586D01*
X117891133Y-79192970D01*
X117891131Y-79192969D01*
X117891129Y-79192968D01*
X117746928Y-79133238D01*
X117647644Y-79092113D01*
X117647642Y-79092112D01*
X117647641Y-79092112D01*
X117393071Y-79023900D01*
X117393069Y-79023899D01*
X117393063Y-79023898D01*
X117131780Y-78989500D01*
X117131775Y-78989500D01*
X116868225Y-78989500D01*
X116868219Y-78989500D01*
X116606936Y-79023898D01*
X116352355Y-79092113D01*
X116108866Y-79192970D01*
X115880625Y-79324745D01*
X115880624Y-79324745D01*
X115671543Y-79485180D01*
X115671543Y-79485181D01*
X115671541Y-79485183D01*
X115485183Y-79671541D01*
X115485181Y-79671543D01*
X115485180Y-79671543D01*
X115324745Y-79880624D01*
X115324745Y-79880625D01*
X115192970Y-80108866D01*
X115092113Y-80352355D01*
X115023898Y-80606936D01*
X114989500Y-80868219D01*
X89331015Y-80868219D01*
X89905094Y-80294141D01*
X89971889Y-80255577D01*
X90010453Y-80250500D01*
X91362652Y-80250500D01*
X91437152Y-80270462D01*
X91445433Y-80275612D01*
X91570816Y-80359391D01*
X91570818Y-80359392D01*
X91570821Y-80359394D01*
X91716503Y-80419737D01*
X91871158Y-80450500D01*
X92028842Y-80450500D01*
X92183497Y-80419737D01*
X92329179Y-80359394D01*
X92460289Y-80271789D01*
X92571789Y-80160289D01*
X92659394Y-80029179D01*
X92719737Y-79883497D01*
X92750500Y-79728842D01*
X92750500Y-79571158D01*
X92719737Y-79416503D01*
X92688735Y-79341657D01*
X92659395Y-79270823D01*
X92659394Y-79270821D01*
X92571789Y-79139711D01*
X92460289Y-79028211D01*
X92329179Y-78940606D01*
X92329178Y-78940605D01*
X92329176Y-78940604D01*
X92183498Y-78880263D01*
X92183494Y-78880262D01*
X92028842Y-78849500D01*
X91871158Y-78849500D01*
X91716505Y-78880262D01*
X91716501Y-78880263D01*
X91570822Y-78940605D01*
X91570816Y-78940608D01*
X91445433Y-79024388D01*
X91372398Y-79049181D01*
X91362652Y-79049500D01*
X89620938Y-79049500D01*
X89580019Y-79060464D01*
X89580019Y-79060465D01*
X89548357Y-79068949D01*
X89468215Y-79090423D01*
X89331283Y-79169480D01*
X89267421Y-79233343D01*
X89219480Y-79281284D01*
X89219478Y-79281286D01*
X88516370Y-79984395D01*
X87844906Y-80655859D01*
X87778111Y-80694423D01*
X87739547Y-80699500D01*
X73897496Y-80699500D01*
X73822996Y-80679538D01*
X73768458Y-80625000D01*
X73748496Y-80550500D01*
X73756059Y-80503632D01*
X73789505Y-80402697D01*
X73789507Y-80402688D01*
X73799999Y-80299989D01*
X73800000Y-80299979D01*
X73800000Y-79775000D01*
X72854146Y-79775000D01*
X72892630Y-79708343D01*
X72925000Y-79587535D01*
X72925000Y-79462465D01*
X72892630Y-79341657D01*
X72854146Y-79275000D01*
X73799999Y-79275000D01*
X73799999Y-78750026D01*
X73789505Y-78647303D01*
X73789194Y-78646363D01*
X73789152Y-78645655D01*
X73787803Y-78639350D01*
X73788773Y-78639142D01*
X73784712Y-78569365D01*
X73819329Y-78500442D01*
X73883770Y-78458061D01*
X73930633Y-78450500D01*
X103291336Y-78450500D01*
X103292154Y-78450719D01*
X103292976Y-78450509D01*
X103298517Y-78452424D01*
X103365836Y-78470462D01*
X103367252Y-78471290D01*
X103379164Y-78478343D01*
X103382341Y-78481520D01*
X103469152Y-78531639D01*
X103519272Y-78560577D01*
X103671999Y-78601500D01*
X103672000Y-78601500D01*
X104160741Y-78601500D01*
X104160757Y-78601501D01*
X104169886Y-78601501D01*
X104327995Y-78601501D01*
X104328000Y-78601501D01*
X104480728Y-78560577D01*
X104501789Y-78548416D01*
X104530079Y-78532083D01*
X104530117Y-78532060D01*
X104530847Y-78531639D01*
X104617659Y-78481520D01*
X104620835Y-78478343D01*
X104632748Y-78471290D01*
X104661569Y-78463226D01*
X104689218Y-78451774D01*
X104706563Y-78450637D01*
X104707023Y-78450509D01*
X104707329Y-78450587D01*
X104708664Y-78450500D01*
X110589547Y-78450500D01*
X110664047Y-78470462D01*
X110694906Y-78494141D01*
X111485064Y-79284299D01*
X111523628Y-79351094D01*
X111525842Y-79360589D01*
X111555262Y-79508496D01*
X111555263Y-79508498D01*
X111615604Y-79654176D01*
X111615605Y-79654178D01*
X111615606Y-79654179D01*
X111703211Y-79785289D01*
X111814711Y-79896789D01*
X111945821Y-79984394D01*
X111945822Y-79984394D01*
X111945823Y-79984395D01*
X112018662Y-80014565D01*
X112091503Y-80044737D01*
X112246158Y-80075500D01*
X112403842Y-80075500D01*
X112558497Y-80044737D01*
X112704179Y-79984394D01*
X112835289Y-79896789D01*
X112946789Y-79785289D01*
X113034394Y-79654179D01*
X113094737Y-79508497D01*
X113125500Y-79353842D01*
X113125500Y-79196158D01*
X113124865Y-79192968D01*
X113103142Y-79083757D01*
X113094737Y-79041503D01*
X113044889Y-78921158D01*
X113034395Y-78895823D01*
X113026466Y-78883956D01*
X112946789Y-78764711D01*
X112835289Y-78653211D01*
X112704179Y-78565606D01*
X112704178Y-78565605D01*
X112704176Y-78565604D01*
X112558498Y-78505263D01*
X112558496Y-78505262D01*
X112410589Y-78475842D01*
X112341415Y-78441729D01*
X112334299Y-78435064D01*
X111389015Y-77489780D01*
X111389013Y-77489777D01*
X111268715Y-77369479D01*
X111181906Y-77319361D01*
X111181905Y-77319360D01*
X111131786Y-77290423D01*
X110979057Y-77249499D01*
X110820943Y-77249499D01*
X110811814Y-77249499D01*
X110811798Y-77249500D01*
X108207162Y-77249500D01*
X108132662Y-77229538D01*
X108078124Y-77175000D01*
X108058162Y-77100500D01*
X108078124Y-77026000D01*
X108132662Y-76971462D01*
X108150143Y-76962842D01*
X108210547Y-76937822D01*
X108279179Y-76909394D01*
X108410289Y-76821789D01*
X108521789Y-76710289D01*
X108609394Y-76579179D01*
X108669737Y-76433497D01*
X108700500Y-76278842D01*
X108700500Y-76121158D01*
X108669737Y-75966503D01*
X108609394Y-75820821D01*
X108521789Y-75689711D01*
X108410289Y-75578211D01*
X108279179Y-75490606D01*
X108279178Y-75490605D01*
X108279176Y-75490604D01*
X108133498Y-75430263D01*
X108133494Y-75430262D01*
X107978842Y-75399500D01*
X107821158Y-75399500D01*
X107666505Y-75430262D01*
X107666501Y-75430263D01*
X107647442Y-75438158D01*
X107590423Y-75449500D01*
X69347194Y-75449500D01*
X69272694Y-75429538D01*
X69218156Y-75375000D01*
X69198194Y-75300500D01*
X69209536Y-75243481D01*
X69220267Y-75217571D01*
X69244737Y-75158497D01*
X69275500Y-75003842D01*
X69275500Y-74846158D01*
X69270773Y-74822396D01*
X69265245Y-74794606D01*
X69244737Y-74691503D01*
X69184394Y-74545821D01*
X69096789Y-74414711D01*
X68985289Y-74303211D01*
X68854179Y-74215606D01*
X68854178Y-74215605D01*
X68854176Y-74215604D01*
X68708498Y-74155263D01*
X68708494Y-74155262D01*
X68553842Y-74124500D01*
X68396158Y-74124500D01*
X68241505Y-74155262D01*
X68241501Y-74155263D01*
X68222442Y-74163158D01*
X68165423Y-74174500D01*
X63134577Y-74174500D01*
X63077558Y-74163158D01*
X63058498Y-74155263D01*
X63058494Y-74155262D01*
X62903842Y-74124500D01*
X62746158Y-74124500D01*
X62591505Y-74155262D01*
X62591501Y-74155263D01*
X62445823Y-74215604D01*
X62314707Y-74303214D01*
X62203214Y-74414707D01*
X62115604Y-74545823D01*
X62055263Y-74691501D01*
X62055262Y-74691505D01*
X62024500Y-74846157D01*
X62024500Y-75003842D01*
X62055262Y-75158494D01*
X62055263Y-75158498D01*
X62090464Y-75243481D01*
X62100531Y-75319949D01*
X62071015Y-75391206D01*
X62009825Y-75438158D01*
X61952806Y-75449500D01*
X57948186Y-75449500D01*
X57873686Y-75429538D01*
X57819148Y-75375000D01*
X57804026Y-75327919D01*
X57801928Y-75328337D01*
X57800500Y-75321158D01*
X57769737Y-75166503D01*
X57709394Y-75020821D01*
X57625611Y-74895431D01*
X57600819Y-74822396D01*
X57600500Y-74812651D01*
X57600500Y-74287348D01*
X57620462Y-74212848D01*
X57625612Y-74204567D01*
X57709391Y-74079183D01*
X57709394Y-74079179D01*
X57769737Y-73933497D01*
X57800500Y-73778842D01*
X57800500Y-73621158D01*
X57769737Y-73466503D01*
X57730629Y-73372087D01*
X57709395Y-73320823D01*
X57709154Y-73320462D01*
X57621789Y-73189711D01*
X57510289Y-73078211D01*
X57379179Y-72990606D01*
X57379178Y-72990605D01*
X57379176Y-72990604D01*
X57233498Y-72930263D01*
X57233494Y-72930262D01*
X57078842Y-72899500D01*
X56921158Y-72899500D01*
X56766505Y-72930262D01*
X56766501Y-72930263D01*
X56620823Y-72990604D01*
X56554503Y-73034918D01*
X56503922Y-73068716D01*
X56489707Y-73078214D01*
X56378214Y-73189707D01*
X56290604Y-73320823D01*
X56230263Y-73466501D01*
X56230262Y-73466505D01*
X56199500Y-73621157D01*
X56199500Y-73778842D01*
X56230262Y-73933494D01*
X56230263Y-73933498D01*
X56290605Y-74079177D01*
X56290608Y-74079183D01*
X56374388Y-74204567D01*
X56399181Y-74277602D01*
X56399500Y-74287348D01*
X56399500Y-74812651D01*
X56379538Y-74887151D01*
X56374389Y-74895431D01*
X56290606Y-75020819D01*
X56290605Y-75020822D01*
X56230263Y-75166501D01*
X56230262Y-75166505D01*
X56198072Y-75328337D01*
X56195317Y-75327789D01*
X56172945Y-75387266D01*
X56113334Y-75436207D01*
X56051814Y-75449500D01*
X49060453Y-75449500D01*
X48985953Y-75429538D01*
X48955094Y-75405859D01*
X41196177Y-67646942D01*
X47673499Y-67646942D01*
X47673499Y-67646943D01*
X47673499Y-67805057D01*
X47673499Y-67805059D01*
X47673500Y-67817068D01*
X47673500Y-70385740D01*
X47673499Y-70385758D01*
X47673499Y-70394886D01*
X47673499Y-70553000D01*
X47714423Y-70705728D01*
X47740228Y-70750423D01*
X47740229Y-70750424D01*
X47740229Y-70750425D01*
X47793479Y-70842658D01*
X47913774Y-70962953D01*
X47913780Y-70962958D01*
X50019535Y-73068713D01*
X50019537Y-73068716D01*
X50131341Y-73180520D01*
X50200622Y-73220519D01*
X50211483Y-73226789D01*
X50211486Y-73226792D01*
X50268269Y-73259576D01*
X50268271Y-73259576D01*
X50268272Y-73259577D01*
X50421000Y-73300501D01*
X50421005Y-73300501D01*
X50588243Y-73300501D01*
X50588259Y-73300500D01*
X54262652Y-73300500D01*
X54337152Y-73320462D01*
X54345433Y-73325612D01*
X54470816Y-73409391D01*
X54470818Y-73409392D01*
X54470821Y-73409394D01*
X54616503Y-73469737D01*
X54771158Y-73500500D01*
X54928842Y-73500500D01*
X55083497Y-73469737D01*
X55229179Y-73409394D01*
X55360289Y-73321789D01*
X55471789Y-73210289D01*
X55559394Y-73079179D01*
X55619737Y-72933497D01*
X55650500Y-72778842D01*
X55650500Y-72621158D01*
X55619737Y-72466503D01*
X55559394Y-72320821D01*
X55471789Y-72189711D01*
X55360289Y-72078211D01*
X55261232Y-72012023D01*
X55261231Y-72012022D01*
X55229183Y-71990608D01*
X55229177Y-71990605D01*
X55083498Y-71930263D01*
X55083494Y-71930262D01*
X54928842Y-71899500D01*
X54771158Y-71899500D01*
X54616505Y-71930262D01*
X54616501Y-71930263D01*
X54470822Y-71990605D01*
X54470816Y-71990608D01*
X54345433Y-72074388D01*
X54272398Y-72099181D01*
X54262652Y-72099500D01*
X50810510Y-72099500D01*
X50736010Y-72079538D01*
X50705151Y-72055859D01*
X49875383Y-71226091D01*
X49867981Y-71213271D01*
X49856853Y-71203512D01*
X49849013Y-71180417D01*
X49836819Y-71159296D01*
X49836819Y-71144493D01*
X49832061Y-71130477D01*
X49836819Y-71106557D01*
X49836819Y-71082168D01*
X49844220Y-71069348D01*
X49847108Y-71054831D01*
X49863188Y-71036494D01*
X49875383Y-71015373D01*
X49897958Y-70996846D01*
X50004569Y-70925610D01*
X50077603Y-70900819D01*
X50087348Y-70900500D01*
X70162652Y-70900500D01*
X70237152Y-70920462D01*
X70245433Y-70925612D01*
X70370816Y-71009391D01*
X70370818Y-71009392D01*
X70370821Y-71009394D01*
X70516503Y-71069737D01*
X70671158Y-71100500D01*
X70828842Y-71100500D01*
X70983497Y-71069737D01*
X71129179Y-71009394D01*
X71260289Y-70921789D01*
X71371789Y-70810289D01*
X71459394Y-70679179D01*
X71519737Y-70533497D01*
X71550500Y-70378842D01*
X71550500Y-70221158D01*
X71519737Y-70066503D01*
X71489565Y-69993662D01*
X71459395Y-69920823D01*
X71459394Y-69920821D01*
X71371789Y-69789711D01*
X71260289Y-69678211D01*
X71129179Y-69590606D01*
X71129178Y-69590605D01*
X71129176Y-69590604D01*
X70983498Y-69530263D01*
X70983494Y-69530262D01*
X70828842Y-69499500D01*
X70671158Y-69499500D01*
X70516505Y-69530262D01*
X70516501Y-69530263D01*
X70370822Y-69590605D01*
X70370816Y-69590608D01*
X70269740Y-69658145D01*
X70249670Y-69671557D01*
X70245433Y-69674388D01*
X70172398Y-69699181D01*
X70162652Y-69699500D01*
X50087348Y-69699500D01*
X50012848Y-69679538D01*
X50004567Y-69674388D01*
X50000330Y-69671557D01*
X49963938Y-69647240D01*
X49879183Y-69590608D01*
X49879177Y-69590605D01*
X49733498Y-69530263D01*
X49733494Y-69530262D01*
X49578842Y-69499500D01*
X49421158Y-69499500D01*
X49266505Y-69530262D01*
X49266501Y-69530263D01*
X49120822Y-69590605D01*
X49120815Y-69590608D01*
X49106278Y-69600322D01*
X49033242Y-69625113D01*
X48957597Y-69610065D01*
X48899610Y-69559210D01*
X48874819Y-69486174D01*
X48874500Y-69476432D01*
X48874500Y-68036452D01*
X48894462Y-67961952D01*
X48918137Y-67931097D01*
X52585514Y-64263719D01*
X52652307Y-64225157D01*
X52729435Y-64225157D01*
X52796230Y-64263721D01*
X52834794Y-64330516D01*
X52834799Y-64402939D01*
X52835296Y-64403038D01*
X52835366Y-64403048D01*
X52835365Y-64403052D01*
X52835679Y-64403115D01*
X52834799Y-64407531D01*
X52834800Y-64407620D01*
X52834731Y-64407875D01*
X52834728Y-64407892D01*
X52800500Y-64667876D01*
X52800500Y-64930123D01*
X52834728Y-65190107D01*
X52834728Y-65190110D01*
X52902600Y-65443415D01*
X52902600Y-65443416D01*
X52917304Y-65478913D01*
X53002957Y-65685697D01*
X53126368Y-65899453D01*
X53134078Y-65912806D01*
X53134078Y-65912807D01*
X53293715Y-66120848D01*
X53479151Y-66306284D01*
X53687193Y-66465921D01*
X53687197Y-66465924D01*
X53914303Y-66597043D01*
X54118809Y-66681752D01*
X54156583Y-66697399D01*
X54244332Y-66720910D01*
X54409884Y-66765270D01*
X54409890Y-66765270D01*
X54409891Y-66765271D01*
X54446834Y-66770134D01*
X54669877Y-66799499D01*
X54669878Y-66799500D01*
X54669880Y-66799500D01*
X54932122Y-66799500D01*
X54932122Y-66799499D01*
X55192108Y-66765271D01*
X55192110Y-66765271D01*
X55192111Y-66765270D01*
X55192116Y-66765270D01*
X55445415Y-66697399D01*
X55445416Y-66697399D01*
X55445417Y-66697398D01*
X55445419Y-66697398D01*
X55687697Y-66597043D01*
X55914803Y-66465924D01*
X55915347Y-66465507D01*
X56001368Y-66399500D01*
X56122848Y-66306284D01*
X56122849Y-66306284D01*
X56308284Y-66120849D01*
X56308284Y-66120848D01*
X56381552Y-66025365D01*
X56467924Y-65912803D01*
X56599043Y-65685697D01*
X56699398Y-65443419D01*
X56767270Y-65190116D01*
X56801500Y-64930120D01*
X56801500Y-64667880D01*
X56767270Y-64407884D01*
X56702861Y-64167505D01*
X56699399Y-64154584D01*
X56699399Y-64154583D01*
X56655174Y-64047816D01*
X56599043Y-63912303D01*
X56467924Y-63685197D01*
X56467921Y-63685193D01*
X56467921Y-63685192D01*
X56308284Y-63477151D01*
X56185992Y-63354859D01*
X56147428Y-63288064D01*
X56147428Y-63210936D01*
X56185992Y-63144141D01*
X56252787Y-63105577D01*
X56291351Y-63100500D01*
X57412652Y-63100500D01*
X57487152Y-63120462D01*
X57495426Y-63125607D01*
X57505734Y-63132495D01*
X57620816Y-63209391D01*
X57620818Y-63209392D01*
X57620821Y-63209394D01*
X57766503Y-63269737D01*
X57921158Y-63300500D01*
X58078842Y-63300500D01*
X58233497Y-63269737D01*
X58379179Y-63209394D01*
X58510289Y-63121789D01*
X58621789Y-63010289D01*
X58647936Y-62971157D01*
X76849500Y-62971157D01*
X76849500Y-63128842D01*
X76880261Y-63283492D01*
X76880262Y-63283496D01*
X76880263Y-63283497D01*
X76888158Y-63302559D01*
X76899500Y-63359576D01*
X76899500Y-67840423D01*
X76888158Y-67897442D01*
X76880263Y-67916501D01*
X76880262Y-67916505D01*
X76849500Y-68071157D01*
X76849500Y-68228842D01*
X76880262Y-68383494D01*
X76880263Y-68383498D01*
X76940604Y-68529176D01*
X76940605Y-68529178D01*
X76940606Y-68529179D01*
X77028211Y-68660289D01*
X77139711Y-68771789D01*
X77270821Y-68859394D01*
X77416503Y-68919737D01*
X77571158Y-68950500D01*
X77728842Y-68950500D01*
X77883497Y-68919737D01*
X78029179Y-68859394D01*
X78160289Y-68771789D01*
X78271789Y-68660289D01*
X78359394Y-68529179D01*
X78419737Y-68383497D01*
X78450500Y-68228842D01*
X78450500Y-68071158D01*
X78419737Y-67916503D01*
X78411842Y-67897442D01*
X78400500Y-67840423D01*
X78400500Y-63359576D01*
X78411841Y-63302559D01*
X78419737Y-63283497D01*
X78450500Y-63128842D01*
X78450500Y-62971158D01*
X78419737Y-62816503D01*
X78359394Y-62670821D01*
X78271789Y-62539711D01*
X78160289Y-62428211D01*
X78029179Y-62340606D01*
X78029178Y-62340605D01*
X78029176Y-62340604D01*
X77883498Y-62280263D01*
X77883494Y-62280262D01*
X77728842Y-62249500D01*
X77571158Y-62249500D01*
X77416505Y-62280262D01*
X77416501Y-62280263D01*
X77270823Y-62340604D01*
X77139707Y-62428214D01*
X77028214Y-62539707D01*
X77028211Y-62539710D01*
X77028211Y-62539711D01*
X76999278Y-62583012D01*
X76940604Y-62670823D01*
X76880263Y-62816501D01*
X76880262Y-62816505D01*
X76849500Y-62971157D01*
X58647936Y-62971157D01*
X58709394Y-62879179D01*
X58769737Y-62733497D01*
X58800500Y-62578842D01*
X58800500Y-62421158D01*
X58769737Y-62266503D01*
X58738274Y-62190544D01*
X58709395Y-62120823D01*
X58709394Y-62120821D01*
X58621789Y-61989711D01*
X58510289Y-61878211D01*
X58379179Y-61790606D01*
X58379178Y-61790605D01*
X58379176Y-61790604D01*
X58233498Y-61730263D01*
X58233494Y-61730262D01*
X58078842Y-61699500D01*
X57921158Y-61699500D01*
X57766505Y-61730262D01*
X57766501Y-61730263D01*
X57620822Y-61790605D01*
X57620816Y-61790608D01*
X57495433Y-61874388D01*
X57422398Y-61899181D01*
X57412652Y-61899500D01*
X53420939Y-61899500D01*
X53268215Y-61940423D01*
X53268211Y-61940424D01*
X53242878Y-61955050D01*
X53242879Y-61955051D01*
X53131283Y-62019480D01*
X47793480Y-67357283D01*
X47743360Y-67444095D01*
X47743359Y-67444096D01*
X47714423Y-67494212D01*
X47673499Y-67646942D01*
X41196177Y-67646942D01*
X38217142Y-64667907D01*
X42801000Y-64667907D01*
X42801000Y-64930092D01*
X42835218Y-65190007D01*
X42835219Y-65190012D01*
X42903074Y-65443254D01*
X42903074Y-65443255D01*
X43003408Y-65685479D01*
X43134492Y-65912522D01*
X43221079Y-66025365D01*
X44236386Y-65010057D01*
X44241889Y-65030591D01*
X44320881Y-65167408D01*
X44432592Y-65279119D01*
X44569409Y-65358111D01*
X44589941Y-65363612D01*
X43574633Y-66378920D01*
X43687477Y-66465507D01*
X43914520Y-66596591D01*
X44156744Y-66696925D01*
X44409987Y-66764780D01*
X44409992Y-66764781D01*
X44669907Y-66798999D01*
X44669911Y-66799000D01*
X44932089Y-66799000D01*
X44932092Y-66798999D01*
X45192007Y-66764781D01*
X45192012Y-66764780D01*
X45445254Y-66696925D01*
X45445255Y-66696925D01*
X45687479Y-66596591D01*
X45914526Y-66465505D01*
X45914528Y-66465504D01*
X46027366Y-66378920D01*
X45012058Y-65363612D01*
X45032591Y-65358111D01*
X45169408Y-65279119D01*
X45281119Y-65167408D01*
X45360111Y-65030591D01*
X45365612Y-65010057D01*
X46380920Y-66025365D01*
X46467504Y-65912528D01*
X46467505Y-65912526D01*
X46598591Y-65685479D01*
X46698925Y-65443255D01*
X46698925Y-65443254D01*
X46766780Y-65190012D01*
X46766781Y-65190007D01*
X46800999Y-64930092D01*
X46801000Y-64930088D01*
X46801000Y-64667911D01*
X46800999Y-64667907D01*
X46766781Y-64407992D01*
X46766780Y-64407987D01*
X46698925Y-64154745D01*
X46698925Y-64154744D01*
X46598591Y-63912520D01*
X46467507Y-63685477D01*
X46380920Y-63572633D01*
X45365612Y-64587940D01*
X45360111Y-64567409D01*
X45281119Y-64430592D01*
X45169408Y-64318881D01*
X45032591Y-64239889D01*
X45012057Y-64234386D01*
X46027365Y-63219079D01*
X45914522Y-63132492D01*
X45687479Y-63001408D01*
X45445255Y-62901074D01*
X45192012Y-62833219D01*
X45192007Y-62833218D01*
X44932092Y-62799000D01*
X44669907Y-62799000D01*
X44409992Y-62833218D01*
X44409987Y-62833219D01*
X44156745Y-62901074D01*
X44156744Y-62901074D01*
X43914520Y-63001408D01*
X43687472Y-63132495D01*
X43574633Y-63219078D01*
X43574633Y-63219079D01*
X44589941Y-64234387D01*
X44569409Y-64239889D01*
X44432592Y-64318881D01*
X44320881Y-64430592D01*
X44241889Y-64567409D01*
X44236387Y-64587941D01*
X43221079Y-63572633D01*
X43221078Y-63572633D01*
X43134495Y-63685472D01*
X43003408Y-63912520D01*
X42903074Y-64154744D01*
X42903074Y-64154745D01*
X42835219Y-64407987D01*
X42835218Y-64407992D01*
X42801000Y-64667907D01*
X38217142Y-64667907D01*
X34844590Y-61295355D01*
X34806026Y-61228560D01*
X34806026Y-61151432D01*
X34808237Y-61143966D01*
X34817246Y-61116243D01*
X34850500Y-60906287D01*
X34850500Y-60693713D01*
X34817246Y-60483757D01*
X34751557Y-60281588D01*
X34655051Y-60092184D01*
X34530104Y-59920208D01*
X34379792Y-59769896D01*
X34215517Y-59650544D01*
X34166979Y-59590604D01*
X34154913Y-59514426D01*
X34182553Y-59442420D01*
X34215517Y-59409456D01*
X34222519Y-59404368D01*
X34379792Y-59290104D01*
X34530104Y-59139792D01*
X34655051Y-58967816D01*
X34751557Y-58778412D01*
X34817246Y-58576243D01*
X34850500Y-58366287D01*
X34850500Y-58153713D01*
X34817246Y-57943757D01*
X34751557Y-57741588D01*
X34655051Y-57552184D01*
X34530104Y-57380208D01*
X34379792Y-57229896D01*
X34215517Y-57110544D01*
X34166979Y-57050604D01*
X34154913Y-56974426D01*
X34182553Y-56902420D01*
X34215517Y-56869456D01*
X34232705Y-56856968D01*
X34379792Y-56750104D01*
X34530104Y-56599792D01*
X34655051Y-56427816D01*
X34668279Y-56401853D01*
X34719887Y-56344538D01*
X34793240Y-56320704D01*
X34801038Y-56320500D01*
X73289547Y-56320500D01*
X73364047Y-56340462D01*
X73394906Y-56364141D01*
X88304561Y-71273796D01*
X88343125Y-71340591D01*
X88343125Y-71417719D01*
X88330000Y-71440452D01*
X88330000Y-72306988D01*
X88272993Y-72274075D01*
X88145826Y-72240000D01*
X88014174Y-72240000D01*
X87887007Y-72274075D01*
X87830000Y-72306988D01*
X87830000Y-71463391D01*
X87775582Y-71472010D01*
X87580979Y-71535241D01*
X87580967Y-71535246D01*
X87398645Y-71628143D01*
X87233110Y-71748412D01*
X87088412Y-71893110D01*
X86968141Y-72058648D01*
X86943039Y-72107914D01*
X86891430Y-72165231D01*
X86818077Y-72189064D01*
X86742634Y-72173027D01*
X86685317Y-72121418D01*
X86677520Y-72107913D01*
X86677240Y-72107363D01*
X86652287Y-72058390D01*
X86603041Y-71990608D01*
X86531971Y-71892787D01*
X86531964Y-71892779D01*
X86387220Y-71748035D01*
X86387212Y-71748028D01*
X86221612Y-71627714D01*
X86039224Y-71534782D01*
X86039220Y-71534780D01*
X86039219Y-71534780D01*
X85844534Y-71471523D01*
X85642352Y-71439500D01*
X85437648Y-71439500D01*
X85286809Y-71463391D01*
X85235465Y-71471523D01*
X85040787Y-71534778D01*
X85040775Y-71534782D01*
X84858387Y-71627714D01*
X84692787Y-71748028D01*
X84692779Y-71748035D01*
X84548035Y-71892779D01*
X84548028Y-71892787D01*
X84427714Y-72058388D01*
X84402760Y-72107363D01*
X84351151Y-72164680D01*
X84277797Y-72188514D01*
X84202355Y-72172478D01*
X84145038Y-72120869D01*
X84137240Y-72107363D01*
X84112287Y-72058390D01*
X84019198Y-71930263D01*
X83991971Y-71892787D01*
X83991964Y-71892779D01*
X83847220Y-71748035D01*
X83847212Y-71748028D01*
X83681612Y-71627714D01*
X83499224Y-71534782D01*
X83499220Y-71534780D01*
X83499219Y-71534780D01*
X83304534Y-71471523D01*
X83102352Y-71439500D01*
X82897648Y-71439500D01*
X82746809Y-71463391D01*
X82695465Y-71471523D01*
X82500787Y-71534778D01*
X82500775Y-71534782D01*
X82318387Y-71627714D01*
X82152787Y-71748028D01*
X82152779Y-71748035D01*
X82003894Y-71896921D01*
X82002279Y-71895306D01*
X81947375Y-71932984D01*
X81870480Y-71938981D01*
X81800889Y-71905727D01*
X81757248Y-71842133D01*
X81755652Y-71836704D01*
X81754091Y-71832519D01*
X81754091Y-71832517D01*
X81722579Y-71748028D01*
X81703797Y-71697670D01*
X81703795Y-71697666D01*
X81617547Y-71582455D01*
X81617544Y-71582452D01*
X81502333Y-71496204D01*
X81502329Y-71496202D01*
X81367482Y-71445908D01*
X81307876Y-71439500D01*
X79612136Y-71439500D01*
X79612111Y-71439502D01*
X79552521Y-71445908D01*
X79552515Y-71445909D01*
X79417670Y-71496202D01*
X79417666Y-71496204D01*
X79302455Y-71582452D01*
X79302452Y-71582455D01*
X79216204Y-71697666D01*
X79216202Y-71697670D01*
X79165908Y-71832517D01*
X79159500Y-71892114D01*
X79159500Y-73587863D01*
X79159502Y-73587888D01*
X79165908Y-73647478D01*
X79165909Y-73647484D01*
X79216202Y-73782329D01*
X79216204Y-73782333D01*
X79302452Y-73897544D01*
X79302455Y-73897547D01*
X79417666Y-73983795D01*
X79417670Y-73983797D01*
X79552517Y-74034091D01*
X79612114Y-74040499D01*
X79612118Y-74040499D01*
X79612127Y-74040500D01*
X81307872Y-74040499D01*
X81367483Y-74034091D01*
X81463447Y-73998298D01*
X81502329Y-73983797D01*
X81502333Y-73983795D01*
X81569526Y-73933494D01*
X81617546Y-73897546D01*
X81660671Y-73839938D01*
X81703795Y-73782333D01*
X81703797Y-73782329D01*
X81757348Y-73638751D01*
X81760001Y-73639740D01*
X81789273Y-73585344D01*
X81854885Y-73544799D01*
X81931978Y-73542492D01*
X81999897Y-73579040D01*
X82003817Y-73583155D01*
X82003894Y-73583079D01*
X82152779Y-73731964D01*
X82152787Y-73731971D01*
X82268779Y-73816243D01*
X82318390Y-73852287D01*
X82500781Y-73945220D01*
X82695466Y-74008477D01*
X82897648Y-74040500D01*
X82897653Y-74040500D01*
X83102347Y-74040500D01*
X83102352Y-74040500D01*
X83304534Y-74008477D01*
X83499219Y-73945220D01*
X83681610Y-73852287D01*
X83847219Y-73731966D01*
X83991966Y-73587219D01*
X84112287Y-73421610D01*
X84137240Y-73372636D01*
X84188848Y-73315319D01*
X84262202Y-73291485D01*
X84337644Y-73307521D01*
X84394962Y-73359129D01*
X84402760Y-73372637D01*
X84427712Y-73421609D01*
X84548028Y-73587212D01*
X84548035Y-73587220D01*
X84692779Y-73731964D01*
X84692787Y-73731971D01*
X84808779Y-73816243D01*
X84858390Y-73852287D01*
X85040781Y-73945220D01*
X85235466Y-74008477D01*
X85437648Y-74040500D01*
X85437653Y-74040500D01*
X85642347Y-74040500D01*
X85642352Y-74040500D01*
X85844534Y-74008477D01*
X86039219Y-73945220D01*
X86221610Y-73852287D01*
X86387219Y-73731966D01*
X86531966Y-73587219D01*
X86652287Y-73421610D01*
X86677520Y-73372086D01*
X86729128Y-73314770D01*
X86802481Y-73290935D01*
X86877924Y-73306971D01*
X86935241Y-73358579D01*
X86943040Y-73372086D01*
X86968143Y-73421354D01*
X87088412Y-73586889D01*
X87233110Y-73731587D01*
X87398645Y-73851856D01*
X87580967Y-73944753D01*
X87580979Y-73944759D01*
X87775577Y-74007988D01*
X87830000Y-74016607D01*
X87830000Y-73173012D01*
X87887007Y-73205925D01*
X88014174Y-73240000D01*
X88145826Y-73240000D01*
X88272993Y-73205925D01*
X88330000Y-73173012D01*
X88330000Y-74016606D01*
X88384422Y-74007988D01*
X88579020Y-73944759D01*
X88579032Y-73944753D01*
X88761354Y-73851856D01*
X88926889Y-73731587D01*
X89071587Y-73586889D01*
X89191856Y-73421354D01*
X89216958Y-73372088D01*
X89268566Y-73314770D01*
X89341919Y-73290935D01*
X89417362Y-73306970D01*
X89474680Y-73358578D01*
X89482478Y-73372085D01*
X89507712Y-73421609D01*
X89628028Y-73587212D01*
X89628035Y-73587220D01*
X89772779Y-73731964D01*
X89772787Y-73731971D01*
X89888779Y-73816243D01*
X89938390Y-73852287D01*
X90120781Y-73945220D01*
X90315466Y-74008477D01*
X90517648Y-74040500D01*
X90517653Y-74040500D01*
X90722347Y-74040500D01*
X90722352Y-74040500D01*
X90924534Y-74008477D01*
X91119219Y-73945220D01*
X91301610Y-73852287D01*
X91467219Y-73731966D01*
X91611966Y-73587219D01*
X91732287Y-73421610D01*
X91757240Y-73372636D01*
X91808848Y-73315319D01*
X91882202Y-73291485D01*
X91957644Y-73307521D01*
X92014962Y-73359129D01*
X92022760Y-73372637D01*
X92047712Y-73421609D01*
X92168028Y-73587212D01*
X92168035Y-73587220D01*
X92312779Y-73731964D01*
X92312787Y-73731971D01*
X92428779Y-73816243D01*
X92478390Y-73852287D01*
X92660781Y-73945220D01*
X92855466Y-74008477D01*
X93057648Y-74040500D01*
X93057653Y-74040500D01*
X93262347Y-74040500D01*
X93262352Y-74040500D01*
X93464534Y-74008477D01*
X93659219Y-73945220D01*
X93841610Y-73852287D01*
X94007219Y-73731966D01*
X94151966Y-73587219D01*
X94272287Y-73421610D01*
X94297240Y-73372636D01*
X94348848Y-73315319D01*
X94422202Y-73291485D01*
X94497644Y-73307521D01*
X94554962Y-73359129D01*
X94562760Y-73372637D01*
X94587712Y-73421609D01*
X94708028Y-73587212D01*
X94708035Y-73587220D01*
X94852779Y-73731964D01*
X94852787Y-73731971D01*
X94968779Y-73816243D01*
X95018390Y-73852287D01*
X95200781Y-73945220D01*
X95395466Y-74008477D01*
X95597648Y-74040500D01*
X95597653Y-74040500D01*
X95802347Y-74040500D01*
X95802352Y-74040500D01*
X96004534Y-74008477D01*
X96199219Y-73945220D01*
X96381610Y-73852287D01*
X96547219Y-73731966D01*
X96691966Y-73587219D01*
X96812287Y-73421610D01*
X96837240Y-73372636D01*
X96888848Y-73315319D01*
X96962202Y-73291485D01*
X97037644Y-73307521D01*
X97094962Y-73359129D01*
X97102760Y-73372637D01*
X97127712Y-73421609D01*
X97248028Y-73587212D01*
X97248035Y-73587220D01*
X97392779Y-73731964D01*
X97392787Y-73731971D01*
X97508779Y-73816243D01*
X97558390Y-73852287D01*
X97740781Y-73945220D01*
X97935466Y-74008477D01*
X98137648Y-74040500D01*
X98137653Y-74040500D01*
X98342347Y-74040500D01*
X98342352Y-74040500D01*
X98544534Y-74008477D01*
X98739219Y-73945220D01*
X98921610Y-73852287D01*
X99087219Y-73731966D01*
X99231966Y-73587219D01*
X99352287Y-73421610D01*
X99377240Y-73372636D01*
X99428848Y-73315319D01*
X99502202Y-73291485D01*
X99577644Y-73307521D01*
X99634962Y-73359129D01*
X99642760Y-73372637D01*
X99667712Y-73421609D01*
X99788028Y-73587212D01*
X99788035Y-73587220D01*
X99932779Y-73731964D01*
X99932787Y-73731971D01*
X100048779Y-73816243D01*
X100098390Y-73852287D01*
X100280781Y-73945220D01*
X100475466Y-74008477D01*
X100677648Y-74040500D01*
X100677653Y-74040500D01*
X100882347Y-74040500D01*
X100882352Y-74040500D01*
X101084534Y-74008477D01*
X101279219Y-73945220D01*
X101461610Y-73852287D01*
X101627219Y-73731966D01*
X101771966Y-73587219D01*
X101892287Y-73421610D01*
X101917240Y-73372636D01*
X101968848Y-73315319D01*
X102042202Y-73291485D01*
X102117644Y-73307521D01*
X102174962Y-73359129D01*
X102182760Y-73372637D01*
X102207712Y-73421609D01*
X102328028Y-73587212D01*
X102328035Y-73587220D01*
X102472779Y-73731964D01*
X102472787Y-73731971D01*
X102588779Y-73816243D01*
X102638390Y-73852287D01*
X102820781Y-73945220D01*
X103015466Y-74008477D01*
X103217648Y-74040500D01*
X103217653Y-74040500D01*
X103422347Y-74040500D01*
X103422352Y-74040500D01*
X103624534Y-74008477D01*
X103819219Y-73945220D01*
X104001610Y-73852287D01*
X104167219Y-73731966D01*
X104311966Y-73587219D01*
X104432287Y-73421610D01*
X104457240Y-73372636D01*
X104508848Y-73315319D01*
X104582202Y-73291485D01*
X104657644Y-73307521D01*
X104714962Y-73359129D01*
X104722760Y-73372637D01*
X104747712Y-73421609D01*
X104868028Y-73587212D01*
X104868035Y-73587220D01*
X105012779Y-73731964D01*
X105012787Y-73731971D01*
X105128779Y-73816243D01*
X105178390Y-73852287D01*
X105360781Y-73945220D01*
X105555466Y-74008477D01*
X105757648Y-74040500D01*
X105757653Y-74040500D01*
X105962347Y-74040500D01*
X105962352Y-74040500D01*
X106164534Y-74008477D01*
X106359219Y-73945220D01*
X106541610Y-73852287D01*
X106707219Y-73731966D01*
X106851966Y-73587219D01*
X106972287Y-73421610D01*
X106997240Y-73372636D01*
X107048848Y-73315319D01*
X107122202Y-73291485D01*
X107197644Y-73307521D01*
X107254962Y-73359129D01*
X107262760Y-73372637D01*
X107287712Y-73421609D01*
X107408028Y-73587212D01*
X107408035Y-73587220D01*
X107552779Y-73731964D01*
X107552787Y-73731971D01*
X107668779Y-73816243D01*
X107718390Y-73852287D01*
X107900781Y-73945220D01*
X108095466Y-74008477D01*
X108297648Y-74040500D01*
X108297653Y-74040500D01*
X108502347Y-74040500D01*
X108502352Y-74040500D01*
X108704534Y-74008477D01*
X108899219Y-73945220D01*
X109081610Y-73852287D01*
X109247219Y-73731966D01*
X109391966Y-73587219D01*
X109512287Y-73421610D01*
X109537240Y-73372636D01*
X109588848Y-73315319D01*
X109662202Y-73291485D01*
X109737644Y-73307521D01*
X109794962Y-73359129D01*
X109802760Y-73372637D01*
X109827712Y-73421609D01*
X109948028Y-73587212D01*
X109948035Y-73587220D01*
X110092779Y-73731964D01*
X110092787Y-73731971D01*
X110208779Y-73816243D01*
X110258390Y-73852287D01*
X110440781Y-73945220D01*
X110635466Y-74008477D01*
X110837648Y-74040500D01*
X110837653Y-74040500D01*
X111042347Y-74040500D01*
X111042352Y-74040500D01*
X111244534Y-74008477D01*
X111439219Y-73945220D01*
X111621610Y-73852287D01*
X111787219Y-73731966D01*
X111931966Y-73587219D01*
X112052287Y-73421610D01*
X112077240Y-73372636D01*
X112128848Y-73315319D01*
X112202202Y-73291485D01*
X112277644Y-73307521D01*
X112334962Y-73359129D01*
X112342760Y-73372637D01*
X112367712Y-73421609D01*
X112488028Y-73587212D01*
X112488035Y-73587220D01*
X112632779Y-73731964D01*
X112632787Y-73731971D01*
X112748779Y-73816243D01*
X112798390Y-73852287D01*
X112980781Y-73945220D01*
X113175466Y-74008477D01*
X113377648Y-74040500D01*
X113377653Y-74040500D01*
X113582347Y-74040500D01*
X113582352Y-74040500D01*
X113784534Y-74008477D01*
X113979219Y-73945220D01*
X114161610Y-73852287D01*
X114327219Y-73731966D01*
X114471966Y-73587219D01*
X114592287Y-73421610D01*
X114617240Y-73372636D01*
X114668848Y-73315319D01*
X114742202Y-73291485D01*
X114817644Y-73307521D01*
X114874962Y-73359129D01*
X114882760Y-73372637D01*
X114907712Y-73421609D01*
X115028028Y-73587212D01*
X115028035Y-73587220D01*
X115172779Y-73731964D01*
X115172787Y-73731971D01*
X115288779Y-73816243D01*
X115338390Y-73852287D01*
X115520781Y-73945220D01*
X115715466Y-74008477D01*
X115917648Y-74040500D01*
X115917653Y-74040500D01*
X116122347Y-74040500D01*
X116122352Y-74040500D01*
X116324534Y-74008477D01*
X116519219Y-73945220D01*
X116701610Y-73852287D01*
X116867219Y-73731966D01*
X117011966Y-73587219D01*
X117132287Y-73421610D01*
X117225220Y-73239219D01*
X117288477Y-73044534D01*
X117320500Y-72842352D01*
X117320500Y-72637648D01*
X117288477Y-72435466D01*
X117225220Y-72240781D01*
X117132287Y-72058390D01*
X117083041Y-71990608D01*
X117011971Y-71892787D01*
X117011964Y-71892779D01*
X116867220Y-71748035D01*
X116867212Y-71748028D01*
X116701612Y-71627714D01*
X116519224Y-71534782D01*
X116519220Y-71534780D01*
X116519219Y-71534780D01*
X116324534Y-71471523D01*
X116122352Y-71439500D01*
X115917648Y-71439500D01*
X115766809Y-71463391D01*
X115715465Y-71471523D01*
X115520787Y-71534778D01*
X115520775Y-71534782D01*
X115338387Y-71627714D01*
X115172787Y-71748028D01*
X115172779Y-71748035D01*
X115028035Y-71892779D01*
X115028028Y-71892787D01*
X114907714Y-72058388D01*
X114882760Y-72107363D01*
X114831151Y-72164680D01*
X114757797Y-72188514D01*
X114682355Y-72172478D01*
X114625038Y-72120869D01*
X114617240Y-72107363D01*
X114592287Y-72058390D01*
X114499198Y-71930263D01*
X114471971Y-71892787D01*
X114471964Y-71892779D01*
X114327220Y-71748035D01*
X114327212Y-71748028D01*
X114161612Y-71627714D01*
X113979224Y-71534782D01*
X113979220Y-71534780D01*
X113979219Y-71534780D01*
X113784534Y-71471523D01*
X113582352Y-71439500D01*
X113377648Y-71439500D01*
X113226809Y-71463391D01*
X113175465Y-71471523D01*
X112980787Y-71534778D01*
X112980775Y-71534782D01*
X112798387Y-71627714D01*
X112632787Y-71748028D01*
X112632779Y-71748035D01*
X112488035Y-71892779D01*
X112488028Y-71892787D01*
X112367714Y-72058388D01*
X112342760Y-72107363D01*
X112291151Y-72164680D01*
X112217797Y-72188514D01*
X112142355Y-72172478D01*
X112085038Y-72120869D01*
X112077240Y-72107363D01*
X112052287Y-72058390D01*
X111959198Y-71930263D01*
X111931971Y-71892787D01*
X111931964Y-71892779D01*
X111787220Y-71748035D01*
X111787212Y-71748028D01*
X111621612Y-71627714D01*
X111439224Y-71534782D01*
X111439220Y-71534780D01*
X111439219Y-71534780D01*
X111244534Y-71471523D01*
X111042352Y-71439500D01*
X110837648Y-71439500D01*
X110686809Y-71463391D01*
X110635465Y-71471523D01*
X110440787Y-71534778D01*
X110440775Y-71534782D01*
X110258387Y-71627714D01*
X110092787Y-71748028D01*
X110092779Y-71748035D01*
X109948035Y-71892779D01*
X109948028Y-71892787D01*
X109827714Y-72058388D01*
X109802760Y-72107363D01*
X109751151Y-72164680D01*
X109677797Y-72188514D01*
X109602355Y-72172478D01*
X109545038Y-72120869D01*
X109537240Y-72107363D01*
X109512287Y-72058390D01*
X109419198Y-71930263D01*
X109391971Y-71892787D01*
X109391964Y-71892779D01*
X109247220Y-71748035D01*
X109247212Y-71748028D01*
X109081612Y-71627714D01*
X108899224Y-71534782D01*
X108899220Y-71534780D01*
X108899219Y-71534780D01*
X108704534Y-71471523D01*
X108502352Y-71439500D01*
X108297648Y-71439500D01*
X108146809Y-71463391D01*
X108095465Y-71471523D01*
X107900787Y-71534778D01*
X107900775Y-71534782D01*
X107718387Y-71627714D01*
X107552787Y-71748028D01*
X107552779Y-71748035D01*
X107408035Y-71892779D01*
X107408028Y-71892787D01*
X107287714Y-72058388D01*
X107262760Y-72107363D01*
X107211151Y-72164680D01*
X107137797Y-72188514D01*
X107062355Y-72172478D01*
X107005038Y-72120869D01*
X106997240Y-72107363D01*
X106972287Y-72058390D01*
X106879198Y-71930263D01*
X106851971Y-71892787D01*
X106851964Y-71892779D01*
X106707220Y-71748035D01*
X106707212Y-71748028D01*
X106541612Y-71627714D01*
X106359224Y-71534782D01*
X106359220Y-71534780D01*
X106359219Y-71534780D01*
X106164534Y-71471523D01*
X105962352Y-71439500D01*
X105757648Y-71439500D01*
X105606809Y-71463391D01*
X105555465Y-71471523D01*
X105360787Y-71534778D01*
X105360775Y-71534782D01*
X105178387Y-71627714D01*
X105012787Y-71748028D01*
X105012779Y-71748035D01*
X104868035Y-71892779D01*
X104868028Y-71892787D01*
X104747714Y-72058388D01*
X104722760Y-72107363D01*
X104671151Y-72164680D01*
X104597797Y-72188514D01*
X104522355Y-72172478D01*
X104465038Y-72120869D01*
X104457240Y-72107363D01*
X104432287Y-72058390D01*
X104339198Y-71930263D01*
X104311971Y-71892787D01*
X104311964Y-71892779D01*
X104167220Y-71748035D01*
X104167212Y-71748028D01*
X104001612Y-71627714D01*
X103819224Y-71534782D01*
X103819220Y-71534780D01*
X103819219Y-71534780D01*
X103624534Y-71471523D01*
X103422352Y-71439500D01*
X103217648Y-71439500D01*
X103066809Y-71463391D01*
X103015465Y-71471523D01*
X102820787Y-71534778D01*
X102820775Y-71534782D01*
X102638387Y-71627714D01*
X102472787Y-71748028D01*
X102472779Y-71748035D01*
X102328035Y-71892779D01*
X102328028Y-71892787D01*
X102207714Y-72058388D01*
X102182760Y-72107363D01*
X102131151Y-72164680D01*
X102057797Y-72188514D01*
X101982355Y-72172478D01*
X101925038Y-72120869D01*
X101917240Y-72107363D01*
X101892287Y-72058390D01*
X101799198Y-71930263D01*
X101771971Y-71892787D01*
X101771964Y-71892779D01*
X101627220Y-71748035D01*
X101627212Y-71748028D01*
X101461612Y-71627714D01*
X101279224Y-71534782D01*
X101279220Y-71534780D01*
X101279219Y-71534780D01*
X101084534Y-71471523D01*
X100882352Y-71439500D01*
X100677648Y-71439500D01*
X100526809Y-71463391D01*
X100475465Y-71471523D01*
X100280787Y-71534778D01*
X100280775Y-71534782D01*
X100098387Y-71627714D01*
X99932787Y-71748028D01*
X99932779Y-71748035D01*
X99788035Y-71892779D01*
X99788028Y-71892787D01*
X99667714Y-72058388D01*
X99642760Y-72107363D01*
X99591151Y-72164680D01*
X99517797Y-72188514D01*
X99442355Y-72172478D01*
X99385038Y-72120869D01*
X99377240Y-72107363D01*
X99352287Y-72058390D01*
X99259198Y-71930263D01*
X99231971Y-71892787D01*
X99231964Y-71892779D01*
X99087220Y-71748035D01*
X99087212Y-71748028D01*
X98921612Y-71627714D01*
X98739224Y-71534782D01*
X98739220Y-71534780D01*
X98739219Y-71534780D01*
X98544534Y-71471523D01*
X98342352Y-71439500D01*
X98137648Y-71439500D01*
X97986809Y-71463391D01*
X97935465Y-71471523D01*
X97740787Y-71534778D01*
X97740775Y-71534782D01*
X97558387Y-71627714D01*
X97392787Y-71748028D01*
X97392779Y-71748035D01*
X97248035Y-71892779D01*
X97248028Y-71892787D01*
X97127714Y-72058388D01*
X97102760Y-72107363D01*
X97051151Y-72164680D01*
X96977797Y-72188514D01*
X96902355Y-72172478D01*
X96845038Y-72120869D01*
X96837240Y-72107363D01*
X96812287Y-72058390D01*
X96719198Y-71930263D01*
X96691971Y-71892787D01*
X96691964Y-71892779D01*
X96547220Y-71748035D01*
X96547212Y-71748028D01*
X96381612Y-71627714D01*
X96199224Y-71534782D01*
X96199220Y-71534780D01*
X96199219Y-71534780D01*
X96004534Y-71471523D01*
X95802352Y-71439500D01*
X95597648Y-71439500D01*
X95466123Y-71460331D01*
X95395457Y-71471524D01*
X95389774Y-71472889D01*
X95389749Y-71472785D01*
X95388247Y-71473653D01*
X95353440Y-71473653D01*
X95318687Y-71475470D01*
X95315122Y-71473653D01*
X95311119Y-71473653D01*
X95280973Y-71456248D01*
X95249970Y-71440447D01*
X95244324Y-71435089D01*
X95088015Y-71278780D01*
X95088013Y-71278777D01*
X94967716Y-71158480D01*
X94867291Y-71100500D01*
X94830785Y-71079423D01*
X94830782Y-71079422D01*
X94678057Y-71038499D01*
X94519943Y-71038499D01*
X94510814Y-71038499D01*
X94510798Y-71038500D01*
X93352404Y-71038500D01*
X93277904Y-71018538D01*
X93247045Y-70994859D01*
X89173343Y-66921157D01*
X98099500Y-66921157D01*
X98099500Y-67078842D01*
X98130262Y-67233494D01*
X98130263Y-67233498D01*
X98190604Y-67379176D01*
X98190605Y-67379178D01*
X98190606Y-67379179D01*
X98278211Y-67510289D01*
X98389711Y-67621789D01*
X98520821Y-67709394D01*
X98520822Y-67709394D01*
X98520823Y-67709395D01*
X98593662Y-67739565D01*
X98666503Y-67769737D01*
X98821158Y-67800500D01*
X98978842Y-67800500D01*
X99133497Y-67769737D01*
X99279179Y-67709394D01*
X99404567Y-67625611D01*
X99477602Y-67600819D01*
X99487348Y-67600500D01*
X101562652Y-67600500D01*
X101637152Y-67620462D01*
X101645433Y-67625612D01*
X101770816Y-67709391D01*
X101770818Y-67709392D01*
X101770821Y-67709394D01*
X101916503Y-67769737D01*
X102071158Y-67800500D01*
X102228842Y-67800500D01*
X102383497Y-67769737D01*
X102529179Y-67709394D01*
X102660289Y-67621789D01*
X102771789Y-67510289D01*
X102859394Y-67379179D01*
X102919737Y-67233497D01*
X102950500Y-67078842D01*
X102950500Y-66921158D01*
X102919737Y-66766503D01*
X102859394Y-66620821D01*
X102771789Y-66489711D01*
X102660289Y-66378211D01*
X102529179Y-66290606D01*
X102529178Y-66290605D01*
X102529176Y-66290604D01*
X102383498Y-66230263D01*
X102383494Y-66230262D01*
X102228842Y-66199500D01*
X102071158Y-66199500D01*
X101916505Y-66230262D01*
X101916501Y-66230263D01*
X101770822Y-66290605D01*
X101770816Y-66290608D01*
X101645433Y-66374388D01*
X101572398Y-66399181D01*
X101562652Y-66399500D01*
X99487348Y-66399500D01*
X99412848Y-66379538D01*
X99404567Y-66374388D01*
X99279183Y-66290608D01*
X99279177Y-66290605D01*
X99133498Y-66230263D01*
X99133494Y-66230262D01*
X98978842Y-66199500D01*
X98821158Y-66199500D01*
X98666505Y-66230262D01*
X98666501Y-66230263D01*
X98520823Y-66290604D01*
X98433012Y-66349278D01*
X98393986Y-66375355D01*
X98389707Y-66378214D01*
X98278214Y-66489707D01*
X98190604Y-66620823D01*
X98130263Y-66766501D01*
X98130262Y-66766505D01*
X98099500Y-66921157D01*
X89173343Y-66921157D01*
X86574343Y-64322157D01*
X98099500Y-64322157D01*
X98099500Y-64479842D01*
X98130262Y-64634494D01*
X98130263Y-64634498D01*
X98190604Y-64780176D01*
X98190605Y-64780178D01*
X98190606Y-64780179D01*
X98278211Y-64911289D01*
X98389711Y-65022789D01*
X98520821Y-65110394D01*
X98666503Y-65170737D01*
X98821158Y-65201500D01*
X98978842Y-65201500D01*
X99133497Y-65170737D01*
X99279179Y-65110394D01*
X99404567Y-65026611D01*
X99477602Y-65001819D01*
X99487348Y-65001500D01*
X101662652Y-65001500D01*
X101737152Y-65021462D01*
X101745433Y-65026612D01*
X101870816Y-65110391D01*
X101870818Y-65110392D01*
X101870821Y-65110394D01*
X102016503Y-65170737D01*
X102171158Y-65201500D01*
X102328842Y-65201500D01*
X102483497Y-65170737D01*
X102629179Y-65110394D01*
X102760289Y-65022789D01*
X102871789Y-64911289D01*
X102959394Y-64780179D01*
X103019737Y-64634497D01*
X103050500Y-64479842D01*
X103050500Y-64322158D01*
X103019737Y-64167503D01*
X102970162Y-64047817D01*
X102959395Y-64021823D01*
X102959394Y-64021821D01*
X102871789Y-63890711D01*
X102760289Y-63779211D01*
X102629179Y-63691606D01*
X102629178Y-63691605D01*
X102629176Y-63691604D01*
X102483498Y-63631263D01*
X102483494Y-63631262D01*
X102328842Y-63600500D01*
X102171158Y-63600500D01*
X102016505Y-63631262D01*
X102016501Y-63631263D01*
X101870822Y-63691605D01*
X101870816Y-63691608D01*
X101774318Y-63756087D01*
X101752313Y-63770791D01*
X101745433Y-63775388D01*
X101672398Y-63800181D01*
X101662652Y-63800500D01*
X99487348Y-63800500D01*
X99412848Y-63780538D01*
X99404567Y-63775388D01*
X99397687Y-63770791D01*
X99363938Y-63748240D01*
X99279183Y-63691608D01*
X99279177Y-63691605D01*
X99133498Y-63631263D01*
X99133494Y-63631262D01*
X98978842Y-63600500D01*
X98821158Y-63600500D01*
X98666505Y-63631262D01*
X98666501Y-63631263D01*
X98520823Y-63691604D01*
X98433012Y-63750278D01*
X98402313Y-63770791D01*
X98389707Y-63779214D01*
X98278214Y-63890707D01*
X98190604Y-64021823D01*
X98130263Y-64167501D01*
X98130262Y-64167505D01*
X98099500Y-64322157D01*
X86574343Y-64322157D01*
X81103031Y-58850845D01*
X81064467Y-58784050D01*
X81064467Y-58706922D01*
X81103031Y-58640127D01*
X81136781Y-58615610D01*
X81136619Y-58615346D01*
X81139984Y-58613283D01*
X81140760Y-58612719D01*
X81141610Y-58612287D01*
X81307219Y-58491966D01*
X81451966Y-58347219D01*
X81572287Y-58181610D01*
X81597520Y-58132086D01*
X81649128Y-58074770D01*
X81722481Y-58050935D01*
X81797924Y-58066971D01*
X81855241Y-58118579D01*
X81863040Y-58132086D01*
X81888143Y-58181354D01*
X82008412Y-58346889D01*
X82153110Y-58491587D01*
X82318645Y-58611856D01*
X82500967Y-58704753D01*
X82500979Y-58704759D01*
X82695577Y-58767988D01*
X82750000Y-58776607D01*
X82750000Y-57933012D01*
X82807007Y-57965925D01*
X82934174Y-58000000D01*
X83065826Y-58000000D01*
X83192993Y-57965925D01*
X83250000Y-57933012D01*
X83250000Y-58776606D01*
X83304422Y-58767988D01*
X83499020Y-58704759D01*
X83499032Y-58704753D01*
X83681354Y-58611856D01*
X83846889Y-58491587D01*
X83991587Y-58346889D01*
X84111856Y-58181354D01*
X84136958Y-58132088D01*
X84188566Y-58074770D01*
X84261919Y-58050935D01*
X84337362Y-58066970D01*
X84394680Y-58118578D01*
X84402478Y-58132085D01*
X84427712Y-58181609D01*
X84548028Y-58347212D01*
X84548035Y-58347220D01*
X84692779Y-58491964D01*
X84692787Y-58491971D01*
X84808779Y-58576243D01*
X84858390Y-58612287D01*
X85040781Y-58705220D01*
X85235466Y-58768477D01*
X85437648Y-58800500D01*
X85437653Y-58800500D01*
X85642347Y-58800500D01*
X85642352Y-58800500D01*
X85844534Y-58768477D01*
X86039219Y-58705220D01*
X86221610Y-58612287D01*
X86387219Y-58491966D01*
X86531966Y-58347219D01*
X86652287Y-58181610D01*
X86677240Y-58132636D01*
X86728848Y-58075319D01*
X86802202Y-58051485D01*
X86877644Y-58067521D01*
X86934962Y-58119129D01*
X86942760Y-58132637D01*
X86967712Y-58181609D01*
X87088028Y-58347212D01*
X87088033Y-58347218D01*
X87088034Y-58347219D01*
X87232781Y-58491966D01*
X87268079Y-58517611D01*
X87316617Y-58577547D01*
X87329500Y-58638154D01*
X87329500Y-59347414D01*
X87309538Y-59421914D01*
X87285859Y-59452773D01*
X87025720Y-59712911D01*
X86977384Y-59745209D01*
X86958325Y-59753103D01*
X86958321Y-59753106D01*
X86827207Y-59840714D01*
X86715714Y-59952207D01*
X86628104Y-60083323D01*
X86567763Y-60229001D01*
X86567762Y-60229005D01*
X86537000Y-60383657D01*
X86537000Y-60541342D01*
X86567762Y-60695994D01*
X86567763Y-60695998D01*
X86628104Y-60841676D01*
X86628105Y-60841677D01*
X86628106Y-60841679D01*
X86715711Y-60972789D01*
X86827211Y-61084289D01*
X86958321Y-61171894D01*
X87104003Y-61232237D01*
X87258658Y-61263000D01*
X87416342Y-61263000D01*
X87570997Y-61232237D01*
X87716679Y-61171894D01*
X87847789Y-61084289D01*
X87959289Y-60972789D01*
X88046894Y-60841679D01*
X88054787Y-60822621D01*
X88087084Y-60774281D01*
X88662952Y-60198415D01*
X88690205Y-60157627D01*
X88745084Y-60075495D01*
X88782948Y-59984084D01*
X88801659Y-59938912D01*
X88805380Y-59920208D01*
X88810149Y-59896226D01*
X88826903Y-59812000D01*
X88830500Y-59793918D01*
X88830500Y-58638154D01*
X88850462Y-58563654D01*
X88891919Y-58517612D01*
X88927219Y-58491966D01*
X89071966Y-58347219D01*
X89192287Y-58181610D01*
X89217240Y-58132636D01*
X89268848Y-58075319D01*
X89342202Y-58051485D01*
X89417644Y-58067521D01*
X89474962Y-58119129D01*
X89482760Y-58132637D01*
X89507712Y-58181609D01*
X89628028Y-58347212D01*
X89628035Y-58347220D01*
X89772779Y-58491964D01*
X89772787Y-58491971D01*
X89888779Y-58576243D01*
X89938390Y-58612287D01*
X90120781Y-58705220D01*
X90315466Y-58768477D01*
X90517648Y-58800500D01*
X90517653Y-58800500D01*
X90722347Y-58800500D01*
X90722352Y-58800500D01*
X90924534Y-58768477D01*
X91119219Y-58705220D01*
X91301610Y-58612287D01*
X91467219Y-58491966D01*
X91611966Y-58347219D01*
X91732287Y-58181610D01*
X91757240Y-58132636D01*
X91808848Y-58075319D01*
X91882202Y-58051485D01*
X91957644Y-58067521D01*
X92014962Y-58119129D01*
X92022760Y-58132637D01*
X92047712Y-58181609D01*
X92168028Y-58347212D01*
X92168035Y-58347220D01*
X92312779Y-58491964D01*
X92312787Y-58491971D01*
X92428779Y-58576243D01*
X92478390Y-58612287D01*
X92660781Y-58705220D01*
X92855466Y-58768477D01*
X93057648Y-58800500D01*
X93057653Y-58800500D01*
X93262347Y-58800500D01*
X93262352Y-58800500D01*
X93464534Y-58768477D01*
X93659219Y-58705220D01*
X93841610Y-58612287D01*
X94007219Y-58491966D01*
X94151966Y-58347219D01*
X94272287Y-58181610D01*
X94297240Y-58132636D01*
X94348848Y-58075319D01*
X94422202Y-58051485D01*
X94497644Y-58067521D01*
X94554962Y-58119129D01*
X94562760Y-58132637D01*
X94587712Y-58181609D01*
X94708028Y-58347212D01*
X94708035Y-58347220D01*
X94852779Y-58491964D01*
X94852787Y-58491971D01*
X94968779Y-58576243D01*
X95018390Y-58612287D01*
X95200781Y-58705220D01*
X95395466Y-58768477D01*
X95597648Y-58800500D01*
X95597653Y-58800500D01*
X95802347Y-58800500D01*
X95802352Y-58800500D01*
X96004534Y-58768477D01*
X96199219Y-58705220D01*
X96381610Y-58612287D01*
X96547219Y-58491966D01*
X96691966Y-58347219D01*
X96812287Y-58181610D01*
X96837240Y-58132636D01*
X96888848Y-58075319D01*
X96962202Y-58051485D01*
X97037644Y-58067521D01*
X97094962Y-58119129D01*
X97102760Y-58132637D01*
X97127712Y-58181609D01*
X97248028Y-58347212D01*
X97248035Y-58347220D01*
X97392779Y-58491964D01*
X97392787Y-58491971D01*
X97508779Y-58576243D01*
X97558390Y-58612287D01*
X97740781Y-58705220D01*
X97935466Y-58768477D01*
X98137648Y-58800500D01*
X98137653Y-58800500D01*
X98342347Y-58800500D01*
X98342352Y-58800500D01*
X98544534Y-58768477D01*
X98739219Y-58705220D01*
X98921610Y-58612287D01*
X99087219Y-58491966D01*
X99231966Y-58347219D01*
X99352287Y-58181610D01*
X99377240Y-58132636D01*
X99428848Y-58075319D01*
X99502202Y-58051485D01*
X99577644Y-58067521D01*
X99634962Y-58119129D01*
X99642760Y-58132637D01*
X99667712Y-58181609D01*
X99788028Y-58347212D01*
X99788035Y-58347220D01*
X99932779Y-58491964D01*
X99932787Y-58491971D01*
X100048779Y-58576243D01*
X100098390Y-58612287D01*
X100280781Y-58705220D01*
X100475466Y-58768477D01*
X100677648Y-58800500D01*
X100677653Y-58800500D01*
X100882347Y-58800500D01*
X100882352Y-58800500D01*
X101084534Y-58768477D01*
X101279219Y-58705220D01*
X101461610Y-58612287D01*
X101627219Y-58491966D01*
X101771966Y-58347219D01*
X101892287Y-58181610D01*
X101917240Y-58132636D01*
X101968848Y-58075319D01*
X102042202Y-58051485D01*
X102117644Y-58067521D01*
X102174962Y-58119129D01*
X102182760Y-58132637D01*
X102207712Y-58181609D01*
X102328028Y-58347212D01*
X102328035Y-58347220D01*
X102472779Y-58491964D01*
X102472787Y-58491971D01*
X102588779Y-58576243D01*
X102638390Y-58612287D01*
X102820781Y-58705220D01*
X103015466Y-58768477D01*
X103217648Y-58800500D01*
X103217653Y-58800500D01*
X103422347Y-58800500D01*
X103422352Y-58800500D01*
X103624534Y-58768477D01*
X103819219Y-58705220D01*
X104001610Y-58612287D01*
X104167219Y-58491966D01*
X104311966Y-58347219D01*
X104432287Y-58181610D01*
X104457240Y-58132636D01*
X104508848Y-58075319D01*
X104582202Y-58051485D01*
X104657644Y-58067521D01*
X104714962Y-58119129D01*
X104722760Y-58132637D01*
X104747712Y-58181609D01*
X104868028Y-58347212D01*
X104868035Y-58347220D01*
X105012779Y-58491964D01*
X105012787Y-58491971D01*
X105128779Y-58576243D01*
X105178390Y-58612287D01*
X105360781Y-58705220D01*
X105555466Y-58768477D01*
X105757648Y-58800500D01*
X105757653Y-58800500D01*
X105962347Y-58800500D01*
X105962352Y-58800500D01*
X106164534Y-58768477D01*
X106359219Y-58705220D01*
X106541610Y-58612287D01*
X106707219Y-58491966D01*
X106851966Y-58347219D01*
X106972287Y-58181610D01*
X106997240Y-58132636D01*
X107048848Y-58075319D01*
X107122202Y-58051485D01*
X107197644Y-58067521D01*
X107254962Y-58119129D01*
X107262760Y-58132637D01*
X107287712Y-58181609D01*
X107408028Y-58347212D01*
X107408035Y-58347220D01*
X107552779Y-58491964D01*
X107552787Y-58491971D01*
X107668779Y-58576243D01*
X107718390Y-58612287D01*
X107900781Y-58705220D01*
X108095466Y-58768477D01*
X108297648Y-58800500D01*
X108297653Y-58800500D01*
X108502347Y-58800500D01*
X108502352Y-58800500D01*
X108704534Y-58768477D01*
X108899219Y-58705220D01*
X109081610Y-58612287D01*
X109247219Y-58491966D01*
X109391966Y-58347219D01*
X109512287Y-58181610D01*
X109537240Y-58132636D01*
X109588848Y-58075319D01*
X109662202Y-58051485D01*
X109737644Y-58067521D01*
X109794962Y-58119129D01*
X109802760Y-58132637D01*
X109827712Y-58181609D01*
X109948028Y-58347212D01*
X109948035Y-58347220D01*
X110092779Y-58491964D01*
X110092787Y-58491971D01*
X110208779Y-58576243D01*
X110258390Y-58612287D01*
X110440781Y-58705220D01*
X110635466Y-58768477D01*
X110837648Y-58800500D01*
X110837653Y-58800500D01*
X111042347Y-58800500D01*
X111042352Y-58800500D01*
X111244534Y-58768477D01*
X111439219Y-58705220D01*
X111621610Y-58612287D01*
X111787219Y-58491966D01*
X111931966Y-58347219D01*
X112052287Y-58181610D01*
X112077240Y-58132636D01*
X112128848Y-58075319D01*
X112202202Y-58051485D01*
X112277644Y-58067521D01*
X112334962Y-58119129D01*
X112342760Y-58132637D01*
X112367712Y-58181609D01*
X112488028Y-58347212D01*
X112488035Y-58347220D01*
X112632779Y-58491964D01*
X112632787Y-58491971D01*
X112748779Y-58576243D01*
X112798390Y-58612287D01*
X112980781Y-58705220D01*
X113175466Y-58768477D01*
X113377648Y-58800500D01*
X113377653Y-58800500D01*
X113582347Y-58800500D01*
X113582352Y-58800500D01*
X113784534Y-58768477D01*
X113979219Y-58705220D01*
X114161610Y-58612287D01*
X114327219Y-58491966D01*
X114471966Y-58347219D01*
X114592287Y-58181610D01*
X114617240Y-58132636D01*
X114668848Y-58075319D01*
X114742202Y-58051485D01*
X114817644Y-58067521D01*
X114874962Y-58119129D01*
X114882760Y-58132637D01*
X114907712Y-58181609D01*
X115028028Y-58347212D01*
X115028035Y-58347220D01*
X115172779Y-58491964D01*
X115172787Y-58491971D01*
X115288779Y-58576243D01*
X115338390Y-58612287D01*
X115520781Y-58705220D01*
X115715466Y-58768477D01*
X115917648Y-58800500D01*
X115917653Y-58800500D01*
X116122347Y-58800500D01*
X116122352Y-58800500D01*
X116324534Y-58768477D01*
X116519219Y-58705220D01*
X116701610Y-58612287D01*
X116867219Y-58491966D01*
X117011966Y-58347219D01*
X117132287Y-58181610D01*
X117225220Y-57999219D01*
X117288477Y-57804534D01*
X117320500Y-57602352D01*
X117320500Y-57397648D01*
X117288477Y-57195466D01*
X117225220Y-57000781D01*
X117132287Y-56818390D01*
X117082675Y-56750104D01*
X117011971Y-56652787D01*
X117011964Y-56652779D01*
X116867220Y-56508035D01*
X116867212Y-56508028D01*
X116701612Y-56387714D01*
X116519224Y-56294782D01*
X116519220Y-56294780D01*
X116519219Y-56294780D01*
X116324534Y-56231523D01*
X116122352Y-56199500D01*
X115917648Y-56199500D01*
X115766809Y-56223391D01*
X115715465Y-56231523D01*
X115520787Y-56294778D01*
X115520775Y-56294782D01*
X115338387Y-56387714D01*
X115172787Y-56508028D01*
X115172779Y-56508035D01*
X115028035Y-56652779D01*
X115028028Y-56652787D01*
X114907715Y-56818387D01*
X114907713Y-56818390D01*
X114888057Y-56856968D01*
X114882760Y-56867363D01*
X114831151Y-56924680D01*
X114757797Y-56948514D01*
X114682355Y-56932478D01*
X114625038Y-56880869D01*
X114617240Y-56867363D01*
X114592287Y-56818390D01*
X114536881Y-56742130D01*
X114471971Y-56652787D01*
X114471964Y-56652779D01*
X114327220Y-56508035D01*
X114327212Y-56508028D01*
X114161612Y-56387714D01*
X113979224Y-56294782D01*
X113979220Y-56294780D01*
X113979219Y-56294780D01*
X113784534Y-56231523D01*
X113582352Y-56199500D01*
X113377648Y-56199500D01*
X113226809Y-56223391D01*
X113175465Y-56231523D01*
X112980787Y-56294778D01*
X112980775Y-56294782D01*
X112798387Y-56387714D01*
X112632787Y-56508028D01*
X112632779Y-56508035D01*
X112488035Y-56652779D01*
X112488028Y-56652787D01*
X112367715Y-56818387D01*
X112367713Y-56818390D01*
X112348057Y-56856968D01*
X112342760Y-56867363D01*
X112291151Y-56924680D01*
X112217797Y-56948514D01*
X112142355Y-56932478D01*
X112085038Y-56880869D01*
X112077240Y-56867363D01*
X112052287Y-56818390D01*
X111996881Y-56742130D01*
X111931971Y-56652787D01*
X111931964Y-56652779D01*
X111787220Y-56508035D01*
X111787212Y-56508028D01*
X111621612Y-56387714D01*
X111439224Y-56294782D01*
X111439220Y-56294780D01*
X111439219Y-56294780D01*
X111244534Y-56231523D01*
X111042352Y-56199500D01*
X110837648Y-56199500D01*
X110686809Y-56223391D01*
X110635465Y-56231523D01*
X110440787Y-56294778D01*
X110440775Y-56294782D01*
X110258387Y-56387714D01*
X110092787Y-56508028D01*
X110092779Y-56508035D01*
X109948035Y-56652779D01*
X109948028Y-56652787D01*
X109827715Y-56818387D01*
X109827713Y-56818390D01*
X109808057Y-56856968D01*
X109802760Y-56867363D01*
X109751151Y-56924680D01*
X109677797Y-56948514D01*
X109602355Y-56932478D01*
X109545038Y-56880869D01*
X109537240Y-56867363D01*
X109512287Y-56818390D01*
X109456881Y-56742130D01*
X109391971Y-56652787D01*
X109391964Y-56652779D01*
X109247220Y-56508035D01*
X109247212Y-56508028D01*
X109081612Y-56387714D01*
X108899224Y-56294782D01*
X108899220Y-56294780D01*
X108899219Y-56294780D01*
X108704534Y-56231523D01*
X108502352Y-56199500D01*
X108297648Y-56199500D01*
X108146809Y-56223391D01*
X108095465Y-56231523D01*
X107900787Y-56294778D01*
X107900775Y-56294782D01*
X107718387Y-56387714D01*
X107552787Y-56508028D01*
X107552779Y-56508035D01*
X107408035Y-56652779D01*
X107408028Y-56652787D01*
X107287715Y-56818387D01*
X107287713Y-56818390D01*
X107268057Y-56856968D01*
X107262760Y-56867363D01*
X107211151Y-56924680D01*
X107137797Y-56948514D01*
X107062355Y-56932478D01*
X107005038Y-56880869D01*
X106997240Y-56867363D01*
X106972287Y-56818390D01*
X106916881Y-56742130D01*
X106851971Y-56652787D01*
X106851964Y-56652779D01*
X106707220Y-56508035D01*
X106707212Y-56508028D01*
X106541612Y-56387714D01*
X106359224Y-56294782D01*
X106359220Y-56294780D01*
X106359219Y-56294780D01*
X106164534Y-56231523D01*
X105962352Y-56199500D01*
X105757648Y-56199500D01*
X105606809Y-56223391D01*
X105555465Y-56231523D01*
X105360787Y-56294778D01*
X105360775Y-56294782D01*
X105178387Y-56387714D01*
X105012787Y-56508028D01*
X105012779Y-56508035D01*
X104868035Y-56652779D01*
X104868028Y-56652787D01*
X104747715Y-56818387D01*
X104747713Y-56818390D01*
X104728057Y-56856968D01*
X104722760Y-56867363D01*
X104671151Y-56924680D01*
X104597797Y-56948514D01*
X104522355Y-56932478D01*
X104465038Y-56880869D01*
X104457240Y-56867363D01*
X104432287Y-56818390D01*
X104376881Y-56742130D01*
X104311971Y-56652787D01*
X104311964Y-56652779D01*
X104167220Y-56508035D01*
X104167212Y-56508028D01*
X104001612Y-56387714D01*
X103819224Y-56294782D01*
X103819220Y-56294780D01*
X103819219Y-56294780D01*
X103624534Y-56231523D01*
X103422352Y-56199500D01*
X103217648Y-56199500D01*
X103066809Y-56223391D01*
X103015465Y-56231523D01*
X102820787Y-56294778D01*
X102820775Y-56294782D01*
X102638387Y-56387714D01*
X102472787Y-56508028D01*
X102472779Y-56508035D01*
X102328035Y-56652779D01*
X102328028Y-56652787D01*
X102207715Y-56818387D01*
X102207713Y-56818390D01*
X102188057Y-56856968D01*
X102182760Y-56867363D01*
X102131151Y-56924680D01*
X102057797Y-56948514D01*
X101982355Y-56932478D01*
X101925038Y-56880869D01*
X101917240Y-56867363D01*
X101892287Y-56818390D01*
X101836881Y-56742130D01*
X101771971Y-56652787D01*
X101771964Y-56652779D01*
X101627220Y-56508035D01*
X101627212Y-56508028D01*
X101461612Y-56387714D01*
X101279224Y-56294782D01*
X101279220Y-56294780D01*
X101279219Y-56294780D01*
X101084534Y-56231523D01*
X100882352Y-56199500D01*
X100677648Y-56199500D01*
X100526809Y-56223391D01*
X100475465Y-56231523D01*
X100280787Y-56294778D01*
X100280775Y-56294782D01*
X100098387Y-56387714D01*
X99932787Y-56508028D01*
X99932779Y-56508035D01*
X99788035Y-56652779D01*
X99788028Y-56652787D01*
X99667715Y-56818387D01*
X99667713Y-56818390D01*
X99648057Y-56856968D01*
X99642760Y-56867363D01*
X99591151Y-56924680D01*
X99517797Y-56948514D01*
X99442355Y-56932478D01*
X99385038Y-56880869D01*
X99377240Y-56867363D01*
X99352287Y-56818390D01*
X99296881Y-56742130D01*
X99231971Y-56652787D01*
X99231964Y-56652779D01*
X99087220Y-56508035D01*
X99087212Y-56508028D01*
X98921612Y-56387714D01*
X98739224Y-56294782D01*
X98739220Y-56294780D01*
X98739219Y-56294780D01*
X98544534Y-56231523D01*
X98342352Y-56199500D01*
X98137648Y-56199500D01*
X97986809Y-56223391D01*
X97935465Y-56231523D01*
X97740787Y-56294778D01*
X97740775Y-56294782D01*
X97558387Y-56387714D01*
X97392787Y-56508028D01*
X97392779Y-56508035D01*
X97248035Y-56652779D01*
X97248028Y-56652787D01*
X97127715Y-56818387D01*
X97127713Y-56818390D01*
X97108057Y-56856968D01*
X97102760Y-56867363D01*
X97051151Y-56924680D01*
X96977797Y-56948514D01*
X96902355Y-56932478D01*
X96845038Y-56880869D01*
X96837240Y-56867363D01*
X96812287Y-56818390D01*
X96756881Y-56742130D01*
X96691971Y-56652787D01*
X96691964Y-56652779D01*
X96547220Y-56508035D01*
X96547212Y-56508028D01*
X96381612Y-56387714D01*
X96199224Y-56294782D01*
X96199220Y-56294780D01*
X96199219Y-56294780D01*
X96004534Y-56231523D01*
X95802352Y-56199500D01*
X95597648Y-56199500D01*
X95446809Y-56223391D01*
X95395465Y-56231523D01*
X95200787Y-56294778D01*
X95200775Y-56294782D01*
X95018387Y-56387714D01*
X94852787Y-56508028D01*
X94852779Y-56508035D01*
X94708035Y-56652779D01*
X94708028Y-56652787D01*
X94587715Y-56818387D01*
X94587713Y-56818390D01*
X94568057Y-56856968D01*
X94562760Y-56867363D01*
X94511151Y-56924680D01*
X94437797Y-56948514D01*
X94362355Y-56932478D01*
X94305038Y-56880869D01*
X94297240Y-56867363D01*
X94272287Y-56818390D01*
X94216881Y-56742130D01*
X94151971Y-56652787D01*
X94151964Y-56652779D01*
X94007220Y-56508035D01*
X94007212Y-56508028D01*
X93841612Y-56387714D01*
X93659224Y-56294782D01*
X93659220Y-56294780D01*
X93659219Y-56294780D01*
X93464534Y-56231523D01*
X93262352Y-56199500D01*
X93057648Y-56199500D01*
X92906809Y-56223391D01*
X92855465Y-56231523D01*
X92660787Y-56294778D01*
X92660775Y-56294782D01*
X92478387Y-56387714D01*
X92312787Y-56508028D01*
X92312779Y-56508035D01*
X92168035Y-56652779D01*
X92168028Y-56652787D01*
X92047715Y-56818387D01*
X92047713Y-56818390D01*
X92028057Y-56856968D01*
X92022760Y-56867363D01*
X91971151Y-56924680D01*
X91897797Y-56948514D01*
X91822355Y-56932478D01*
X91765038Y-56880869D01*
X91757240Y-56867363D01*
X91732287Y-56818390D01*
X91676881Y-56742130D01*
X91611971Y-56652787D01*
X91611964Y-56652779D01*
X91467220Y-56508035D01*
X91467212Y-56508028D01*
X91301612Y-56387714D01*
X91119224Y-56294782D01*
X91119220Y-56294780D01*
X91119219Y-56294780D01*
X90924534Y-56231523D01*
X90722352Y-56199500D01*
X90517648Y-56199500D01*
X90366809Y-56223391D01*
X90315465Y-56231523D01*
X90120787Y-56294778D01*
X90120775Y-56294782D01*
X89938387Y-56387714D01*
X89772787Y-56508028D01*
X89772779Y-56508035D01*
X89628035Y-56652779D01*
X89628028Y-56652787D01*
X89507715Y-56818387D01*
X89507713Y-56818390D01*
X89488057Y-56856968D01*
X89482760Y-56867363D01*
X89431151Y-56924680D01*
X89357797Y-56948514D01*
X89282355Y-56932478D01*
X89225038Y-56880869D01*
X89217240Y-56867363D01*
X89192287Y-56818390D01*
X89136881Y-56742130D01*
X89071971Y-56652787D01*
X89071964Y-56652779D01*
X89018970Y-56599785D01*
X88927219Y-56508034D01*
X88920817Y-56503382D01*
X88911917Y-56496916D01*
X88863380Y-56436976D01*
X88850500Y-56376375D01*
X88850500Y-55009576D01*
X88861841Y-54952559D01*
X88869737Y-54933497D01*
X88900500Y-54778842D01*
X88900500Y-54621158D01*
X88869737Y-54466503D01*
X88822749Y-54353064D01*
X88809395Y-54320823D01*
X88805170Y-54314500D01*
X88721789Y-54189711D01*
X88610289Y-54078211D01*
X88479179Y-53990606D01*
X88479178Y-53990605D01*
X88479176Y-53990604D01*
X88333498Y-53930263D01*
X88333494Y-53930262D01*
X88178842Y-53899500D01*
X88021158Y-53899500D01*
X87866505Y-53930262D01*
X87866501Y-53930263D01*
X87720823Y-53990604D01*
X87659454Y-54031610D01*
X87617276Y-54059793D01*
X87589707Y-54078214D01*
X87478214Y-54189707D01*
X87478211Y-54189710D01*
X87478211Y-54189711D01*
X87473194Y-54197220D01*
X87390604Y-54320823D01*
X87330263Y-54466501D01*
X87330262Y-54466505D01*
X87299500Y-54621157D01*
X87299500Y-54778842D01*
X87330261Y-54933492D01*
X87330262Y-54933496D01*
X87330263Y-54933497D01*
X87338158Y-54952559D01*
X87349500Y-55009576D01*
X87349500Y-56347313D01*
X87329538Y-56421813D01*
X87288080Y-56467857D01*
X87232782Y-56508033D01*
X87232779Y-56508035D01*
X87088035Y-56652779D01*
X87088028Y-56652787D01*
X86967715Y-56818387D01*
X86967713Y-56818390D01*
X86948057Y-56856968D01*
X86942760Y-56867363D01*
X86891151Y-56924680D01*
X86817797Y-56948514D01*
X86742355Y-56932478D01*
X86685038Y-56880869D01*
X86677240Y-56867363D01*
X86652287Y-56818390D01*
X86596881Y-56742130D01*
X86531971Y-56652787D01*
X86531964Y-56652779D01*
X86387220Y-56508035D01*
X86387212Y-56508028D01*
X86221612Y-56387714D01*
X86039224Y-56294782D01*
X86039220Y-56294780D01*
X86039219Y-56294780D01*
X85844534Y-56231523D01*
X85642352Y-56199500D01*
X85437648Y-56199500D01*
X85286809Y-56223391D01*
X85235465Y-56231523D01*
X85040787Y-56294778D01*
X85040775Y-56294782D01*
X84858387Y-56387714D01*
X84692787Y-56508028D01*
X84692779Y-56508035D01*
X84548035Y-56652779D01*
X84548028Y-56652787D01*
X84427714Y-56818388D01*
X84402478Y-56867915D01*
X84350868Y-56925231D01*
X84277515Y-56949064D01*
X84202072Y-56933027D01*
X84144756Y-56881417D01*
X84136959Y-56867912D01*
X84111858Y-56818647D01*
X83991587Y-56653110D01*
X83846889Y-56508412D01*
X83681354Y-56388143D01*
X83499032Y-56295246D01*
X83499020Y-56295241D01*
X83304417Y-56232010D01*
X83250000Y-56223391D01*
X83250000Y-57066988D01*
X83192993Y-57034075D01*
X83065826Y-57000000D01*
X82934174Y-57000000D01*
X82807007Y-57034075D01*
X82750000Y-57066988D01*
X82750000Y-56223391D01*
X82695582Y-56232010D01*
X82500979Y-56295241D01*
X82500967Y-56295246D01*
X82318645Y-56388143D01*
X82153110Y-56508412D01*
X82008412Y-56653110D01*
X81888141Y-56818648D01*
X81863039Y-56867914D01*
X81811430Y-56925231D01*
X81738077Y-56949064D01*
X81662634Y-56933027D01*
X81605317Y-56881418D01*
X81597520Y-56867913D01*
X81572287Y-56818390D01*
X81522675Y-56750104D01*
X81451971Y-56652787D01*
X81451964Y-56652779D01*
X81307220Y-56508035D01*
X81307212Y-56508028D01*
X81141612Y-56387714D01*
X80959224Y-56294782D01*
X80959220Y-56294780D01*
X80959219Y-56294780D01*
X80764534Y-56231523D01*
X80562352Y-56199500D01*
X80357648Y-56199500D01*
X80206809Y-56223391D01*
X80155465Y-56231523D01*
X79960787Y-56294778D01*
X79960775Y-56294782D01*
X79778387Y-56387714D01*
X79612787Y-56508028D01*
X79612779Y-56508035D01*
X79468035Y-56652779D01*
X79468028Y-56652787D01*
X79347710Y-56818393D01*
X79347706Y-56818399D01*
X79347262Y-56819272D01*
X79346980Y-56819584D01*
X79344654Y-56823381D01*
X79343949Y-56822949D01*
X79295646Y-56876582D01*
X79222289Y-56900406D01*
X79146849Y-56884359D01*
X79109153Y-56856968D01*
X76955965Y-54703780D01*
X76955963Y-54703777D01*
X76835665Y-54583479D01*
X76743901Y-54530500D01*
X76743899Y-54530499D01*
X76698735Y-54504423D01*
X76698732Y-54504422D01*
X76546007Y-54463499D01*
X76387893Y-54463499D01*
X76378764Y-54463499D01*
X76378748Y-54463500D01*
X73085403Y-54463500D01*
X73010903Y-54443538D01*
X72956365Y-54389000D01*
X72936403Y-54314500D01*
X72956365Y-54240000D01*
X72980044Y-54209141D01*
X72991966Y-54197219D01*
X73112287Y-54031610D01*
X73205220Y-53849219D01*
X73268477Y-53654534D01*
X73300500Y-53452352D01*
X73300500Y-52347648D01*
X73268477Y-52145466D01*
X73205220Y-51950781D01*
X73112287Y-51768390D01*
X73076938Y-51719736D01*
X72991971Y-51602787D01*
X72991964Y-51602779D01*
X72847220Y-51458035D01*
X72847212Y-51458028D01*
X72681612Y-51337714D01*
X72499224Y-51244782D01*
X72499220Y-51244780D01*
X72499219Y-51244780D01*
X72304534Y-51181523D01*
X72102352Y-51149500D01*
X71897648Y-51149500D01*
X71746809Y-51173391D01*
X71695465Y-51181523D01*
X71500787Y-51244778D01*
X71500775Y-51244782D01*
X71318387Y-51337714D01*
X71152787Y-51458028D01*
X71152779Y-51458035D01*
X71008035Y-51602779D01*
X71008028Y-51602787D01*
X70887714Y-51768388D01*
X70862478Y-51817915D01*
X70810868Y-51875231D01*
X70737515Y-51899064D01*
X70662072Y-51883027D01*
X70604756Y-51831417D01*
X70596959Y-51817912D01*
X70571858Y-51768647D01*
X70451587Y-51603110D01*
X70306889Y-51458412D01*
X70141354Y-51338143D01*
X69959032Y-51245246D01*
X69959020Y-51245241D01*
X69764417Y-51182010D01*
X69710000Y-51173391D01*
X69710000Y-52530495D01*
X69631764Y-52485326D01*
X69518585Y-52455000D01*
X69401415Y-52455000D01*
X69288236Y-52485326D01*
X69210000Y-52530495D01*
X69210000Y-51173391D01*
X69155582Y-51182010D01*
X68960979Y-51245241D01*
X68960967Y-51245246D01*
X68778642Y-51338145D01*
X68689369Y-51403005D01*
X68513126Y-51558395D01*
X68468418Y-51603104D01*
X68468412Y-51603110D01*
X68348143Y-51768645D01*
X68255246Y-51950967D01*
X68255241Y-51950979D01*
X68192010Y-52145583D01*
X68160000Y-52347692D01*
X68160000Y-52650000D01*
X69090496Y-52650000D01*
X69045326Y-52728236D01*
X69015000Y-52841415D01*
X69015000Y-52958585D01*
X69045326Y-53071764D01*
X69090496Y-53150000D01*
X68160000Y-53150000D01*
X68160000Y-53452307D01*
X68192010Y-53654416D01*
X68255241Y-53849020D01*
X68255246Y-53849032D01*
X68348143Y-54031354D01*
X68468412Y-54196889D01*
X68480664Y-54209141D01*
X68519228Y-54275936D01*
X68519228Y-54353064D01*
X68480664Y-54419859D01*
X68413869Y-54458423D01*
X68375305Y-54463500D01*
X38234454Y-54463500D01*
X38159954Y-54443538D01*
X38129095Y-54419859D01*
X34844590Y-51135355D01*
X34806026Y-51068560D01*
X34806026Y-50991432D01*
X34808237Y-50983966D01*
X34817246Y-50956243D01*
X34850500Y-50746287D01*
X34850500Y-50533713D01*
X34817246Y-50323757D01*
X34751557Y-50121588D01*
X34655051Y-49932184D01*
X34530104Y-49760208D01*
X34379792Y-49609896D01*
X34215517Y-49490544D01*
X34166979Y-49430604D01*
X34154913Y-49354426D01*
X34182553Y-49282420D01*
X34215517Y-49249456D01*
X34222519Y-49244368D01*
X34379792Y-49130104D01*
X34530104Y-48979792D01*
X34655051Y-48807816D01*
X34726354Y-48667876D01*
X42800500Y-48667876D01*
X42800500Y-48930123D01*
X42834728Y-49190107D01*
X42834728Y-49190110D01*
X42902600Y-49443415D01*
X42902600Y-49443416D01*
X43002959Y-49685701D01*
X43134078Y-49912806D01*
X43134078Y-49912807D01*
X43293715Y-50120848D01*
X43479151Y-50306284D01*
X43653036Y-50439711D01*
X43687197Y-50465924D01*
X43914303Y-50597043D01*
X44118809Y-50681752D01*
X44156583Y-50697399D01*
X44244332Y-50720910D01*
X44409884Y-50765270D01*
X44409890Y-50765270D01*
X44409891Y-50765271D01*
X44446834Y-50770134D01*
X44669877Y-50799499D01*
X44669878Y-50799500D01*
X44669880Y-50799500D01*
X44932122Y-50799500D01*
X44932122Y-50799499D01*
X45192108Y-50765271D01*
X45192110Y-50765271D01*
X45192111Y-50765270D01*
X45192116Y-50765270D01*
X45445415Y-50697399D01*
X45445416Y-50697399D01*
X45445417Y-50697398D01*
X45445419Y-50697398D01*
X45687697Y-50597043D01*
X45914803Y-50465924D01*
X46122848Y-50306284D01*
X46122849Y-50306284D01*
X46308284Y-50120849D01*
X46308284Y-50120848D01*
X46347701Y-50069480D01*
X46467924Y-49912803D01*
X46599043Y-49685697D01*
X46699398Y-49443419D01*
X46767270Y-49190116D01*
X46801500Y-48930120D01*
X46801500Y-48667880D01*
X46801499Y-48667876D01*
X52800500Y-48667876D01*
X52800500Y-48930123D01*
X52834728Y-49190107D01*
X52834728Y-49190110D01*
X52902600Y-49443415D01*
X52902600Y-49443416D01*
X53002959Y-49685701D01*
X53134078Y-49912806D01*
X53134078Y-49912807D01*
X53293715Y-50120848D01*
X53479151Y-50306284D01*
X53653036Y-50439711D01*
X53687197Y-50465924D01*
X53914303Y-50597043D01*
X54118809Y-50681752D01*
X54156583Y-50697399D01*
X54244332Y-50720910D01*
X54409884Y-50765270D01*
X54409890Y-50765270D01*
X54409891Y-50765271D01*
X54446834Y-50770134D01*
X54669877Y-50799499D01*
X54669878Y-50799500D01*
X54669880Y-50799500D01*
X54932122Y-50799500D01*
X54932122Y-50799499D01*
X55192108Y-50765271D01*
X55192110Y-50765271D01*
X55192111Y-50765270D01*
X55192116Y-50765270D01*
X55445415Y-50697399D01*
X55445416Y-50697399D01*
X55445417Y-50697398D01*
X55445419Y-50697398D01*
X55687697Y-50597043D01*
X55914803Y-50465924D01*
X56122848Y-50306284D01*
X56122849Y-50306284D01*
X56308284Y-50120849D01*
X56308284Y-50120848D01*
X56347701Y-50069480D01*
X56467924Y-49912803D01*
X56599043Y-49685697D01*
X56699398Y-49443419D01*
X56767270Y-49190116D01*
X56801500Y-48930120D01*
X56801500Y-48667880D01*
X56767270Y-48407884D01*
X56713253Y-48206287D01*
X56699400Y-48154586D01*
X56699398Y-48154581D01*
X56599043Y-47912303D01*
X56467924Y-47685197D01*
X56467921Y-47685193D01*
X56467921Y-47685192D01*
X56308284Y-47477151D01*
X56122848Y-47291715D01*
X55914806Y-47132078D01*
X55687701Y-47000959D01*
X55687699Y-47000958D01*
X55687697Y-47000957D01*
X55612154Y-46969666D01*
X55445416Y-46900600D01*
X55219255Y-46840002D01*
X55192116Y-46832730D01*
X55192114Y-46832729D01*
X55192108Y-46832728D01*
X54932123Y-46798500D01*
X54932120Y-46798500D01*
X54669880Y-46798500D01*
X54669876Y-46798500D01*
X54409892Y-46832728D01*
X54409889Y-46832728D01*
X54156584Y-46900600D01*
X54156583Y-46900600D01*
X53914298Y-47000959D01*
X53687193Y-47132078D01*
X53687192Y-47132078D01*
X53479151Y-47291715D01*
X53479151Y-47291716D01*
X53479149Y-47291718D01*
X53293718Y-47477149D01*
X53293716Y-47477151D01*
X53293715Y-47477151D01*
X53134078Y-47685192D01*
X53134078Y-47685193D01*
X53002959Y-47912298D01*
X52902600Y-48154583D01*
X52902600Y-48154584D01*
X52834728Y-48407889D01*
X52834728Y-48407892D01*
X52800500Y-48667876D01*
X46801499Y-48667876D01*
X46767270Y-48407884D01*
X46713251Y-48206282D01*
X46699399Y-48154584D01*
X46699399Y-48154583D01*
X46662417Y-48065301D01*
X46599043Y-47912303D01*
X46467924Y-47685197D01*
X46467921Y-47685193D01*
X46467921Y-47685192D01*
X46308284Y-47477151D01*
X46122848Y-47291715D01*
X45914806Y-47132078D01*
X45687701Y-47000959D01*
X45687699Y-47000958D01*
X45687697Y-47000957D01*
X45612154Y-46969666D01*
X45445416Y-46900600D01*
X45219255Y-46840002D01*
X45192116Y-46832730D01*
X45192114Y-46832729D01*
X45192108Y-46832728D01*
X44932123Y-46798500D01*
X44932120Y-46798500D01*
X44669880Y-46798500D01*
X44669876Y-46798500D01*
X44409892Y-46832728D01*
X44409889Y-46832728D01*
X44156584Y-46900600D01*
X44156583Y-46900600D01*
X43914298Y-47000959D01*
X43687193Y-47132078D01*
X43687192Y-47132078D01*
X43479151Y-47291715D01*
X43479151Y-47291716D01*
X43479149Y-47291718D01*
X43293718Y-47477149D01*
X43293716Y-47477151D01*
X43293715Y-47477151D01*
X43134078Y-47685192D01*
X43134078Y-47685193D01*
X43002959Y-47912298D01*
X42902600Y-48154583D01*
X42902600Y-48154584D01*
X42834728Y-48407889D01*
X42834728Y-48407892D01*
X42800500Y-48667876D01*
X34726354Y-48667876D01*
X34751557Y-48618412D01*
X34817246Y-48416243D01*
X34850500Y-48206287D01*
X34850500Y-47993713D01*
X34817246Y-47783757D01*
X34751557Y-47581588D01*
X34655051Y-47392184D01*
X34530104Y-47220208D01*
X34379792Y-47069896D01*
X34207816Y-46944949D01*
X34018412Y-46848443D01*
X33816243Y-46782754D01*
X33606287Y-46749500D01*
X33393713Y-46749500D01*
X33218749Y-46777211D01*
X33183756Y-46782754D01*
X33029947Y-46832730D01*
X32981588Y-46848443D01*
X32981582Y-46848445D01*
X32981582Y-46848446D01*
X32792182Y-46944950D01*
X32792181Y-46944950D01*
X32620209Y-47069895D01*
X32620206Y-47069897D01*
X32469897Y-47220206D01*
X32469895Y-47220209D01*
X32344950Y-47392181D01*
X32344950Y-47392182D01*
X32248446Y-47581582D01*
X32248441Y-47581594D01*
X32214780Y-47685193D01*
X32182754Y-47783757D01*
X32149500Y-47993713D01*
X32149500Y-48206287D01*
X32163717Y-48296046D01*
X32182754Y-48416245D01*
X32191757Y-48443952D01*
X32195794Y-48520974D01*
X32160779Y-48589696D01*
X32155409Y-48595354D01*
X30754859Y-49995905D01*
X30688064Y-50034469D01*
X30610936Y-50034469D01*
X30544141Y-49995905D01*
X30505577Y-49929110D01*
X30500500Y-49890546D01*
X30500500Y-45922521D01*
X64670000Y-45922521D01*
X64670000Y-47570000D01*
X65945038Y-47570000D01*
X65915000Y-47721016D01*
X65915000Y-47918984D01*
X65945038Y-48070000D01*
X64670000Y-48070000D01*
X64670000Y-49717478D01*
X64708495Y-50009879D01*
X64708498Y-50009896D01*
X64784833Y-50294787D01*
X64784833Y-50294788D01*
X64897708Y-50567289D01*
X65045180Y-50822717D01*
X65045181Y-50822719D01*
X65224731Y-51056711D01*
X65433288Y-51265268D01*
X65667280Y-51444818D01*
X65667282Y-51444819D01*
X65922710Y-51592291D01*
X66195211Y-51705166D01*
X66480103Y-51781501D01*
X66480120Y-51781504D01*
X66670000Y-51806502D01*
X66670000Y-48794961D01*
X66821016Y-48825000D01*
X67018984Y-48825000D01*
X67170000Y-48794961D01*
X67170000Y-51806501D01*
X67359879Y-51781504D01*
X67359896Y-51781501D01*
X67644787Y-51705166D01*
X67644788Y-51705166D01*
X67917289Y-51592291D01*
X68172717Y-51444819D01*
X68172719Y-51444818D01*
X68316340Y-51334612D01*
X68494055Y-51177924D01*
X68615260Y-51056720D01*
X68615268Y-51056711D01*
X68794818Y-50822719D01*
X68794819Y-50822717D01*
X68942291Y-50567289D01*
X69055166Y-50294788D01*
X69055166Y-50294787D01*
X69131501Y-50009896D01*
X69131504Y-50009879D01*
X69169999Y-49717478D01*
X69170000Y-49717473D01*
X69170000Y-48070000D01*
X67894962Y-48070000D01*
X67925000Y-47918984D01*
X67925000Y-47721016D01*
X67894962Y-47570000D01*
X69170000Y-47570000D01*
X69170000Y-45922527D01*
X69169999Y-45922521D01*
X74830000Y-45922521D01*
X74830000Y-47570000D01*
X76105038Y-47570000D01*
X76075000Y-47721016D01*
X76075000Y-47918984D01*
X76105038Y-48070000D01*
X74830000Y-48070000D01*
X74830000Y-49717478D01*
X74868495Y-50009879D01*
X74868498Y-50009896D01*
X74944833Y-50294787D01*
X74944833Y-50294788D01*
X75057708Y-50567289D01*
X75205180Y-50822717D01*
X75205181Y-50822719D01*
X75384731Y-51056711D01*
X75593288Y-51265268D01*
X75827280Y-51444818D01*
X75827282Y-51444819D01*
X76082710Y-51592291D01*
X76355211Y-51705166D01*
X76640103Y-51781501D01*
X76640120Y-51781504D01*
X76830000Y-51806502D01*
X76830000Y-48794961D01*
X76981016Y-48825000D01*
X77178984Y-48825000D01*
X77330000Y-48794961D01*
X77330000Y-51806501D01*
X77519879Y-51781504D01*
X77519896Y-51781501D01*
X77804787Y-51705166D01*
X77804788Y-51705166D01*
X78077289Y-51592291D01*
X78332717Y-51444819D01*
X78332719Y-51444818D01*
X78566711Y-51265268D01*
X78775268Y-51056711D01*
X78917650Y-50871157D01*
X98099500Y-50871157D01*
X98099500Y-51028842D01*
X98130262Y-51183494D01*
X98130263Y-51183498D01*
X98190604Y-51329176D01*
X98190605Y-51329178D01*
X98190606Y-51329179D01*
X98278211Y-51460289D01*
X98389711Y-51571789D01*
X98520821Y-51659394D01*
X98520822Y-51659394D01*
X98520823Y-51659395D01*
X98546677Y-51670104D01*
X98666503Y-51719737D01*
X98821158Y-51750500D01*
X98978842Y-51750500D01*
X99133497Y-51719737D01*
X99279179Y-51659394D01*
X99404567Y-51575611D01*
X99477602Y-51550819D01*
X99487348Y-51550500D01*
X101312652Y-51550500D01*
X101387152Y-51570462D01*
X101395426Y-51575607D01*
X101436091Y-51602779D01*
X101520816Y-51659391D01*
X101520818Y-51659392D01*
X101520821Y-51659394D01*
X101666503Y-51719737D01*
X101821158Y-51750500D01*
X101978842Y-51750500D01*
X102133497Y-51719737D01*
X102279179Y-51659394D01*
X102410289Y-51571789D01*
X102521789Y-51460289D01*
X102609394Y-51329179D01*
X102669737Y-51183497D01*
X102700500Y-51028842D01*
X102700500Y-50871158D01*
X102698370Y-50860452D01*
X102683551Y-50785952D01*
X102669737Y-50716503D01*
X102630132Y-50620888D01*
X102609395Y-50570823D01*
X102607034Y-50567289D01*
X102521789Y-50439711D01*
X102410289Y-50328211D01*
X102279179Y-50240606D01*
X102279178Y-50240605D01*
X102279176Y-50240604D01*
X102133498Y-50180263D01*
X102133494Y-50180262D01*
X101978842Y-50149500D01*
X101821158Y-50149500D01*
X101666505Y-50180262D01*
X101666501Y-50180263D01*
X101520822Y-50240605D01*
X101520816Y-50240608D01*
X101439733Y-50294787D01*
X101396379Y-50323756D01*
X101395433Y-50324388D01*
X101322398Y-50349181D01*
X101312652Y-50349500D01*
X99487348Y-50349500D01*
X99412848Y-50329538D01*
X99404567Y-50324388D01*
X99403621Y-50323756D01*
X99360267Y-50294787D01*
X99279183Y-50240608D01*
X99279177Y-50240605D01*
X99133498Y-50180263D01*
X99133494Y-50180262D01*
X98978842Y-50149500D01*
X98821158Y-50149500D01*
X98666505Y-50180262D01*
X98666501Y-50180263D01*
X98520823Y-50240604D01*
X98439733Y-50294787D01*
X98396379Y-50323756D01*
X98389707Y-50328214D01*
X98278214Y-50439707D01*
X98190604Y-50570823D01*
X98130263Y-50716501D01*
X98130262Y-50716505D01*
X98099500Y-50871157D01*
X78917650Y-50871157D01*
X78954818Y-50822719D01*
X78954819Y-50822717D01*
X78974091Y-50789338D01*
X79102291Y-50567289D01*
X79215166Y-50294788D01*
X79215166Y-50294787D01*
X79291501Y-50009896D01*
X79291504Y-50009879D01*
X79329999Y-49717478D01*
X79330000Y-49717473D01*
X79330000Y-48070000D01*
X78054962Y-48070000D01*
X78085000Y-47918984D01*
X78085000Y-47721016D01*
X78054962Y-47570000D01*
X79330000Y-47570000D01*
X79330000Y-45922527D01*
X79329999Y-45922521D01*
X79291504Y-45630120D01*
X79291501Y-45630103D01*
X79215166Y-45345212D01*
X79215166Y-45345211D01*
X79102291Y-45072710D01*
X78954819Y-44817282D01*
X78954818Y-44817280D01*
X78775268Y-44583288D01*
X78566711Y-44374731D01*
X78332719Y-44195181D01*
X78332717Y-44195180D01*
X78077289Y-44047708D01*
X77804788Y-43934833D01*
X77519889Y-43858496D01*
X77519884Y-43858495D01*
X77330000Y-43833496D01*
X77330000Y-46845038D01*
X77178984Y-46815000D01*
X76981016Y-46815000D01*
X76830000Y-46845038D01*
X76830000Y-43833496D01*
X76640115Y-43858495D01*
X76640110Y-43858496D01*
X76355212Y-43934833D01*
X76355211Y-43934833D01*
X76082710Y-44047708D01*
X75827282Y-44195180D01*
X75827280Y-44195181D01*
X75593288Y-44374731D01*
X75384731Y-44583288D01*
X75205181Y-44817280D01*
X75205180Y-44817282D01*
X75057708Y-45072710D01*
X74944833Y-45345211D01*
X74944833Y-45345212D01*
X74868498Y-45630103D01*
X74868495Y-45630120D01*
X74830000Y-45922521D01*
X69169999Y-45922521D01*
X69131504Y-45630120D01*
X69131501Y-45630103D01*
X69055166Y-45345212D01*
X69055166Y-45345211D01*
X68942291Y-45072710D01*
X68794819Y-44817282D01*
X68794818Y-44817280D01*
X68615268Y-44583288D01*
X68406711Y-44374731D01*
X68172719Y-44195181D01*
X68172717Y-44195180D01*
X67917289Y-44047708D01*
X67644788Y-43934833D01*
X67359889Y-43858496D01*
X67359884Y-43858495D01*
X67170000Y-43833496D01*
X67170000Y-46845038D01*
X67018984Y-46815000D01*
X66821016Y-46815000D01*
X66670000Y-46845038D01*
X66670000Y-43833496D01*
X66480115Y-43858495D01*
X66480110Y-43858496D01*
X66195212Y-43934833D01*
X66195211Y-43934833D01*
X65922710Y-44047708D01*
X65667282Y-44195180D01*
X65667280Y-44195181D01*
X65433288Y-44374731D01*
X65224731Y-44583288D01*
X65045181Y-44817280D01*
X65045180Y-44817282D01*
X64897708Y-45072710D01*
X64784833Y-45345211D01*
X64784833Y-45345212D01*
X64708498Y-45630103D01*
X64708495Y-45630120D01*
X64670000Y-45922521D01*
X30500500Y-45922521D01*
X30500500Y-42868219D01*
X30989500Y-42868219D01*
X30989500Y-43131780D01*
X31023898Y-43393063D01*
X31092113Y-43647644D01*
X31192970Y-43891133D01*
X31324745Y-44119374D01*
X31324745Y-44119375D01*
X31485180Y-44328456D01*
X31671543Y-44514819D01*
X31880625Y-44675254D01*
X31880629Y-44675257D01*
X32108871Y-44807032D01*
X32352359Y-44907888D01*
X32606929Y-44976100D01*
X32606935Y-44976100D01*
X32606936Y-44976101D01*
X32677968Y-44985452D01*
X32868225Y-45010500D01*
X33131775Y-45010500D01*
X33393071Y-44976100D01*
X33647641Y-44907888D01*
X33891129Y-44807032D01*
X34119371Y-44675257D01*
X34328456Y-44514819D01*
X34328457Y-44514819D01*
X34514819Y-44328457D01*
X34514819Y-44328456D01*
X34617086Y-44195181D01*
X34675257Y-44119371D01*
X34807032Y-43891129D01*
X34907888Y-43647641D01*
X34976100Y-43393071D01*
X35010500Y-43131775D01*
X35010500Y-42868225D01*
X35010499Y-42868219D01*
X114989500Y-42868219D01*
X114989500Y-43131780D01*
X115023898Y-43393063D01*
X115092113Y-43647644D01*
X115192970Y-43891133D01*
X115324745Y-44119374D01*
X115324745Y-44119375D01*
X115485180Y-44328456D01*
X115671543Y-44514819D01*
X115880625Y-44675254D01*
X115880629Y-44675257D01*
X116108871Y-44807032D01*
X116352359Y-44907888D01*
X116606929Y-44976100D01*
X116606935Y-44976100D01*
X116606936Y-44976101D01*
X116677968Y-44985452D01*
X116868225Y-45010500D01*
X117131775Y-45010500D01*
X117393071Y-44976100D01*
X117647641Y-44907888D01*
X117891129Y-44807032D01*
X118119371Y-44675257D01*
X118328456Y-44514819D01*
X118328457Y-44514819D01*
X118514819Y-44328457D01*
X118514819Y-44328456D01*
X118617086Y-44195181D01*
X118675257Y-44119371D01*
X118807032Y-43891129D01*
X118907888Y-43647641D01*
X118976100Y-43393071D01*
X119010500Y-43131775D01*
X119010500Y-42868225D01*
X118976100Y-42606929D01*
X118907888Y-42352359D01*
X118807032Y-42108871D01*
X118675257Y-41880629D01*
X118675254Y-41880625D01*
X118675254Y-41880624D01*
X118514819Y-41671543D01*
X118328456Y-41485180D01*
X118119374Y-41324745D01*
X117891133Y-41192970D01*
X117891131Y-41192969D01*
X117891129Y-41192968D01*
X117748500Y-41133889D01*
X117647644Y-41092113D01*
X117647642Y-41092112D01*
X117647641Y-41092112D01*
X117393071Y-41023900D01*
X117393069Y-41023899D01*
X117393063Y-41023898D01*
X117131780Y-40989500D01*
X117131775Y-40989500D01*
X116868225Y-40989500D01*
X116868219Y-40989500D01*
X116606936Y-41023898D01*
X116352355Y-41092113D01*
X116108866Y-41192970D01*
X115880625Y-41324745D01*
X115880624Y-41324745D01*
X115671543Y-41485180D01*
X115671543Y-41485181D01*
X115671541Y-41485183D01*
X115485183Y-41671541D01*
X115485181Y-41671543D01*
X115485180Y-41671543D01*
X115324745Y-41880624D01*
X115324745Y-41880625D01*
X115192970Y-42108866D01*
X115092113Y-42352355D01*
X115023898Y-42606936D01*
X114989500Y-42868219D01*
X35010499Y-42868219D01*
X34976100Y-42606929D01*
X34907888Y-42352359D01*
X34807032Y-42108871D01*
X34675257Y-41880629D01*
X34675254Y-41880625D01*
X34675254Y-41880624D01*
X34514819Y-41671543D01*
X34328456Y-41485180D01*
X34119374Y-41324745D01*
X33891133Y-41192970D01*
X33891131Y-41192969D01*
X33891129Y-41192968D01*
X33748500Y-41133889D01*
X33647644Y-41092113D01*
X33647642Y-41092112D01*
X33647641Y-41092112D01*
X33393071Y-41023900D01*
X33393069Y-41023899D01*
X33393063Y-41023898D01*
X33131780Y-40989500D01*
X33131775Y-40989500D01*
X32868225Y-40989500D01*
X32868219Y-40989500D01*
X32606936Y-41023898D01*
X32352355Y-41092113D01*
X32108866Y-41192970D01*
X31880625Y-41324745D01*
X31880624Y-41324745D01*
X31671543Y-41485180D01*
X31671543Y-41485181D01*
X31671541Y-41485183D01*
X31485183Y-41671541D01*
X31485181Y-41671543D01*
X31485180Y-41671543D01*
X31324745Y-41880624D01*
X31324745Y-41880625D01*
X31192970Y-42108866D01*
X31092113Y-42352355D01*
X31023898Y-42606936D01*
X30989500Y-42868219D01*
X30500500Y-42868219D01*
X30500500Y-40649500D01*
X30520462Y-40575000D01*
X30575000Y-40520462D01*
X30649500Y-40500500D01*
X119350500Y-40500500D01*
X119425000Y-40520462D01*
G37*
%TD.AperFunction*%
%TA.AperFunction,Conductor*%
G36*
X35074000Y-70850415D02*
G01*
X35104859Y-70874094D01*
X42449478Y-78218713D01*
X42449480Y-78218716D01*
X42561284Y-78330520D01*
X42629174Y-78369716D01*
X42640099Y-78376024D01*
X42640101Y-78376025D01*
X42698212Y-78409576D01*
X42698214Y-78409576D01*
X42698215Y-78409577D01*
X42850943Y-78450501D01*
X42850948Y-78450501D01*
X43018186Y-78450501D01*
X43018202Y-78450500D01*
X51867451Y-78450500D01*
X51941951Y-78470462D01*
X51996489Y-78525000D01*
X52016451Y-78599500D01*
X52005109Y-78656518D01*
X52000058Y-78668713D01*
X51980262Y-78716505D01*
X51949500Y-78871157D01*
X51949500Y-79028842D01*
X51980262Y-79183494D01*
X51980263Y-79183498D01*
X52040604Y-79329176D01*
X52040605Y-79329178D01*
X52040606Y-79329179D01*
X52128211Y-79460289D01*
X52239711Y-79571789D01*
X52370821Y-79659394D01*
X52370822Y-79659394D01*
X52370823Y-79659395D01*
X52443662Y-79689565D01*
X52516503Y-79719737D01*
X52671158Y-79750500D01*
X52828842Y-79750500D01*
X52983497Y-79719737D01*
X53129179Y-79659394D01*
X53254567Y-79575611D01*
X53327602Y-79550819D01*
X53337348Y-79550500D01*
X54156704Y-79550500D01*
X54231204Y-79570462D01*
X54262063Y-79594141D01*
X54289711Y-79621789D01*
X54420821Y-79709394D01*
X54566503Y-79769737D01*
X54721158Y-79800500D01*
X54878842Y-79800500D01*
X55033497Y-79769737D01*
X55179179Y-79709394D01*
X55310289Y-79621789D01*
X55421789Y-79510289D01*
X55509394Y-79379179D01*
X55569737Y-79233497D01*
X55600500Y-79078842D01*
X55600500Y-78921158D01*
X55596644Y-78901775D01*
X55569737Y-78766505D01*
X55569736Y-78766501D01*
X55524181Y-78656519D01*
X55514114Y-78580051D01*
X55543630Y-78508794D01*
X55604820Y-78461842D01*
X55661839Y-78450500D01*
X63678113Y-78450500D01*
X63752613Y-78470462D01*
X63807151Y-78525000D01*
X63827113Y-78599500D01*
X63807151Y-78674000D01*
X63798658Y-78687079D01*
X63794949Y-78692182D01*
X63698446Y-78881582D01*
X63698441Y-78881594D01*
X63632754Y-79083756D01*
X63626103Y-79125748D01*
X63599500Y-79293713D01*
X63599500Y-79756287D01*
X63632754Y-79966243D01*
X63698443Y-80168412D01*
X63792166Y-80352355D01*
X63794950Y-80357817D01*
X63794950Y-80357818D01*
X63871311Y-80462920D01*
X63898951Y-80534926D01*
X63886885Y-80611104D01*
X63838347Y-80671044D01*
X63766341Y-80698684D01*
X63750767Y-80699500D01*
X43860454Y-80699500D01*
X43785954Y-80679538D01*
X43755095Y-80655859D01*
X41039015Y-77939780D01*
X41039013Y-77939777D01*
X40918715Y-77819479D01*
X40830789Y-77768716D01*
X40830787Y-77768715D01*
X40781785Y-77740423D01*
X40781782Y-77740422D01*
X40629057Y-77699499D01*
X40470943Y-77699499D01*
X40461814Y-77699499D01*
X40461798Y-77699500D01*
X32607890Y-77699500D01*
X32533390Y-77679538D01*
X32502531Y-77655859D01*
X32490929Y-77644257D01*
X32452365Y-77577462D01*
X32452365Y-77500334D01*
X32490929Y-77433539D01*
X32557724Y-77394975D01*
X32598182Y-77390752D01*
X32598182Y-77390000D01*
X33250000Y-77390000D01*
X33250000Y-76473012D01*
X33307007Y-76505925D01*
X33434174Y-76540000D01*
X33565826Y-76540000D01*
X33692993Y-76505925D01*
X33750000Y-76473012D01*
X33750000Y-77390000D01*
X34397823Y-77390000D01*
X34397842Y-77389998D01*
X34457377Y-77383598D01*
X34592084Y-77333354D01*
X34592094Y-77333349D01*
X34707187Y-77247190D01*
X34707190Y-77247187D01*
X34793349Y-77132094D01*
X34793354Y-77132084D01*
X34843598Y-76997377D01*
X34849998Y-76937842D01*
X34850000Y-76937822D01*
X34850000Y-76290000D01*
X33933012Y-76290000D01*
X33965925Y-76232993D01*
X34000000Y-76105826D01*
X34000000Y-75974174D01*
X33965925Y-75847007D01*
X33933012Y-75790000D01*
X34850000Y-75790000D01*
X34850000Y-75142177D01*
X34849998Y-75142157D01*
X34843598Y-75082622D01*
X34793354Y-74947915D01*
X34793349Y-74947905D01*
X34707190Y-74832812D01*
X34707187Y-74832809D01*
X34592094Y-74746650D01*
X34592086Y-74746646D01*
X34496976Y-74711171D01*
X34434149Y-74666432D01*
X34402110Y-74596274D01*
X34409442Y-74519495D01*
X34443689Y-74466207D01*
X34530096Y-74379800D01*
X34530104Y-74379792D01*
X34655051Y-74207816D01*
X34751557Y-74018412D01*
X34817246Y-73816243D01*
X34850500Y-73606287D01*
X34850500Y-73393713D01*
X34817246Y-73183757D01*
X34751557Y-72981588D01*
X34655051Y-72792184D01*
X34530104Y-72620208D01*
X34379792Y-72469896D01*
X34215517Y-72350544D01*
X34166979Y-72290604D01*
X34154913Y-72214426D01*
X34182553Y-72142420D01*
X34215517Y-72109456D01*
X34229659Y-72099181D01*
X34379792Y-71990104D01*
X34530104Y-71839792D01*
X34655051Y-71667816D01*
X34751557Y-71478412D01*
X34817246Y-71276243D01*
X34850500Y-71066287D01*
X34850500Y-70979453D01*
X34870462Y-70904953D01*
X34925000Y-70850415D01*
X34999500Y-70830453D01*
X35074000Y-70850415D01*
G37*
%TD.AperFunction*%
%TA.AperFunction,Conductor*%
G36*
X32105859Y-50554093D02*
G01*
X32144423Y-50620888D01*
X32149500Y-50659452D01*
X32149500Y-50746287D01*
X32182754Y-50956243D01*
X32248443Y-51158412D01*
X32344949Y-51347816D01*
X32469896Y-51519792D01*
X32620208Y-51670104D01*
X32698844Y-51727236D01*
X32784482Y-51789456D01*
X32833020Y-51849396D01*
X32845086Y-51925575D01*
X32817446Y-51997580D01*
X32784482Y-52030544D01*
X32620209Y-52149895D01*
X32620206Y-52149897D01*
X32469897Y-52300206D01*
X32469895Y-52300209D01*
X32344950Y-52472181D01*
X32344950Y-52472182D01*
X32248446Y-52661582D01*
X32248441Y-52661594D01*
X32195185Y-52825500D01*
X32182754Y-52863757D01*
X32149500Y-53073713D01*
X32149500Y-53286287D01*
X32182754Y-53496243D01*
X32248443Y-53698412D01*
X32325285Y-53849224D01*
X32344950Y-53887817D01*
X32344950Y-53887818D01*
X32375788Y-53930263D01*
X32469896Y-54059792D01*
X32620208Y-54210104D01*
X32661357Y-54240000D01*
X32784482Y-54329456D01*
X32833020Y-54389396D01*
X32845086Y-54465575D01*
X32817446Y-54537580D01*
X32784482Y-54570544D01*
X32620209Y-54689895D01*
X32620206Y-54689897D01*
X32469897Y-54840206D01*
X32469895Y-54840209D01*
X32344950Y-55012181D01*
X32344950Y-55012182D01*
X32344949Y-55012184D01*
X32248443Y-55201588D01*
X32182754Y-55403757D01*
X32149500Y-55613713D01*
X32149500Y-55826287D01*
X32182754Y-56036243D01*
X32248443Y-56238412D01*
X32344949Y-56427816D01*
X32469896Y-56599792D01*
X32620208Y-56750104D01*
X32698844Y-56807236D01*
X32784482Y-56869456D01*
X32833020Y-56929396D01*
X32845086Y-57005575D01*
X32817446Y-57077580D01*
X32784482Y-57110544D01*
X32620209Y-57229895D01*
X32620206Y-57229897D01*
X32469897Y-57380206D01*
X32469895Y-57380209D01*
X32344950Y-57552181D01*
X32344950Y-57552182D01*
X32248446Y-57741582D01*
X32248441Y-57741594D01*
X32227991Y-57804534D01*
X32182754Y-57943757D01*
X32149500Y-58153713D01*
X32149500Y-58366287D01*
X32182754Y-58576243D01*
X32248443Y-58778412D01*
X32344949Y-58967816D01*
X32469896Y-59139792D01*
X32620208Y-59290104D01*
X32698844Y-59347236D01*
X32784482Y-59409456D01*
X32833020Y-59469396D01*
X32845086Y-59545575D01*
X32817446Y-59617580D01*
X32784482Y-59650544D01*
X32620209Y-59769895D01*
X32620206Y-59769897D01*
X32469897Y-59920206D01*
X32469895Y-59920209D01*
X32344950Y-60092181D01*
X32344950Y-60092182D01*
X32248446Y-60281582D01*
X32248441Y-60281594D01*
X32215279Y-60383657D01*
X32182754Y-60483757D01*
X32149500Y-60693713D01*
X32149500Y-60906287D01*
X32182754Y-61116243D01*
X32248443Y-61318412D01*
X32344949Y-61507816D01*
X32469896Y-61679792D01*
X32620208Y-61830104D01*
X32681160Y-61874388D01*
X32784482Y-61949456D01*
X32833020Y-62009396D01*
X32845086Y-62085575D01*
X32817446Y-62157580D01*
X32784482Y-62190544D01*
X32620209Y-62309895D01*
X32620206Y-62309897D01*
X32469897Y-62460206D01*
X32469895Y-62460209D01*
X32344950Y-62632181D01*
X32344950Y-62632182D01*
X32248446Y-62821582D01*
X32248441Y-62821594D01*
X32190016Y-63001408D01*
X32182754Y-63023757D01*
X32149500Y-63233713D01*
X32149500Y-63446287D01*
X32182754Y-63656243D01*
X32248443Y-63858412D01*
X32344949Y-64047816D01*
X32469896Y-64219792D01*
X32620208Y-64370104D01*
X32671845Y-64407620D01*
X32784482Y-64489456D01*
X32833020Y-64549396D01*
X32845086Y-64625575D01*
X32817446Y-64697580D01*
X32784482Y-64730544D01*
X32620209Y-64849895D01*
X32620206Y-64849897D01*
X32469897Y-65000206D01*
X32469895Y-65000209D01*
X32344950Y-65172181D01*
X32344950Y-65172182D01*
X32248446Y-65361582D01*
X32248441Y-65361594D01*
X32210322Y-65478913D01*
X32182754Y-65563757D01*
X32149500Y-65773713D01*
X32149500Y-65986287D01*
X32182754Y-66196243D01*
X32248443Y-66398412D01*
X32294962Y-66489711D01*
X32344950Y-66587817D01*
X32344950Y-66587818D01*
X32368928Y-66620821D01*
X32469896Y-66759792D01*
X32620208Y-66910104D01*
X32635423Y-66921158D01*
X32784482Y-67029456D01*
X32833020Y-67089396D01*
X32845086Y-67165575D01*
X32817446Y-67237580D01*
X32784482Y-67270544D01*
X32620209Y-67389895D01*
X32620206Y-67389897D01*
X32469897Y-67540206D01*
X32469895Y-67540209D01*
X32344950Y-67712181D01*
X32344950Y-67712182D01*
X32248446Y-67901582D01*
X32248441Y-67901594D01*
X32210322Y-68018913D01*
X32182754Y-68103757D01*
X32149500Y-68313713D01*
X32149500Y-68526287D01*
X32182754Y-68736243D01*
X32248443Y-68938412D01*
X32344949Y-69127816D01*
X32469896Y-69299792D01*
X32620208Y-69450104D01*
X32688196Y-69499500D01*
X32784482Y-69569456D01*
X32833020Y-69629396D01*
X32845086Y-69705575D01*
X32817446Y-69777580D01*
X32784482Y-69810544D01*
X32620209Y-69929895D01*
X32620206Y-69929897D01*
X32469897Y-70080206D01*
X32469895Y-70080209D01*
X32344950Y-70252181D01*
X32344950Y-70252182D01*
X32248446Y-70441582D01*
X32248441Y-70441594D01*
X32210322Y-70558913D01*
X32182754Y-70643757D01*
X32149500Y-70853713D01*
X32149500Y-71066287D01*
X32182754Y-71276243D01*
X32248443Y-71478412D01*
X32344949Y-71667816D01*
X32469896Y-71839792D01*
X32620208Y-71990104D01*
X32650376Y-72012022D01*
X32784482Y-72109456D01*
X32833020Y-72169396D01*
X32845086Y-72245575D01*
X32817446Y-72317580D01*
X32784482Y-72350544D01*
X32620209Y-72469895D01*
X32620206Y-72469897D01*
X32469897Y-72620206D01*
X32469895Y-72620209D01*
X32344950Y-72792181D01*
X32344950Y-72792182D01*
X32248446Y-72981582D01*
X32248441Y-72981594D01*
X32182754Y-73183756D01*
X32181811Y-73189711D01*
X32149500Y-73393713D01*
X32149500Y-73606287D01*
X32182754Y-73816243D01*
X32248443Y-74018412D01*
X32318171Y-74155262D01*
X32344950Y-74207817D01*
X32344950Y-74207818D01*
X32469895Y-74379790D01*
X32469897Y-74379793D01*
X32556311Y-74466207D01*
X32594875Y-74533002D01*
X32594875Y-74610130D01*
X32556311Y-74676925D01*
X32503024Y-74711171D01*
X32407911Y-74746647D01*
X32407905Y-74746650D01*
X32292812Y-74832809D01*
X32292809Y-74832812D01*
X32206650Y-74947905D01*
X32206645Y-74947915D01*
X32156401Y-75082622D01*
X32150001Y-75142157D01*
X32150000Y-75142177D01*
X32150000Y-75790000D01*
X33066988Y-75790000D01*
X33034075Y-75847007D01*
X33000000Y-75974174D01*
X33000000Y-76105826D01*
X33034075Y-76232993D01*
X33066988Y-76290000D01*
X32150000Y-76290000D01*
X32150000Y-76941818D01*
X32148610Y-76941818D01*
X32133925Y-77011230D01*
X32082370Y-77068596D01*
X32009040Y-77092499D01*
X31933582Y-77076535D01*
X31895742Y-77049070D01*
X31694141Y-76847469D01*
X31655577Y-76780674D01*
X31650500Y-76742110D01*
X31650500Y-50860452D01*
X31655577Y-50841504D01*
X31655577Y-50821888D01*
X31665384Y-50804900D01*
X31670462Y-50785952D01*
X31694137Y-50755096D01*
X31895142Y-50554092D01*
X31961936Y-50515529D01*
X32039064Y-50515529D01*
X32105859Y-50554093D01*
G37*
%TD.AperFunction*%
%TA.AperFunction,Conductor*%
G36*
X75576047Y-56012462D02*
G01*
X75606906Y-56036141D01*
X90755906Y-71185141D01*
X90794470Y-71251936D01*
X90794470Y-71329064D01*
X90755906Y-71395859D01*
X90689111Y-71434423D01*
X90650547Y-71439500D01*
X90517648Y-71439500D01*
X90386123Y-71460331D01*
X90315457Y-71471524D01*
X90309774Y-71472889D01*
X90309504Y-71471767D01*
X90238687Y-71475470D01*
X90169970Y-71440447D01*
X90164324Y-71435089D01*
X74976094Y-56246859D01*
X74937530Y-56180064D01*
X74937530Y-56102936D01*
X74976094Y-56036141D01*
X75042889Y-55997577D01*
X75081453Y-55992500D01*
X75501547Y-55992500D01*
X75576047Y-56012462D01*
G37*
%TD.AperFunction*%
%TD*%
M02*
