%TF.GenerationSoftware,KiCad,Pcbnew,9.0.6*%
%TF.CreationDate,2026-04-02T10:37:20-07:00*%
%TF.ProjectId,AA-W6EEN,41412d57-3645-4454-9e2e-6b696361645f,rev?*%
%TF.SameCoordinates,Original*%
%TF.FileFunction,Legend,Top*%
%TF.FilePolarity,Positive*%
%FSLAX46Y46*%
G04 Gerber Fmt 4.6, Leading zero omitted, Abs format (unit mm)*
G04 Created by KiCad (PCBNEW 9.0.6) date 2026-04-02 10:37:20*
%MOMM*%
%LPD*%
G01*
G04 APERTURE LIST*
%ADD10C,0.150000*%
%ADD11C,0.100000*%
%ADD12C,0.125000*%
%ADD13C,0.120000*%
%ADD14C,0.127000*%
G04 APERTURE END LIST*
D10*
X81046303Y-42615141D02*
X81665350Y-42615141D01*
X80922493Y-43043712D02*
X81355826Y-41543712D01*
X81355826Y-41543712D02*
X81789160Y-43043712D01*
X82160589Y-42615141D02*
X82779636Y-42615141D01*
X82036779Y-43043712D02*
X82470112Y-41543712D01*
X82470112Y-41543712D02*
X82903446Y-43043712D01*
X83336779Y-42472284D02*
X84327256Y-42472284D01*
X84822494Y-41543712D02*
X85132018Y-43043712D01*
X85132018Y-43043712D02*
X85379637Y-41972284D01*
X85379637Y-41972284D02*
X85627256Y-43043712D01*
X85627256Y-43043712D02*
X85936780Y-41543712D01*
X86989160Y-41543712D02*
X86741541Y-41543712D01*
X86741541Y-41543712D02*
X86617732Y-41615141D01*
X86617732Y-41615141D02*
X86555827Y-41686569D01*
X86555827Y-41686569D02*
X86432017Y-41900855D01*
X86432017Y-41900855D02*
X86370113Y-42186569D01*
X86370113Y-42186569D02*
X86370113Y-42757998D01*
X86370113Y-42757998D02*
X86432017Y-42900855D01*
X86432017Y-42900855D02*
X86493922Y-42972284D01*
X86493922Y-42972284D02*
X86617732Y-43043712D01*
X86617732Y-43043712D02*
X86865351Y-43043712D01*
X86865351Y-43043712D02*
X86989160Y-42972284D01*
X86989160Y-42972284D02*
X87051065Y-42900855D01*
X87051065Y-42900855D02*
X87112970Y-42757998D01*
X87112970Y-42757998D02*
X87112970Y-42400855D01*
X87112970Y-42400855D02*
X87051065Y-42257998D01*
X87051065Y-42257998D02*
X86989160Y-42186569D01*
X86989160Y-42186569D02*
X86865351Y-42115141D01*
X86865351Y-42115141D02*
X86617732Y-42115141D01*
X86617732Y-42115141D02*
X86493922Y-42186569D01*
X86493922Y-42186569D02*
X86432017Y-42257998D01*
X86432017Y-42257998D02*
X86370113Y-42400855D01*
X87670112Y-42257998D02*
X88103446Y-42257998D01*
X88289160Y-43043712D02*
X87670112Y-43043712D01*
X87670112Y-43043712D02*
X87670112Y-41543712D01*
X87670112Y-41543712D02*
X88289160Y-41543712D01*
X88846302Y-42257998D02*
X89279636Y-42257998D01*
X89465350Y-43043712D02*
X88846302Y-43043712D01*
X88846302Y-43043712D02*
X88846302Y-41543712D01*
X88846302Y-41543712D02*
X89465350Y-41543712D01*
X90022492Y-43043712D02*
X90022492Y-41543712D01*
X90022492Y-41543712D02*
X90765349Y-43043712D01*
X90765349Y-43043712D02*
X90765349Y-41543712D01*
X92251064Y-42043712D02*
X92560588Y-43043712D01*
X92560588Y-43043712D02*
X92870111Y-42043712D01*
X93612968Y-41543712D02*
X93736778Y-41543712D01*
X93736778Y-41543712D02*
X93860587Y-41615141D01*
X93860587Y-41615141D02*
X93922492Y-41686569D01*
X93922492Y-41686569D02*
X93984397Y-41829426D01*
X93984397Y-41829426D02*
X94046302Y-42115141D01*
X94046302Y-42115141D02*
X94046302Y-42472284D01*
X94046302Y-42472284D02*
X93984397Y-42757998D01*
X93984397Y-42757998D02*
X93922492Y-42900855D01*
X93922492Y-42900855D02*
X93860587Y-42972284D01*
X93860587Y-42972284D02*
X93736778Y-43043712D01*
X93736778Y-43043712D02*
X93612968Y-43043712D01*
X93612968Y-43043712D02*
X93489159Y-42972284D01*
X93489159Y-42972284D02*
X93427254Y-42900855D01*
X93427254Y-42900855D02*
X93365349Y-42757998D01*
X93365349Y-42757998D02*
X93303445Y-42472284D01*
X93303445Y-42472284D02*
X93303445Y-42115141D01*
X93303445Y-42115141D02*
X93365349Y-41829426D01*
X93365349Y-41829426D02*
X93427254Y-41686569D01*
X93427254Y-41686569D02*
X93489159Y-41615141D01*
X93489159Y-41615141D02*
X93612968Y-41543712D01*
X94603444Y-42900855D02*
X94665349Y-42972284D01*
X94665349Y-42972284D02*
X94603444Y-43043712D01*
X94603444Y-43043712D02*
X94541540Y-42972284D01*
X94541540Y-42972284D02*
X94603444Y-42900855D01*
X94603444Y-42900855D02*
X94603444Y-43043712D01*
X95284397Y-43043712D02*
X95532016Y-43043712D01*
X95532016Y-43043712D02*
X95655826Y-42972284D01*
X95655826Y-42972284D02*
X95717730Y-42900855D01*
X95717730Y-42900855D02*
X95841540Y-42686569D01*
X95841540Y-42686569D02*
X95903445Y-42400855D01*
X95903445Y-42400855D02*
X95903445Y-41829426D01*
X95903445Y-41829426D02*
X95841540Y-41686569D01*
X95841540Y-41686569D02*
X95779635Y-41615141D01*
X95779635Y-41615141D02*
X95655826Y-41543712D01*
X95655826Y-41543712D02*
X95408207Y-41543712D01*
X95408207Y-41543712D02*
X95284397Y-41615141D01*
X95284397Y-41615141D02*
X95222492Y-41686569D01*
X95222492Y-41686569D02*
X95160588Y-41829426D01*
X95160588Y-41829426D02*
X95160588Y-42186569D01*
X95160588Y-42186569D02*
X95222492Y-42329426D01*
X95222492Y-42329426D02*
X95284397Y-42400855D01*
X95284397Y-42400855D02*
X95408207Y-42472284D01*
X95408207Y-42472284D02*
X95655826Y-42472284D01*
X95655826Y-42472284D02*
X95779635Y-42400855D01*
X95779635Y-42400855D02*
X95841540Y-42329426D01*
X95841540Y-42329426D02*
X95903445Y-42186569D01*
X97141540Y-43043712D02*
X96398683Y-43043712D01*
X96770111Y-43043712D02*
X96770111Y-41543712D01*
X96770111Y-41543712D02*
X96646302Y-41757998D01*
X96646302Y-41757998D02*
X96522492Y-41900855D01*
X96522492Y-41900855D02*
X96398683Y-41972284D01*
X81355826Y-43958628D02*
X81479636Y-43958628D01*
X81479636Y-43958628D02*
X81603445Y-44030057D01*
X81603445Y-44030057D02*
X81665350Y-44101485D01*
X81665350Y-44101485D02*
X81727255Y-44244342D01*
X81727255Y-44244342D02*
X81789160Y-44530057D01*
X81789160Y-44530057D02*
X81789160Y-44887200D01*
X81789160Y-44887200D02*
X81727255Y-45172914D01*
X81727255Y-45172914D02*
X81665350Y-45315771D01*
X81665350Y-45315771D02*
X81603445Y-45387200D01*
X81603445Y-45387200D02*
X81479636Y-45458628D01*
X81479636Y-45458628D02*
X81355826Y-45458628D01*
X81355826Y-45458628D02*
X81232017Y-45387200D01*
X81232017Y-45387200D02*
X81170112Y-45315771D01*
X81170112Y-45315771D02*
X81108207Y-45172914D01*
X81108207Y-45172914D02*
X81046303Y-44887200D01*
X81046303Y-44887200D02*
X81046303Y-44530057D01*
X81046303Y-44530057D02*
X81108207Y-44244342D01*
X81108207Y-44244342D02*
X81170112Y-44101485D01*
X81170112Y-44101485D02*
X81232017Y-44030057D01*
X81232017Y-44030057D02*
X81355826Y-43958628D01*
X82903445Y-44458628D02*
X82903445Y-45458628D01*
X82593921Y-43887200D02*
X82284398Y-44958628D01*
X82284398Y-44958628D02*
X83089159Y-44958628D01*
X84512969Y-43887200D02*
X83398683Y-45815771D01*
X85193921Y-43958628D02*
X85317731Y-43958628D01*
X85317731Y-43958628D02*
X85441540Y-44030057D01*
X85441540Y-44030057D02*
X85503445Y-44101485D01*
X85503445Y-44101485D02*
X85565350Y-44244342D01*
X85565350Y-44244342D02*
X85627255Y-44530057D01*
X85627255Y-44530057D02*
X85627255Y-44887200D01*
X85627255Y-44887200D02*
X85565350Y-45172914D01*
X85565350Y-45172914D02*
X85503445Y-45315771D01*
X85503445Y-45315771D02*
X85441540Y-45387200D01*
X85441540Y-45387200D02*
X85317731Y-45458628D01*
X85317731Y-45458628D02*
X85193921Y-45458628D01*
X85193921Y-45458628D02*
X85070112Y-45387200D01*
X85070112Y-45387200D02*
X85008207Y-45315771D01*
X85008207Y-45315771D02*
X84946302Y-45172914D01*
X84946302Y-45172914D02*
X84884398Y-44887200D01*
X84884398Y-44887200D02*
X84884398Y-44530057D01*
X84884398Y-44530057D02*
X84946302Y-44244342D01*
X84946302Y-44244342D02*
X85008207Y-44101485D01*
X85008207Y-44101485D02*
X85070112Y-44030057D01*
X85070112Y-44030057D02*
X85193921Y-43958628D01*
X86122493Y-44101485D02*
X86184397Y-44030057D01*
X86184397Y-44030057D02*
X86308207Y-43958628D01*
X86308207Y-43958628D02*
X86617731Y-43958628D01*
X86617731Y-43958628D02*
X86741540Y-44030057D01*
X86741540Y-44030057D02*
X86803445Y-44101485D01*
X86803445Y-44101485D02*
X86865350Y-44244342D01*
X86865350Y-44244342D02*
X86865350Y-44387200D01*
X86865350Y-44387200D02*
X86803445Y-44601485D01*
X86803445Y-44601485D02*
X86060588Y-45458628D01*
X86060588Y-45458628D02*
X86865350Y-45458628D01*
X88351064Y-43887200D02*
X87236778Y-45815771D01*
X88722493Y-44101485D02*
X88784397Y-44030057D01*
X88784397Y-44030057D02*
X88908207Y-43958628D01*
X88908207Y-43958628D02*
X89217731Y-43958628D01*
X89217731Y-43958628D02*
X89341540Y-44030057D01*
X89341540Y-44030057D02*
X89403445Y-44101485D01*
X89403445Y-44101485D02*
X89465350Y-44244342D01*
X89465350Y-44244342D02*
X89465350Y-44387200D01*
X89465350Y-44387200D02*
X89403445Y-44601485D01*
X89403445Y-44601485D02*
X88660588Y-45458628D01*
X88660588Y-45458628D02*
X89465350Y-45458628D01*
X90270111Y-43958628D02*
X90393921Y-43958628D01*
X90393921Y-43958628D02*
X90517730Y-44030057D01*
X90517730Y-44030057D02*
X90579635Y-44101485D01*
X90579635Y-44101485D02*
X90641540Y-44244342D01*
X90641540Y-44244342D02*
X90703445Y-44530057D01*
X90703445Y-44530057D02*
X90703445Y-44887200D01*
X90703445Y-44887200D02*
X90641540Y-45172914D01*
X90641540Y-45172914D02*
X90579635Y-45315771D01*
X90579635Y-45315771D02*
X90517730Y-45387200D01*
X90517730Y-45387200D02*
X90393921Y-45458628D01*
X90393921Y-45458628D02*
X90270111Y-45458628D01*
X90270111Y-45458628D02*
X90146302Y-45387200D01*
X90146302Y-45387200D02*
X90084397Y-45315771D01*
X90084397Y-45315771D02*
X90022492Y-45172914D01*
X90022492Y-45172914D02*
X89960588Y-44887200D01*
X89960588Y-44887200D02*
X89960588Y-44530057D01*
X89960588Y-44530057D02*
X90022492Y-44244342D01*
X90022492Y-44244342D02*
X90084397Y-44101485D01*
X90084397Y-44101485D02*
X90146302Y-44030057D01*
X90146302Y-44030057D02*
X90270111Y-43958628D01*
X91198683Y-44101485D02*
X91260587Y-44030057D01*
X91260587Y-44030057D02*
X91384397Y-43958628D01*
X91384397Y-43958628D02*
X91693921Y-43958628D01*
X91693921Y-43958628D02*
X91817730Y-44030057D01*
X91817730Y-44030057D02*
X91879635Y-44101485D01*
X91879635Y-44101485D02*
X91941540Y-44244342D01*
X91941540Y-44244342D02*
X91941540Y-44387200D01*
X91941540Y-44387200D02*
X91879635Y-44601485D01*
X91879635Y-44601485D02*
X91136778Y-45458628D01*
X91136778Y-45458628D02*
X91941540Y-45458628D01*
X93055825Y-43958628D02*
X92808206Y-43958628D01*
X92808206Y-43958628D02*
X92684397Y-44030057D01*
X92684397Y-44030057D02*
X92622492Y-44101485D01*
X92622492Y-44101485D02*
X92498682Y-44315771D01*
X92498682Y-44315771D02*
X92436778Y-44601485D01*
X92436778Y-44601485D02*
X92436778Y-45172914D01*
X92436778Y-45172914D02*
X92498682Y-45315771D01*
X92498682Y-45315771D02*
X92560587Y-45387200D01*
X92560587Y-45387200D02*
X92684397Y-45458628D01*
X92684397Y-45458628D02*
X92932016Y-45458628D01*
X92932016Y-45458628D02*
X93055825Y-45387200D01*
X93055825Y-45387200D02*
X93117730Y-45315771D01*
X93117730Y-45315771D02*
X93179635Y-45172914D01*
X93179635Y-45172914D02*
X93179635Y-44815771D01*
X93179635Y-44815771D02*
X93117730Y-44672914D01*
X93117730Y-44672914D02*
X93055825Y-44601485D01*
X93055825Y-44601485D02*
X92932016Y-44530057D01*
X92932016Y-44530057D02*
X92684397Y-44530057D01*
X92684397Y-44530057D02*
X92560587Y-44601485D01*
X92560587Y-44601485D02*
X92498682Y-44672914D01*
X92498682Y-44672914D02*
X92436778Y-44815771D01*
X47289160Y-65265057D02*
X47336779Y-65217438D01*
X47336779Y-65217438D02*
X47432017Y-65169819D01*
X47432017Y-65169819D02*
X47670112Y-65169819D01*
X47670112Y-65169819D02*
X47765350Y-65217438D01*
X47765350Y-65217438D02*
X47812969Y-65265057D01*
X47812969Y-65265057D02*
X47860588Y-65360295D01*
X47860588Y-65360295D02*
X47860588Y-65455533D01*
X47860588Y-65455533D02*
X47812969Y-65598390D01*
X47812969Y-65598390D02*
X47241541Y-66169819D01*
X47241541Y-66169819D02*
X47860588Y-66169819D01*
X51691541Y-48219819D02*
X52310588Y-48219819D01*
X52310588Y-48219819D02*
X51977255Y-48600771D01*
X51977255Y-48600771D02*
X52120112Y-48600771D01*
X52120112Y-48600771D02*
X52215350Y-48648390D01*
X52215350Y-48648390D02*
X52262969Y-48696009D01*
X52262969Y-48696009D02*
X52310588Y-48791247D01*
X52310588Y-48791247D02*
X52310588Y-49029342D01*
X52310588Y-49029342D02*
X52262969Y-49124580D01*
X52262969Y-49124580D02*
X52215350Y-49172200D01*
X52215350Y-49172200D02*
X52120112Y-49219819D01*
X52120112Y-49219819D02*
X51834398Y-49219819D01*
X51834398Y-49219819D02*
X51739160Y-49172200D01*
X51739160Y-49172200D02*
X51691541Y-49124580D01*
X52739160Y-49124580D02*
X52786779Y-49172200D01*
X52786779Y-49172200D02*
X52739160Y-49219819D01*
X52739160Y-49219819D02*
X52691541Y-49172200D01*
X52691541Y-49172200D02*
X52739160Y-49124580D01*
X52739160Y-49124580D02*
X52739160Y-49219819D01*
D11*
X31627693Y-76772419D02*
X31056265Y-76772419D01*
X31341979Y-76772419D02*
X31341979Y-75772419D01*
X31341979Y-75772419D02*
X31246741Y-75915276D01*
X31246741Y-75915276D02*
X31151503Y-76010514D01*
X31151503Y-76010514D02*
X31056265Y-76058133D01*
D12*
X47744140Y-49070119D02*
X47172712Y-49070119D01*
X47458426Y-49070119D02*
X47458426Y-48070119D01*
X47458426Y-48070119D02*
X47363188Y-48212976D01*
X47363188Y-48212976D02*
X47267950Y-48308214D01*
X47267950Y-48308214D02*
X47172712Y-48355833D01*
X48172712Y-48974880D02*
X48220331Y-49022500D01*
X48220331Y-49022500D02*
X48172712Y-49070119D01*
X48172712Y-49070119D02*
X48125093Y-49022500D01*
X48125093Y-49022500D02*
X48172712Y-48974880D01*
X48172712Y-48974880D02*
X48172712Y-49070119D01*
D10*
X52765350Y-65503152D02*
X52765350Y-66169819D01*
X52527255Y-65122200D02*
X52289160Y-65836485D01*
X52289160Y-65836485D02*
X52908207Y-65836485D01*
D11*
X76127693Y-79597419D02*
X75556265Y-79597419D01*
X75841979Y-79597419D02*
X75841979Y-78597419D01*
X75841979Y-78597419D02*
X75746741Y-78740276D01*
X75746741Y-78740276D02*
X75651503Y-78835514D01*
X75651503Y-78835514D02*
X75556265Y-78883133D01*
X101174404Y-52637580D02*
X101174404Y-51828057D01*
X101174404Y-51828057D02*
X101126785Y-51732819D01*
X101126785Y-51732819D02*
X101079166Y-51685200D01*
X101079166Y-51685200D02*
X100983928Y-51637580D01*
X100983928Y-51637580D02*
X100793452Y-51637580D01*
X100793452Y-51637580D02*
X100698214Y-51685200D01*
X100698214Y-51685200D02*
X100650595Y-51732819D01*
X100650595Y-51732819D02*
X100602976Y-51828057D01*
X100602976Y-51828057D02*
X100602976Y-52637580D01*
X100174404Y-52542342D02*
X100126785Y-52589961D01*
X100126785Y-52589961D02*
X100031547Y-52637580D01*
X100031547Y-52637580D02*
X99793452Y-52637580D01*
X99793452Y-52637580D02*
X99698214Y-52589961D01*
X99698214Y-52589961D02*
X99650595Y-52542342D01*
X99650595Y-52542342D02*
X99602976Y-52447104D01*
X99602976Y-52447104D02*
X99602976Y-52351866D01*
X99602976Y-52351866D02*
X99650595Y-52209009D01*
X99650595Y-52209009D02*
X100222023Y-51637580D01*
X100222023Y-51637580D02*
X99602976Y-51637580D01*
D10*
X109904819Y-82042857D02*
X109428628Y-82376190D01*
X109904819Y-82614285D02*
X108904819Y-82614285D01*
X108904819Y-82614285D02*
X108904819Y-82233333D01*
X108904819Y-82233333D02*
X108952438Y-82138095D01*
X108952438Y-82138095D02*
X109000057Y-82090476D01*
X109000057Y-82090476D02*
X109095295Y-82042857D01*
X109095295Y-82042857D02*
X109238152Y-82042857D01*
X109238152Y-82042857D02*
X109333390Y-82090476D01*
X109333390Y-82090476D02*
X109381009Y-82138095D01*
X109381009Y-82138095D02*
X109428628Y-82233333D01*
X109428628Y-82233333D02*
X109428628Y-82614285D01*
X109000057Y-81661904D02*
X108952438Y-81614285D01*
X108952438Y-81614285D02*
X108904819Y-81519047D01*
X108904819Y-81519047D02*
X108904819Y-81280952D01*
X108904819Y-81280952D02*
X108952438Y-81185714D01*
X108952438Y-81185714D02*
X109000057Y-81138095D01*
X109000057Y-81138095D02*
X109095295Y-81090476D01*
X109095295Y-81090476D02*
X109190533Y-81090476D01*
X109190533Y-81090476D02*
X109333390Y-81138095D01*
X109333390Y-81138095D02*
X109904819Y-81709523D01*
X109904819Y-81709523D02*
X109904819Y-81090476D01*
X109333390Y-80519047D02*
X109285771Y-80614285D01*
X109285771Y-80614285D02*
X109238152Y-80661904D01*
X109238152Y-80661904D02*
X109142914Y-80709523D01*
X109142914Y-80709523D02*
X109095295Y-80709523D01*
X109095295Y-80709523D02*
X109000057Y-80661904D01*
X109000057Y-80661904D02*
X108952438Y-80614285D01*
X108952438Y-80614285D02*
X108904819Y-80519047D01*
X108904819Y-80519047D02*
X108904819Y-80328571D01*
X108904819Y-80328571D02*
X108952438Y-80233333D01*
X108952438Y-80233333D02*
X109000057Y-80185714D01*
X109000057Y-80185714D02*
X109095295Y-80138095D01*
X109095295Y-80138095D02*
X109142914Y-80138095D01*
X109142914Y-80138095D02*
X109238152Y-80185714D01*
X109238152Y-80185714D02*
X109285771Y-80233333D01*
X109285771Y-80233333D02*
X109333390Y-80328571D01*
X109333390Y-80328571D02*
X109333390Y-80519047D01*
X109333390Y-80519047D02*
X109381009Y-80614285D01*
X109381009Y-80614285D02*
X109428628Y-80661904D01*
X109428628Y-80661904D02*
X109523866Y-80709523D01*
X109523866Y-80709523D02*
X109714342Y-80709523D01*
X109714342Y-80709523D02*
X109809580Y-80661904D01*
X109809580Y-80661904D02*
X109857200Y-80614285D01*
X109857200Y-80614285D02*
X109904819Y-80519047D01*
X109904819Y-80519047D02*
X109904819Y-80328571D01*
X109904819Y-80328571D02*
X109857200Y-80233333D01*
X109857200Y-80233333D02*
X109809580Y-80185714D01*
X109809580Y-80185714D02*
X109714342Y-80138095D01*
X109714342Y-80138095D02*
X109523866Y-80138095D01*
X109523866Y-80138095D02*
X109428628Y-80185714D01*
X109428628Y-80185714D02*
X109381009Y-80233333D01*
X109381009Y-80233333D02*
X109333390Y-80328571D01*
X106404819Y-82042857D02*
X105928628Y-82376190D01*
X106404819Y-82614285D02*
X105404819Y-82614285D01*
X105404819Y-82614285D02*
X105404819Y-82233333D01*
X105404819Y-82233333D02*
X105452438Y-82138095D01*
X105452438Y-82138095D02*
X105500057Y-82090476D01*
X105500057Y-82090476D02*
X105595295Y-82042857D01*
X105595295Y-82042857D02*
X105738152Y-82042857D01*
X105738152Y-82042857D02*
X105833390Y-82090476D01*
X105833390Y-82090476D02*
X105881009Y-82138095D01*
X105881009Y-82138095D02*
X105928628Y-82233333D01*
X105928628Y-82233333D02*
X105928628Y-82614285D01*
X105404819Y-81709523D02*
X105404819Y-81090476D01*
X105404819Y-81090476D02*
X105785771Y-81423809D01*
X105785771Y-81423809D02*
X105785771Y-81280952D01*
X105785771Y-81280952D02*
X105833390Y-81185714D01*
X105833390Y-81185714D02*
X105881009Y-81138095D01*
X105881009Y-81138095D02*
X105976247Y-81090476D01*
X105976247Y-81090476D02*
X106214342Y-81090476D01*
X106214342Y-81090476D02*
X106309580Y-81138095D01*
X106309580Y-81138095D02*
X106357200Y-81185714D01*
X106357200Y-81185714D02*
X106404819Y-81280952D01*
X106404819Y-81280952D02*
X106404819Y-81566666D01*
X106404819Y-81566666D02*
X106357200Y-81661904D01*
X106357200Y-81661904D02*
X106309580Y-81709523D01*
X105500057Y-80709523D02*
X105452438Y-80661904D01*
X105452438Y-80661904D02*
X105404819Y-80566666D01*
X105404819Y-80566666D02*
X105404819Y-80328571D01*
X105404819Y-80328571D02*
X105452438Y-80233333D01*
X105452438Y-80233333D02*
X105500057Y-80185714D01*
X105500057Y-80185714D02*
X105595295Y-80138095D01*
X105595295Y-80138095D02*
X105690533Y-80138095D01*
X105690533Y-80138095D02*
X105833390Y-80185714D01*
X105833390Y-80185714D02*
X106404819Y-80757142D01*
X106404819Y-80757142D02*
X106404819Y-80138095D01*
X96857142Y-45554819D02*
X96523809Y-45078628D01*
X96285714Y-45554819D02*
X96285714Y-44554819D01*
X96285714Y-44554819D02*
X96666666Y-44554819D01*
X96666666Y-44554819D02*
X96761904Y-44602438D01*
X96761904Y-44602438D02*
X96809523Y-44650057D01*
X96809523Y-44650057D02*
X96857142Y-44745295D01*
X96857142Y-44745295D02*
X96857142Y-44888152D01*
X96857142Y-44888152D02*
X96809523Y-44983390D01*
X96809523Y-44983390D02*
X96761904Y-45031009D01*
X96761904Y-45031009D02*
X96666666Y-45078628D01*
X96666666Y-45078628D02*
X96285714Y-45078628D01*
X97809523Y-45554819D02*
X97238095Y-45554819D01*
X97523809Y-45554819D02*
X97523809Y-44554819D01*
X97523809Y-44554819D02*
X97428571Y-44697676D01*
X97428571Y-44697676D02*
X97333333Y-44792914D01*
X97333333Y-44792914D02*
X97238095Y-44840533D01*
X98761904Y-45554819D02*
X98190476Y-45554819D01*
X98476190Y-45554819D02*
X98476190Y-44554819D01*
X98476190Y-44554819D02*
X98380952Y-44697676D01*
X98380952Y-44697676D02*
X98285714Y-44792914D01*
X98285714Y-44792914D02*
X98190476Y-44840533D01*
X87083333Y-48804819D02*
X86750000Y-48328628D01*
X86511905Y-48804819D02*
X86511905Y-47804819D01*
X86511905Y-47804819D02*
X86892857Y-47804819D01*
X86892857Y-47804819D02*
X86988095Y-47852438D01*
X86988095Y-47852438D02*
X87035714Y-47900057D01*
X87035714Y-47900057D02*
X87083333Y-47995295D01*
X87083333Y-47995295D02*
X87083333Y-48138152D01*
X87083333Y-48138152D02*
X87035714Y-48233390D01*
X87035714Y-48233390D02*
X86988095Y-48281009D01*
X86988095Y-48281009D02*
X86892857Y-48328628D01*
X86892857Y-48328628D02*
X86511905Y-48328628D01*
X87559524Y-48804819D02*
X87750000Y-48804819D01*
X87750000Y-48804819D02*
X87845238Y-48757200D01*
X87845238Y-48757200D02*
X87892857Y-48709580D01*
X87892857Y-48709580D02*
X87988095Y-48566723D01*
X87988095Y-48566723D02*
X88035714Y-48376247D01*
X88035714Y-48376247D02*
X88035714Y-47995295D01*
X88035714Y-47995295D02*
X87988095Y-47900057D01*
X87988095Y-47900057D02*
X87940476Y-47852438D01*
X87940476Y-47852438D02*
X87845238Y-47804819D01*
X87845238Y-47804819D02*
X87654762Y-47804819D01*
X87654762Y-47804819D02*
X87559524Y-47852438D01*
X87559524Y-47852438D02*
X87511905Y-47900057D01*
X87511905Y-47900057D02*
X87464286Y-47995295D01*
X87464286Y-47995295D02*
X87464286Y-48233390D01*
X87464286Y-48233390D02*
X87511905Y-48328628D01*
X87511905Y-48328628D02*
X87559524Y-48376247D01*
X87559524Y-48376247D02*
X87654762Y-48423866D01*
X87654762Y-48423866D02*
X87845238Y-48423866D01*
X87845238Y-48423866D02*
X87940476Y-48376247D01*
X87940476Y-48376247D02*
X87988095Y-48328628D01*
X87988095Y-48328628D02*
X88035714Y-48233390D01*
X119539580Y-51892857D02*
X119587200Y-51940476D01*
X119587200Y-51940476D02*
X119634819Y-52083333D01*
X119634819Y-52083333D02*
X119634819Y-52178571D01*
X119634819Y-52178571D02*
X119587200Y-52321428D01*
X119587200Y-52321428D02*
X119491961Y-52416666D01*
X119491961Y-52416666D02*
X119396723Y-52464285D01*
X119396723Y-52464285D02*
X119206247Y-52511904D01*
X119206247Y-52511904D02*
X119063390Y-52511904D01*
X119063390Y-52511904D02*
X118872914Y-52464285D01*
X118872914Y-52464285D02*
X118777676Y-52416666D01*
X118777676Y-52416666D02*
X118682438Y-52321428D01*
X118682438Y-52321428D02*
X118634819Y-52178571D01*
X118634819Y-52178571D02*
X118634819Y-52083333D01*
X118634819Y-52083333D02*
X118682438Y-51940476D01*
X118682438Y-51940476D02*
X118730057Y-51892857D01*
X119634819Y-50940476D02*
X119634819Y-51511904D01*
X119634819Y-51226190D02*
X118634819Y-51226190D01*
X118634819Y-51226190D02*
X118777676Y-51321428D01*
X118777676Y-51321428D02*
X118872914Y-51416666D01*
X118872914Y-51416666D02*
X118920533Y-51511904D01*
X118730057Y-50559523D02*
X118682438Y-50511904D01*
X118682438Y-50511904D02*
X118634819Y-50416666D01*
X118634819Y-50416666D02*
X118634819Y-50178571D01*
X118634819Y-50178571D02*
X118682438Y-50083333D01*
X118682438Y-50083333D02*
X118730057Y-50035714D01*
X118730057Y-50035714D02*
X118825295Y-49988095D01*
X118825295Y-49988095D02*
X118920533Y-49988095D01*
X118920533Y-49988095D02*
X119063390Y-50035714D01*
X119063390Y-50035714D02*
X119634819Y-50607142D01*
X119634819Y-50607142D02*
X119634819Y-49988095D01*
X85657142Y-60179580D02*
X85609523Y-60227200D01*
X85609523Y-60227200D02*
X85466666Y-60274819D01*
X85466666Y-60274819D02*
X85371428Y-60274819D01*
X85371428Y-60274819D02*
X85228571Y-60227200D01*
X85228571Y-60227200D02*
X85133333Y-60131961D01*
X85133333Y-60131961D02*
X85085714Y-60036723D01*
X85085714Y-60036723D02*
X85038095Y-59846247D01*
X85038095Y-59846247D02*
X85038095Y-59703390D01*
X85038095Y-59703390D02*
X85085714Y-59512914D01*
X85085714Y-59512914D02*
X85133333Y-59417676D01*
X85133333Y-59417676D02*
X85228571Y-59322438D01*
X85228571Y-59322438D02*
X85371428Y-59274819D01*
X85371428Y-59274819D02*
X85466666Y-59274819D01*
X85466666Y-59274819D02*
X85609523Y-59322438D01*
X85609523Y-59322438D02*
X85657142Y-59370057D01*
X86609523Y-60274819D02*
X86038095Y-60274819D01*
X86323809Y-60274819D02*
X86323809Y-59274819D01*
X86323809Y-59274819D02*
X86228571Y-59417676D01*
X86228571Y-59417676D02*
X86133333Y-59512914D01*
X86133333Y-59512914D02*
X86038095Y-59560533D01*
X87466666Y-59608152D02*
X87466666Y-60274819D01*
X87228571Y-59227200D02*
X86990476Y-59941485D01*
X86990476Y-59941485D02*
X87609523Y-59941485D01*
X44647080Y-78416666D02*
X44694700Y-78464285D01*
X44694700Y-78464285D02*
X44742319Y-78607142D01*
X44742319Y-78607142D02*
X44742319Y-78702380D01*
X44742319Y-78702380D02*
X44694700Y-78845237D01*
X44694700Y-78845237D02*
X44599461Y-78940475D01*
X44599461Y-78940475D02*
X44504223Y-78988094D01*
X44504223Y-78988094D02*
X44313747Y-79035713D01*
X44313747Y-79035713D02*
X44170890Y-79035713D01*
X44170890Y-79035713D02*
X43980414Y-78988094D01*
X43980414Y-78988094D02*
X43885176Y-78940475D01*
X43885176Y-78940475D02*
X43789938Y-78845237D01*
X43789938Y-78845237D02*
X43742319Y-78702380D01*
X43742319Y-78702380D02*
X43742319Y-78607142D01*
X43742319Y-78607142D02*
X43789938Y-78464285D01*
X43789938Y-78464285D02*
X43837557Y-78416666D01*
X43837557Y-78035713D02*
X43789938Y-77988094D01*
X43789938Y-77988094D02*
X43742319Y-77892856D01*
X43742319Y-77892856D02*
X43742319Y-77654761D01*
X43742319Y-77654761D02*
X43789938Y-77559523D01*
X43789938Y-77559523D02*
X43837557Y-77511904D01*
X43837557Y-77511904D02*
X43932795Y-77464285D01*
X43932795Y-77464285D02*
X44028033Y-77464285D01*
X44028033Y-77464285D02*
X44170890Y-77511904D01*
X44170890Y-77511904D02*
X44742319Y-78083332D01*
X44742319Y-78083332D02*
X44742319Y-77464285D01*
X91857142Y-60954819D02*
X91523809Y-60478628D01*
X91285714Y-60954819D02*
X91285714Y-59954819D01*
X91285714Y-59954819D02*
X91666666Y-59954819D01*
X91666666Y-59954819D02*
X91761904Y-60002438D01*
X91761904Y-60002438D02*
X91809523Y-60050057D01*
X91809523Y-60050057D02*
X91857142Y-60145295D01*
X91857142Y-60145295D02*
X91857142Y-60288152D01*
X91857142Y-60288152D02*
X91809523Y-60383390D01*
X91809523Y-60383390D02*
X91761904Y-60431009D01*
X91761904Y-60431009D02*
X91666666Y-60478628D01*
X91666666Y-60478628D02*
X91285714Y-60478628D01*
X92809523Y-60954819D02*
X92238095Y-60954819D01*
X92523809Y-60954819D02*
X92523809Y-59954819D01*
X92523809Y-59954819D02*
X92428571Y-60097676D01*
X92428571Y-60097676D02*
X92333333Y-60192914D01*
X92333333Y-60192914D02*
X92238095Y-60240533D01*
X93714285Y-59954819D02*
X93238095Y-59954819D01*
X93238095Y-59954819D02*
X93190476Y-60431009D01*
X93190476Y-60431009D02*
X93238095Y-60383390D01*
X93238095Y-60383390D02*
X93333333Y-60335771D01*
X93333333Y-60335771D02*
X93571428Y-60335771D01*
X93571428Y-60335771D02*
X93666666Y-60383390D01*
X93666666Y-60383390D02*
X93714285Y-60431009D01*
X93714285Y-60431009D02*
X93761904Y-60526247D01*
X93761904Y-60526247D02*
X93761904Y-60764342D01*
X93761904Y-60764342D02*
X93714285Y-60859580D01*
X93714285Y-60859580D02*
X93666666Y-60907200D01*
X93666666Y-60907200D02*
X93571428Y-60954819D01*
X93571428Y-60954819D02*
X93333333Y-60954819D01*
X93333333Y-60954819D02*
X93238095Y-60907200D01*
X93238095Y-60907200D02*
X93190476Y-60859580D01*
X64433333Y-61859580D02*
X64385714Y-61907200D01*
X64385714Y-61907200D02*
X64242857Y-61954819D01*
X64242857Y-61954819D02*
X64147619Y-61954819D01*
X64147619Y-61954819D02*
X64004762Y-61907200D01*
X64004762Y-61907200D02*
X63909524Y-61811961D01*
X63909524Y-61811961D02*
X63861905Y-61716723D01*
X63861905Y-61716723D02*
X63814286Y-61526247D01*
X63814286Y-61526247D02*
X63814286Y-61383390D01*
X63814286Y-61383390D02*
X63861905Y-61192914D01*
X63861905Y-61192914D02*
X63909524Y-61097676D01*
X63909524Y-61097676D02*
X64004762Y-61002438D01*
X64004762Y-61002438D02*
X64147619Y-60954819D01*
X64147619Y-60954819D02*
X64242857Y-60954819D01*
X64242857Y-60954819D02*
X64385714Y-61002438D01*
X64385714Y-61002438D02*
X64433333Y-61050057D01*
X64909524Y-61954819D02*
X65100000Y-61954819D01*
X65100000Y-61954819D02*
X65195238Y-61907200D01*
X65195238Y-61907200D02*
X65242857Y-61859580D01*
X65242857Y-61859580D02*
X65338095Y-61716723D01*
X65338095Y-61716723D02*
X65385714Y-61526247D01*
X65385714Y-61526247D02*
X65385714Y-61145295D01*
X65385714Y-61145295D02*
X65338095Y-61050057D01*
X65338095Y-61050057D02*
X65290476Y-61002438D01*
X65290476Y-61002438D02*
X65195238Y-60954819D01*
X65195238Y-60954819D02*
X65004762Y-60954819D01*
X65004762Y-60954819D02*
X64909524Y-61002438D01*
X64909524Y-61002438D02*
X64861905Y-61050057D01*
X64861905Y-61050057D02*
X64814286Y-61145295D01*
X64814286Y-61145295D02*
X64814286Y-61383390D01*
X64814286Y-61383390D02*
X64861905Y-61478628D01*
X64861905Y-61478628D02*
X64909524Y-61526247D01*
X64909524Y-61526247D02*
X65004762Y-61573866D01*
X65004762Y-61573866D02*
X65195238Y-61573866D01*
X65195238Y-61573866D02*
X65290476Y-61526247D01*
X65290476Y-61526247D02*
X65338095Y-61478628D01*
X65338095Y-61478628D02*
X65385714Y-61383390D01*
X33166666Y-78264819D02*
X33166666Y-78979104D01*
X33166666Y-78979104D02*
X33119047Y-79121961D01*
X33119047Y-79121961D02*
X33023809Y-79217200D01*
X33023809Y-79217200D02*
X32880952Y-79264819D01*
X32880952Y-79264819D02*
X32785714Y-79264819D01*
X33547619Y-78264819D02*
X34166666Y-78264819D01*
X34166666Y-78264819D02*
X33833333Y-78645771D01*
X33833333Y-78645771D02*
X33976190Y-78645771D01*
X33976190Y-78645771D02*
X34071428Y-78693390D01*
X34071428Y-78693390D02*
X34119047Y-78741009D01*
X34119047Y-78741009D02*
X34166666Y-78836247D01*
X34166666Y-78836247D02*
X34166666Y-79074342D01*
X34166666Y-79074342D02*
X34119047Y-79169580D01*
X34119047Y-79169580D02*
X34071428Y-79217200D01*
X34071428Y-79217200D02*
X33976190Y-79264819D01*
X33976190Y-79264819D02*
X33690476Y-79264819D01*
X33690476Y-79264819D02*
X33595238Y-79217200D01*
X33595238Y-79217200D02*
X33547619Y-79169580D01*
X50804761Y-82400057D02*
X50709523Y-82352438D01*
X50709523Y-82352438D02*
X50614285Y-82257200D01*
X50614285Y-82257200D02*
X50471428Y-82114342D01*
X50471428Y-82114342D02*
X50376190Y-82066723D01*
X50376190Y-82066723D02*
X50280952Y-82066723D01*
X50328571Y-82304819D02*
X50233333Y-82257200D01*
X50233333Y-82257200D02*
X50138095Y-82161961D01*
X50138095Y-82161961D02*
X50090476Y-81971485D01*
X50090476Y-81971485D02*
X50090476Y-81638152D01*
X50090476Y-81638152D02*
X50138095Y-81447676D01*
X50138095Y-81447676D02*
X50233333Y-81352438D01*
X50233333Y-81352438D02*
X50328571Y-81304819D01*
X50328571Y-81304819D02*
X50519047Y-81304819D01*
X50519047Y-81304819D02*
X50614285Y-81352438D01*
X50614285Y-81352438D02*
X50709523Y-81447676D01*
X50709523Y-81447676D02*
X50757142Y-81638152D01*
X50757142Y-81638152D02*
X50757142Y-81971485D01*
X50757142Y-81971485D02*
X50709523Y-82161961D01*
X50709523Y-82161961D02*
X50614285Y-82257200D01*
X50614285Y-82257200D02*
X50519047Y-82304819D01*
X50519047Y-82304819D02*
X50328571Y-82304819D01*
X51709523Y-82304819D02*
X51138095Y-82304819D01*
X51423809Y-82304819D02*
X51423809Y-81304819D01*
X51423809Y-81304819D02*
X51328571Y-81447676D01*
X51328571Y-81447676D02*
X51233333Y-81542914D01*
X51233333Y-81542914D02*
X51138095Y-81590533D01*
X109054819Y-63142857D02*
X108578628Y-63476190D01*
X109054819Y-63714285D02*
X108054819Y-63714285D01*
X108054819Y-63714285D02*
X108054819Y-63333333D01*
X108054819Y-63333333D02*
X108102438Y-63238095D01*
X108102438Y-63238095D02*
X108150057Y-63190476D01*
X108150057Y-63190476D02*
X108245295Y-63142857D01*
X108245295Y-63142857D02*
X108388152Y-63142857D01*
X108388152Y-63142857D02*
X108483390Y-63190476D01*
X108483390Y-63190476D02*
X108531009Y-63238095D01*
X108531009Y-63238095D02*
X108578628Y-63333333D01*
X108578628Y-63333333D02*
X108578628Y-63714285D01*
X108150057Y-62761904D02*
X108102438Y-62714285D01*
X108102438Y-62714285D02*
X108054819Y-62619047D01*
X108054819Y-62619047D02*
X108054819Y-62380952D01*
X108054819Y-62380952D02*
X108102438Y-62285714D01*
X108102438Y-62285714D02*
X108150057Y-62238095D01*
X108150057Y-62238095D02*
X108245295Y-62190476D01*
X108245295Y-62190476D02*
X108340533Y-62190476D01*
X108340533Y-62190476D02*
X108483390Y-62238095D01*
X108483390Y-62238095D02*
X109054819Y-62809523D01*
X109054819Y-62809523D02*
X109054819Y-62190476D01*
X108054819Y-61857142D02*
X108054819Y-61190476D01*
X108054819Y-61190476D02*
X109054819Y-61619047D01*
X102607142Y-45429580D02*
X102559523Y-45477200D01*
X102559523Y-45477200D02*
X102416666Y-45524819D01*
X102416666Y-45524819D02*
X102321428Y-45524819D01*
X102321428Y-45524819D02*
X102178571Y-45477200D01*
X102178571Y-45477200D02*
X102083333Y-45381961D01*
X102083333Y-45381961D02*
X102035714Y-45286723D01*
X102035714Y-45286723D02*
X101988095Y-45096247D01*
X101988095Y-45096247D02*
X101988095Y-44953390D01*
X101988095Y-44953390D02*
X102035714Y-44762914D01*
X102035714Y-44762914D02*
X102083333Y-44667676D01*
X102083333Y-44667676D02*
X102178571Y-44572438D01*
X102178571Y-44572438D02*
X102321428Y-44524819D01*
X102321428Y-44524819D02*
X102416666Y-44524819D01*
X102416666Y-44524819D02*
X102559523Y-44572438D01*
X102559523Y-44572438D02*
X102607142Y-44620057D01*
X103559523Y-45524819D02*
X102988095Y-45524819D01*
X103273809Y-45524819D02*
X103273809Y-44524819D01*
X103273809Y-44524819D02*
X103178571Y-44667676D01*
X103178571Y-44667676D02*
X103083333Y-44762914D01*
X103083333Y-44762914D02*
X102988095Y-44810533D01*
X104178571Y-44524819D02*
X104273809Y-44524819D01*
X104273809Y-44524819D02*
X104369047Y-44572438D01*
X104369047Y-44572438D02*
X104416666Y-44620057D01*
X104416666Y-44620057D02*
X104464285Y-44715295D01*
X104464285Y-44715295D02*
X104511904Y-44905771D01*
X104511904Y-44905771D02*
X104511904Y-45143866D01*
X104511904Y-45143866D02*
X104464285Y-45334342D01*
X104464285Y-45334342D02*
X104416666Y-45429580D01*
X104416666Y-45429580D02*
X104369047Y-45477200D01*
X104369047Y-45477200D02*
X104273809Y-45524819D01*
X104273809Y-45524819D02*
X104178571Y-45524819D01*
X104178571Y-45524819D02*
X104083333Y-45477200D01*
X104083333Y-45477200D02*
X104035714Y-45429580D01*
X104035714Y-45429580D02*
X103988095Y-45334342D01*
X103988095Y-45334342D02*
X103940476Y-45143866D01*
X103940476Y-45143866D02*
X103940476Y-44905771D01*
X103940476Y-44905771D02*
X103988095Y-44715295D01*
X103988095Y-44715295D02*
X104035714Y-44620057D01*
X104035714Y-44620057D02*
X104083333Y-44572438D01*
X104083333Y-44572438D02*
X104178571Y-44524819D01*
X53583333Y-72929580D02*
X53535714Y-72977200D01*
X53535714Y-72977200D02*
X53392857Y-73024819D01*
X53392857Y-73024819D02*
X53297619Y-73024819D01*
X53297619Y-73024819D02*
X53154762Y-72977200D01*
X53154762Y-72977200D02*
X53059524Y-72881961D01*
X53059524Y-72881961D02*
X53011905Y-72786723D01*
X53011905Y-72786723D02*
X52964286Y-72596247D01*
X52964286Y-72596247D02*
X52964286Y-72453390D01*
X52964286Y-72453390D02*
X53011905Y-72262914D01*
X53011905Y-72262914D02*
X53059524Y-72167676D01*
X53059524Y-72167676D02*
X53154762Y-72072438D01*
X53154762Y-72072438D02*
X53297619Y-72024819D01*
X53297619Y-72024819D02*
X53392857Y-72024819D01*
X53392857Y-72024819D02*
X53535714Y-72072438D01*
X53535714Y-72072438D02*
X53583333Y-72120057D01*
X54440476Y-72358152D02*
X54440476Y-73024819D01*
X54202381Y-71977200D02*
X53964286Y-72691485D01*
X53964286Y-72691485D02*
X54583333Y-72691485D01*
X62476190Y-55954819D02*
X63142856Y-56954819D01*
X63142856Y-55954819D02*
X62476190Y-56954819D01*
X63380952Y-55954819D02*
X63952380Y-55954819D01*
X63666666Y-56954819D02*
X63666666Y-55954819D01*
X64238095Y-56669104D02*
X64714285Y-56669104D01*
X64142857Y-56954819D02*
X64476190Y-55954819D01*
X64476190Y-55954819D02*
X64809523Y-56954819D01*
X65619047Y-56954819D02*
X65142857Y-56954819D01*
X65142857Y-56954819D02*
X65142857Y-55954819D01*
X66476190Y-56954819D02*
X65904762Y-56954819D01*
X66190476Y-56954819D02*
X66190476Y-55954819D01*
X66190476Y-55954819D02*
X66095238Y-56097676D01*
X66095238Y-56097676D02*
X66000000Y-56192914D01*
X66000000Y-56192914D02*
X65904762Y-56240533D01*
X73857142Y-59859580D02*
X73809523Y-59907200D01*
X73809523Y-59907200D02*
X73666666Y-59954819D01*
X73666666Y-59954819D02*
X73571428Y-59954819D01*
X73571428Y-59954819D02*
X73428571Y-59907200D01*
X73428571Y-59907200D02*
X73333333Y-59811961D01*
X73333333Y-59811961D02*
X73285714Y-59716723D01*
X73285714Y-59716723D02*
X73238095Y-59526247D01*
X73238095Y-59526247D02*
X73238095Y-59383390D01*
X73238095Y-59383390D02*
X73285714Y-59192914D01*
X73285714Y-59192914D02*
X73333333Y-59097676D01*
X73333333Y-59097676D02*
X73428571Y-59002438D01*
X73428571Y-59002438D02*
X73571428Y-58954819D01*
X73571428Y-58954819D02*
X73666666Y-58954819D01*
X73666666Y-58954819D02*
X73809523Y-59002438D01*
X73809523Y-59002438D02*
X73857142Y-59050057D01*
X74238095Y-59050057D02*
X74285714Y-59002438D01*
X74285714Y-59002438D02*
X74380952Y-58954819D01*
X74380952Y-58954819D02*
X74619047Y-58954819D01*
X74619047Y-58954819D02*
X74714285Y-59002438D01*
X74714285Y-59002438D02*
X74761904Y-59050057D01*
X74761904Y-59050057D02*
X74809523Y-59145295D01*
X74809523Y-59145295D02*
X74809523Y-59240533D01*
X74809523Y-59240533D02*
X74761904Y-59383390D01*
X74761904Y-59383390D02*
X74190476Y-59954819D01*
X74190476Y-59954819D02*
X74809523Y-59954819D01*
X75428571Y-58954819D02*
X75523809Y-58954819D01*
X75523809Y-58954819D02*
X75619047Y-59002438D01*
X75619047Y-59002438D02*
X75666666Y-59050057D01*
X75666666Y-59050057D02*
X75714285Y-59145295D01*
X75714285Y-59145295D02*
X75761904Y-59335771D01*
X75761904Y-59335771D02*
X75761904Y-59573866D01*
X75761904Y-59573866D02*
X75714285Y-59764342D01*
X75714285Y-59764342D02*
X75666666Y-59859580D01*
X75666666Y-59859580D02*
X75619047Y-59907200D01*
X75619047Y-59907200D02*
X75523809Y-59954819D01*
X75523809Y-59954819D02*
X75428571Y-59954819D01*
X75428571Y-59954819D02*
X75333333Y-59907200D01*
X75333333Y-59907200D02*
X75285714Y-59859580D01*
X75285714Y-59859580D02*
X75238095Y-59764342D01*
X75238095Y-59764342D02*
X75190476Y-59573866D01*
X75190476Y-59573866D02*
X75190476Y-59335771D01*
X75190476Y-59335771D02*
X75238095Y-59145295D01*
X75238095Y-59145295D02*
X75285714Y-59050057D01*
X75285714Y-59050057D02*
X75333333Y-59002438D01*
X75333333Y-59002438D02*
X75428571Y-58954819D01*
X106859580Y-53892857D02*
X106907200Y-53940476D01*
X106907200Y-53940476D02*
X106954819Y-54083333D01*
X106954819Y-54083333D02*
X106954819Y-54178571D01*
X106954819Y-54178571D02*
X106907200Y-54321428D01*
X106907200Y-54321428D02*
X106811961Y-54416666D01*
X106811961Y-54416666D02*
X106716723Y-54464285D01*
X106716723Y-54464285D02*
X106526247Y-54511904D01*
X106526247Y-54511904D02*
X106383390Y-54511904D01*
X106383390Y-54511904D02*
X106192914Y-54464285D01*
X106192914Y-54464285D02*
X106097676Y-54416666D01*
X106097676Y-54416666D02*
X106002438Y-54321428D01*
X106002438Y-54321428D02*
X105954819Y-54178571D01*
X105954819Y-54178571D02*
X105954819Y-54083333D01*
X105954819Y-54083333D02*
X106002438Y-53940476D01*
X106002438Y-53940476D02*
X106050057Y-53892857D01*
X106954819Y-52940476D02*
X106954819Y-53511904D01*
X106954819Y-53226190D02*
X105954819Y-53226190D01*
X105954819Y-53226190D02*
X106097676Y-53321428D01*
X106097676Y-53321428D02*
X106192914Y-53416666D01*
X106192914Y-53416666D02*
X106240533Y-53511904D01*
X106954819Y-51988095D02*
X106954819Y-52559523D01*
X106954819Y-52273809D02*
X105954819Y-52273809D01*
X105954819Y-52273809D02*
X106097676Y-52369047D01*
X106097676Y-52369047D02*
X106192914Y-52464285D01*
X106192914Y-52464285D02*
X106240533Y-52559523D01*
X110659580Y-52342857D02*
X110707200Y-52390476D01*
X110707200Y-52390476D02*
X110754819Y-52533333D01*
X110754819Y-52533333D02*
X110754819Y-52628571D01*
X110754819Y-52628571D02*
X110707200Y-52771428D01*
X110707200Y-52771428D02*
X110611961Y-52866666D01*
X110611961Y-52866666D02*
X110516723Y-52914285D01*
X110516723Y-52914285D02*
X110326247Y-52961904D01*
X110326247Y-52961904D02*
X110183390Y-52961904D01*
X110183390Y-52961904D02*
X109992914Y-52914285D01*
X109992914Y-52914285D02*
X109897676Y-52866666D01*
X109897676Y-52866666D02*
X109802438Y-52771428D01*
X109802438Y-52771428D02*
X109754819Y-52628571D01*
X109754819Y-52628571D02*
X109754819Y-52533333D01*
X109754819Y-52533333D02*
X109802438Y-52390476D01*
X109802438Y-52390476D02*
X109850057Y-52342857D01*
X110754819Y-51390476D02*
X110754819Y-51961904D01*
X110754819Y-51676190D02*
X109754819Y-51676190D01*
X109754819Y-51676190D02*
X109897676Y-51771428D01*
X109897676Y-51771428D02*
X109992914Y-51866666D01*
X109992914Y-51866666D02*
X110040533Y-51961904D01*
X109754819Y-51057142D02*
X109754819Y-50438095D01*
X109754819Y-50438095D02*
X110135771Y-50771428D01*
X110135771Y-50771428D02*
X110135771Y-50628571D01*
X110135771Y-50628571D02*
X110183390Y-50533333D01*
X110183390Y-50533333D02*
X110231009Y-50485714D01*
X110231009Y-50485714D02*
X110326247Y-50438095D01*
X110326247Y-50438095D02*
X110564342Y-50438095D01*
X110564342Y-50438095D02*
X110659580Y-50485714D01*
X110659580Y-50485714D02*
X110707200Y-50533333D01*
X110707200Y-50533333D02*
X110754819Y-50628571D01*
X110754819Y-50628571D02*
X110754819Y-50914285D01*
X110754819Y-50914285D02*
X110707200Y-51009523D01*
X110707200Y-51009523D02*
X110659580Y-51057142D01*
X63179580Y-72892857D02*
X63227200Y-72940476D01*
X63227200Y-72940476D02*
X63274819Y-73083333D01*
X63274819Y-73083333D02*
X63274819Y-73178571D01*
X63274819Y-73178571D02*
X63227200Y-73321428D01*
X63227200Y-73321428D02*
X63131961Y-73416666D01*
X63131961Y-73416666D02*
X63036723Y-73464285D01*
X63036723Y-73464285D02*
X62846247Y-73511904D01*
X62846247Y-73511904D02*
X62703390Y-73511904D01*
X62703390Y-73511904D02*
X62512914Y-73464285D01*
X62512914Y-73464285D02*
X62417676Y-73416666D01*
X62417676Y-73416666D02*
X62322438Y-73321428D01*
X62322438Y-73321428D02*
X62274819Y-73178571D01*
X62274819Y-73178571D02*
X62274819Y-73083333D01*
X62274819Y-73083333D02*
X62322438Y-72940476D01*
X62322438Y-72940476D02*
X62370057Y-72892857D01*
X63274819Y-71940476D02*
X63274819Y-72511904D01*
X63274819Y-72226190D02*
X62274819Y-72226190D01*
X62274819Y-72226190D02*
X62417676Y-72321428D01*
X62417676Y-72321428D02*
X62512914Y-72416666D01*
X62512914Y-72416666D02*
X62560533Y-72511904D01*
X62703390Y-71369047D02*
X62655771Y-71464285D01*
X62655771Y-71464285D02*
X62608152Y-71511904D01*
X62608152Y-71511904D02*
X62512914Y-71559523D01*
X62512914Y-71559523D02*
X62465295Y-71559523D01*
X62465295Y-71559523D02*
X62370057Y-71511904D01*
X62370057Y-71511904D02*
X62322438Y-71464285D01*
X62322438Y-71464285D02*
X62274819Y-71369047D01*
X62274819Y-71369047D02*
X62274819Y-71178571D01*
X62274819Y-71178571D02*
X62322438Y-71083333D01*
X62322438Y-71083333D02*
X62370057Y-71035714D01*
X62370057Y-71035714D02*
X62465295Y-70988095D01*
X62465295Y-70988095D02*
X62512914Y-70988095D01*
X62512914Y-70988095D02*
X62608152Y-71035714D01*
X62608152Y-71035714D02*
X62655771Y-71083333D01*
X62655771Y-71083333D02*
X62703390Y-71178571D01*
X62703390Y-71178571D02*
X62703390Y-71369047D01*
X62703390Y-71369047D02*
X62751009Y-71464285D01*
X62751009Y-71464285D02*
X62798628Y-71511904D01*
X62798628Y-71511904D02*
X62893866Y-71559523D01*
X62893866Y-71559523D02*
X63084342Y-71559523D01*
X63084342Y-71559523D02*
X63179580Y-71511904D01*
X63179580Y-71511904D02*
X63227200Y-71464285D01*
X63227200Y-71464285D02*
X63274819Y-71369047D01*
X63274819Y-71369047D02*
X63274819Y-71178571D01*
X63274819Y-71178571D02*
X63227200Y-71083333D01*
X63227200Y-71083333D02*
X63179580Y-71035714D01*
X63179580Y-71035714D02*
X63084342Y-70988095D01*
X63084342Y-70988095D02*
X62893866Y-70988095D01*
X62893866Y-70988095D02*
X62798628Y-71035714D01*
X62798628Y-71035714D02*
X62751009Y-71083333D01*
X62751009Y-71083333D02*
X62703390Y-71178571D01*
X77109580Y-77642857D02*
X77157200Y-77690476D01*
X77157200Y-77690476D02*
X77204819Y-77833333D01*
X77204819Y-77833333D02*
X77204819Y-77928571D01*
X77204819Y-77928571D02*
X77157200Y-78071428D01*
X77157200Y-78071428D02*
X77061961Y-78166666D01*
X77061961Y-78166666D02*
X76966723Y-78214285D01*
X76966723Y-78214285D02*
X76776247Y-78261904D01*
X76776247Y-78261904D02*
X76633390Y-78261904D01*
X76633390Y-78261904D02*
X76442914Y-78214285D01*
X76442914Y-78214285D02*
X76347676Y-78166666D01*
X76347676Y-78166666D02*
X76252438Y-78071428D01*
X76252438Y-78071428D02*
X76204819Y-77928571D01*
X76204819Y-77928571D02*
X76204819Y-77833333D01*
X76204819Y-77833333D02*
X76252438Y-77690476D01*
X76252438Y-77690476D02*
X76300057Y-77642857D01*
X77204819Y-76690476D02*
X77204819Y-77261904D01*
X77204819Y-76976190D02*
X76204819Y-76976190D01*
X76204819Y-76976190D02*
X76347676Y-77071428D01*
X76347676Y-77071428D02*
X76442914Y-77166666D01*
X76442914Y-77166666D02*
X76490533Y-77261904D01*
X76204819Y-75785714D02*
X76204819Y-76261904D01*
X76204819Y-76261904D02*
X76681009Y-76309523D01*
X76681009Y-76309523D02*
X76633390Y-76261904D01*
X76633390Y-76261904D02*
X76585771Y-76166666D01*
X76585771Y-76166666D02*
X76585771Y-75928571D01*
X76585771Y-75928571D02*
X76633390Y-75833333D01*
X76633390Y-75833333D02*
X76681009Y-75785714D01*
X76681009Y-75785714D02*
X76776247Y-75738095D01*
X76776247Y-75738095D02*
X77014342Y-75738095D01*
X77014342Y-75738095D02*
X77109580Y-75785714D01*
X77109580Y-75785714D02*
X77157200Y-75833333D01*
X77157200Y-75833333D02*
X77204819Y-75928571D01*
X77204819Y-75928571D02*
X77204819Y-76166666D01*
X77204819Y-76166666D02*
X77157200Y-76261904D01*
X77157200Y-76261904D02*
X77109580Y-76309523D01*
X48304819Y-78892857D02*
X47828628Y-79226190D01*
X48304819Y-79464285D02*
X47304819Y-79464285D01*
X47304819Y-79464285D02*
X47304819Y-79083333D01*
X47304819Y-79083333D02*
X47352438Y-78988095D01*
X47352438Y-78988095D02*
X47400057Y-78940476D01*
X47400057Y-78940476D02*
X47495295Y-78892857D01*
X47495295Y-78892857D02*
X47638152Y-78892857D01*
X47638152Y-78892857D02*
X47733390Y-78940476D01*
X47733390Y-78940476D02*
X47781009Y-78988095D01*
X47781009Y-78988095D02*
X47828628Y-79083333D01*
X47828628Y-79083333D02*
X47828628Y-79464285D01*
X48304819Y-77940476D02*
X48304819Y-78511904D01*
X48304819Y-78226190D02*
X47304819Y-78226190D01*
X47304819Y-78226190D02*
X47447676Y-78321428D01*
X47447676Y-78321428D02*
X47542914Y-78416666D01*
X47542914Y-78416666D02*
X47590533Y-78511904D01*
X47304819Y-77321428D02*
X47304819Y-77226190D01*
X47304819Y-77226190D02*
X47352438Y-77130952D01*
X47352438Y-77130952D02*
X47400057Y-77083333D01*
X47400057Y-77083333D02*
X47495295Y-77035714D01*
X47495295Y-77035714D02*
X47685771Y-76988095D01*
X47685771Y-76988095D02*
X47923866Y-76988095D01*
X47923866Y-76988095D02*
X48114342Y-77035714D01*
X48114342Y-77035714D02*
X48209580Y-77083333D01*
X48209580Y-77083333D02*
X48257200Y-77130952D01*
X48257200Y-77130952D02*
X48304819Y-77226190D01*
X48304819Y-77226190D02*
X48304819Y-77321428D01*
X48304819Y-77321428D02*
X48257200Y-77416666D01*
X48257200Y-77416666D02*
X48209580Y-77464285D01*
X48209580Y-77464285D02*
X48114342Y-77511904D01*
X48114342Y-77511904D02*
X47923866Y-77559523D01*
X47923866Y-77559523D02*
X47685771Y-77559523D01*
X47685771Y-77559523D02*
X47495295Y-77511904D01*
X47495295Y-77511904D02*
X47400057Y-77464285D01*
X47400057Y-77464285D02*
X47352438Y-77416666D01*
X47352438Y-77416666D02*
X47304819Y-77321428D01*
X53333333Y-69454819D02*
X53000000Y-68978628D01*
X52761905Y-69454819D02*
X52761905Y-68454819D01*
X52761905Y-68454819D02*
X53142857Y-68454819D01*
X53142857Y-68454819D02*
X53238095Y-68502438D01*
X53238095Y-68502438D02*
X53285714Y-68550057D01*
X53285714Y-68550057D02*
X53333333Y-68645295D01*
X53333333Y-68645295D02*
X53333333Y-68788152D01*
X53333333Y-68788152D02*
X53285714Y-68883390D01*
X53285714Y-68883390D02*
X53238095Y-68931009D01*
X53238095Y-68931009D02*
X53142857Y-68978628D01*
X53142857Y-68978628D02*
X52761905Y-68978628D01*
X53904762Y-68883390D02*
X53809524Y-68835771D01*
X53809524Y-68835771D02*
X53761905Y-68788152D01*
X53761905Y-68788152D02*
X53714286Y-68692914D01*
X53714286Y-68692914D02*
X53714286Y-68645295D01*
X53714286Y-68645295D02*
X53761905Y-68550057D01*
X53761905Y-68550057D02*
X53809524Y-68502438D01*
X53809524Y-68502438D02*
X53904762Y-68454819D01*
X53904762Y-68454819D02*
X54095238Y-68454819D01*
X54095238Y-68454819D02*
X54190476Y-68502438D01*
X54190476Y-68502438D02*
X54238095Y-68550057D01*
X54238095Y-68550057D02*
X54285714Y-68645295D01*
X54285714Y-68645295D02*
X54285714Y-68692914D01*
X54285714Y-68692914D02*
X54238095Y-68788152D01*
X54238095Y-68788152D02*
X54190476Y-68835771D01*
X54190476Y-68835771D02*
X54095238Y-68883390D01*
X54095238Y-68883390D02*
X53904762Y-68883390D01*
X53904762Y-68883390D02*
X53809524Y-68931009D01*
X53809524Y-68931009D02*
X53761905Y-68978628D01*
X53761905Y-68978628D02*
X53714286Y-69073866D01*
X53714286Y-69073866D02*
X53714286Y-69264342D01*
X53714286Y-69264342D02*
X53761905Y-69359580D01*
X53761905Y-69359580D02*
X53809524Y-69407200D01*
X53809524Y-69407200D02*
X53904762Y-69454819D01*
X53904762Y-69454819D02*
X54095238Y-69454819D01*
X54095238Y-69454819D02*
X54190476Y-69407200D01*
X54190476Y-69407200D02*
X54238095Y-69359580D01*
X54238095Y-69359580D02*
X54285714Y-69264342D01*
X54285714Y-69264342D02*
X54285714Y-69073866D01*
X54285714Y-69073866D02*
X54238095Y-68978628D01*
X54238095Y-68978628D02*
X54190476Y-68931009D01*
X54190476Y-68931009D02*
X54095238Y-68883390D01*
X91857142Y-66204819D02*
X91523809Y-65728628D01*
X91285714Y-66204819D02*
X91285714Y-65204819D01*
X91285714Y-65204819D02*
X91666666Y-65204819D01*
X91666666Y-65204819D02*
X91761904Y-65252438D01*
X91761904Y-65252438D02*
X91809523Y-65300057D01*
X91809523Y-65300057D02*
X91857142Y-65395295D01*
X91857142Y-65395295D02*
X91857142Y-65538152D01*
X91857142Y-65538152D02*
X91809523Y-65633390D01*
X91809523Y-65633390D02*
X91761904Y-65681009D01*
X91761904Y-65681009D02*
X91666666Y-65728628D01*
X91666666Y-65728628D02*
X91285714Y-65728628D01*
X92809523Y-66204819D02*
X92238095Y-66204819D01*
X92523809Y-66204819D02*
X92523809Y-65204819D01*
X92523809Y-65204819D02*
X92428571Y-65347676D01*
X92428571Y-65347676D02*
X92333333Y-65442914D01*
X92333333Y-65442914D02*
X92238095Y-65490533D01*
X93142857Y-65204819D02*
X93761904Y-65204819D01*
X93761904Y-65204819D02*
X93428571Y-65585771D01*
X93428571Y-65585771D02*
X93571428Y-65585771D01*
X93571428Y-65585771D02*
X93666666Y-65633390D01*
X93666666Y-65633390D02*
X93714285Y-65681009D01*
X93714285Y-65681009D02*
X93761904Y-65776247D01*
X93761904Y-65776247D02*
X93761904Y-66014342D01*
X93761904Y-66014342D02*
X93714285Y-66109580D01*
X93714285Y-66109580D02*
X93666666Y-66157200D01*
X93666666Y-66157200D02*
X93571428Y-66204819D01*
X93571428Y-66204819D02*
X93285714Y-66204819D01*
X93285714Y-66204819D02*
X93190476Y-66157200D01*
X93190476Y-66157200D02*
X93142857Y-66109580D01*
X64538095Y-67454819D02*
X64538095Y-68264342D01*
X64538095Y-68264342D02*
X64585714Y-68359580D01*
X64585714Y-68359580D02*
X64633333Y-68407200D01*
X64633333Y-68407200D02*
X64728571Y-68454819D01*
X64728571Y-68454819D02*
X64919047Y-68454819D01*
X64919047Y-68454819D02*
X65014285Y-68407200D01*
X65014285Y-68407200D02*
X65061904Y-68359580D01*
X65061904Y-68359580D02*
X65109523Y-68264342D01*
X65109523Y-68264342D02*
X65109523Y-67454819D01*
X65490476Y-67454819D02*
X66109523Y-67454819D01*
X66109523Y-67454819D02*
X65776190Y-67835771D01*
X65776190Y-67835771D02*
X65919047Y-67835771D01*
X65919047Y-67835771D02*
X66014285Y-67883390D01*
X66014285Y-67883390D02*
X66061904Y-67931009D01*
X66061904Y-67931009D02*
X66109523Y-68026247D01*
X66109523Y-68026247D02*
X66109523Y-68264342D01*
X66109523Y-68264342D02*
X66061904Y-68359580D01*
X66061904Y-68359580D02*
X66014285Y-68407200D01*
X66014285Y-68407200D02*
X65919047Y-68454819D01*
X65919047Y-68454819D02*
X65633333Y-68454819D01*
X65633333Y-68454819D02*
X65538095Y-68407200D01*
X65538095Y-68407200D02*
X65490476Y-68359580D01*
X92150057Y-81995238D02*
X92102438Y-82090476D01*
X92102438Y-82090476D02*
X92007200Y-82185714D01*
X92007200Y-82185714D02*
X91864342Y-82328571D01*
X91864342Y-82328571D02*
X91816723Y-82423809D01*
X91816723Y-82423809D02*
X91816723Y-82519047D01*
X92054819Y-82471428D02*
X92007200Y-82566666D01*
X92007200Y-82566666D02*
X91911961Y-82661904D01*
X91911961Y-82661904D02*
X91721485Y-82709523D01*
X91721485Y-82709523D02*
X91388152Y-82709523D01*
X91388152Y-82709523D02*
X91197676Y-82661904D01*
X91197676Y-82661904D02*
X91102438Y-82566666D01*
X91102438Y-82566666D02*
X91054819Y-82471428D01*
X91054819Y-82471428D02*
X91054819Y-82280952D01*
X91054819Y-82280952D02*
X91102438Y-82185714D01*
X91102438Y-82185714D02*
X91197676Y-82090476D01*
X91197676Y-82090476D02*
X91388152Y-82042857D01*
X91388152Y-82042857D02*
X91721485Y-82042857D01*
X91721485Y-82042857D02*
X91911961Y-82090476D01*
X91911961Y-82090476D02*
X92007200Y-82185714D01*
X92007200Y-82185714D02*
X92054819Y-82280952D01*
X92054819Y-82280952D02*
X92054819Y-82471428D01*
X91054819Y-81709523D02*
X91054819Y-81090476D01*
X91054819Y-81090476D02*
X91435771Y-81423809D01*
X91435771Y-81423809D02*
X91435771Y-81280952D01*
X91435771Y-81280952D02*
X91483390Y-81185714D01*
X91483390Y-81185714D02*
X91531009Y-81138095D01*
X91531009Y-81138095D02*
X91626247Y-81090476D01*
X91626247Y-81090476D02*
X91864342Y-81090476D01*
X91864342Y-81090476D02*
X91959580Y-81138095D01*
X91959580Y-81138095D02*
X92007200Y-81185714D01*
X92007200Y-81185714D02*
X92054819Y-81280952D01*
X92054819Y-81280952D02*
X92054819Y-81566666D01*
X92054819Y-81566666D02*
X92007200Y-81661904D01*
X92007200Y-81661904D02*
X91959580Y-81709523D01*
X105454819Y-63142857D02*
X104978628Y-63476190D01*
X105454819Y-63714285D02*
X104454819Y-63714285D01*
X104454819Y-63714285D02*
X104454819Y-63333333D01*
X104454819Y-63333333D02*
X104502438Y-63238095D01*
X104502438Y-63238095D02*
X104550057Y-63190476D01*
X104550057Y-63190476D02*
X104645295Y-63142857D01*
X104645295Y-63142857D02*
X104788152Y-63142857D01*
X104788152Y-63142857D02*
X104883390Y-63190476D01*
X104883390Y-63190476D02*
X104931009Y-63238095D01*
X104931009Y-63238095D02*
X104978628Y-63333333D01*
X104978628Y-63333333D02*
X104978628Y-63714285D01*
X105454819Y-62190476D02*
X105454819Y-62761904D01*
X105454819Y-62476190D02*
X104454819Y-62476190D01*
X104454819Y-62476190D02*
X104597676Y-62571428D01*
X104597676Y-62571428D02*
X104692914Y-62666666D01*
X104692914Y-62666666D02*
X104740533Y-62761904D01*
X104788152Y-61333333D02*
X105454819Y-61333333D01*
X104407200Y-61571428D02*
X105121485Y-61809523D01*
X105121485Y-61809523D02*
X105121485Y-61190476D01*
X59659580Y-65866666D02*
X59707200Y-65914285D01*
X59707200Y-65914285D02*
X59754819Y-66057142D01*
X59754819Y-66057142D02*
X59754819Y-66152380D01*
X59754819Y-66152380D02*
X59707200Y-66295237D01*
X59707200Y-66295237D02*
X59611961Y-66390475D01*
X59611961Y-66390475D02*
X59516723Y-66438094D01*
X59516723Y-66438094D02*
X59326247Y-66485713D01*
X59326247Y-66485713D02*
X59183390Y-66485713D01*
X59183390Y-66485713D02*
X58992914Y-66438094D01*
X58992914Y-66438094D02*
X58897676Y-66390475D01*
X58897676Y-66390475D02*
X58802438Y-66295237D01*
X58802438Y-66295237D02*
X58754819Y-66152380D01*
X58754819Y-66152380D02*
X58754819Y-66057142D01*
X58754819Y-66057142D02*
X58802438Y-65914285D01*
X58802438Y-65914285D02*
X58850057Y-65866666D01*
X58754819Y-64961904D02*
X58754819Y-65438094D01*
X58754819Y-65438094D02*
X59231009Y-65485713D01*
X59231009Y-65485713D02*
X59183390Y-65438094D01*
X59183390Y-65438094D02*
X59135771Y-65342856D01*
X59135771Y-65342856D02*
X59135771Y-65104761D01*
X59135771Y-65104761D02*
X59183390Y-65009523D01*
X59183390Y-65009523D02*
X59231009Y-64961904D01*
X59231009Y-64961904D02*
X59326247Y-64914285D01*
X59326247Y-64914285D02*
X59564342Y-64914285D01*
X59564342Y-64914285D02*
X59659580Y-64961904D01*
X59659580Y-64961904D02*
X59707200Y-65009523D01*
X59707200Y-65009523D02*
X59754819Y-65104761D01*
X59754819Y-65104761D02*
X59754819Y-65342856D01*
X59754819Y-65342856D02*
X59707200Y-65438094D01*
X59707200Y-65438094D02*
X59659580Y-65485713D01*
X58109580Y-71416666D02*
X58157200Y-71464285D01*
X58157200Y-71464285D02*
X58204819Y-71607142D01*
X58204819Y-71607142D02*
X58204819Y-71702380D01*
X58204819Y-71702380D02*
X58157200Y-71845237D01*
X58157200Y-71845237D02*
X58061961Y-71940475D01*
X58061961Y-71940475D02*
X57966723Y-71988094D01*
X57966723Y-71988094D02*
X57776247Y-72035713D01*
X57776247Y-72035713D02*
X57633390Y-72035713D01*
X57633390Y-72035713D02*
X57442914Y-71988094D01*
X57442914Y-71988094D02*
X57347676Y-71940475D01*
X57347676Y-71940475D02*
X57252438Y-71845237D01*
X57252438Y-71845237D02*
X57204819Y-71702380D01*
X57204819Y-71702380D02*
X57204819Y-71607142D01*
X57204819Y-71607142D02*
X57252438Y-71464285D01*
X57252438Y-71464285D02*
X57300057Y-71416666D01*
X57204819Y-71083332D02*
X57204819Y-70464285D01*
X57204819Y-70464285D02*
X57585771Y-70797618D01*
X57585771Y-70797618D02*
X57585771Y-70654761D01*
X57585771Y-70654761D02*
X57633390Y-70559523D01*
X57633390Y-70559523D02*
X57681009Y-70511904D01*
X57681009Y-70511904D02*
X57776247Y-70464285D01*
X57776247Y-70464285D02*
X58014342Y-70464285D01*
X58014342Y-70464285D02*
X58109580Y-70511904D01*
X58109580Y-70511904D02*
X58157200Y-70559523D01*
X58157200Y-70559523D02*
X58204819Y-70654761D01*
X58204819Y-70654761D02*
X58204819Y-70940475D01*
X58204819Y-70940475D02*
X58157200Y-71035713D01*
X58157200Y-71035713D02*
X58109580Y-71083332D01*
X102904819Y-82042857D02*
X102428628Y-82376190D01*
X102904819Y-82614285D02*
X101904819Y-82614285D01*
X101904819Y-82614285D02*
X101904819Y-82233333D01*
X101904819Y-82233333D02*
X101952438Y-82138095D01*
X101952438Y-82138095D02*
X102000057Y-82090476D01*
X102000057Y-82090476D02*
X102095295Y-82042857D01*
X102095295Y-82042857D02*
X102238152Y-82042857D01*
X102238152Y-82042857D02*
X102333390Y-82090476D01*
X102333390Y-82090476D02*
X102381009Y-82138095D01*
X102381009Y-82138095D02*
X102428628Y-82233333D01*
X102428628Y-82233333D02*
X102428628Y-82614285D01*
X102000057Y-81661904D02*
X101952438Y-81614285D01*
X101952438Y-81614285D02*
X101904819Y-81519047D01*
X101904819Y-81519047D02*
X101904819Y-81280952D01*
X101904819Y-81280952D02*
X101952438Y-81185714D01*
X101952438Y-81185714D02*
X102000057Y-81138095D01*
X102000057Y-81138095D02*
X102095295Y-81090476D01*
X102095295Y-81090476D02*
X102190533Y-81090476D01*
X102190533Y-81090476D02*
X102333390Y-81138095D01*
X102333390Y-81138095D02*
X102904819Y-81709523D01*
X102904819Y-81709523D02*
X102904819Y-81090476D01*
X102904819Y-80614285D02*
X102904819Y-80423809D01*
X102904819Y-80423809D02*
X102857200Y-80328571D01*
X102857200Y-80328571D02*
X102809580Y-80280952D01*
X102809580Y-80280952D02*
X102666723Y-80185714D01*
X102666723Y-80185714D02*
X102476247Y-80138095D01*
X102476247Y-80138095D02*
X102095295Y-80138095D01*
X102095295Y-80138095D02*
X102000057Y-80185714D01*
X102000057Y-80185714D02*
X101952438Y-80233333D01*
X101952438Y-80233333D02*
X101904819Y-80328571D01*
X101904819Y-80328571D02*
X101904819Y-80519047D01*
X101904819Y-80519047D02*
X101952438Y-80614285D01*
X101952438Y-80614285D02*
X102000057Y-80661904D01*
X102000057Y-80661904D02*
X102095295Y-80709523D01*
X102095295Y-80709523D02*
X102333390Y-80709523D01*
X102333390Y-80709523D02*
X102428628Y-80661904D01*
X102428628Y-80661904D02*
X102476247Y-80614285D01*
X102476247Y-80614285D02*
X102523866Y-80519047D01*
X102523866Y-80519047D02*
X102523866Y-80328571D01*
X102523866Y-80328571D02*
X102476247Y-80233333D01*
X102476247Y-80233333D02*
X102428628Y-80185714D01*
X102428628Y-80185714D02*
X102333390Y-80138095D01*
X59859580Y-44416666D02*
X59907200Y-44464285D01*
X59907200Y-44464285D02*
X59954819Y-44607142D01*
X59954819Y-44607142D02*
X59954819Y-44702380D01*
X59954819Y-44702380D02*
X59907200Y-44845237D01*
X59907200Y-44845237D02*
X59811961Y-44940475D01*
X59811961Y-44940475D02*
X59716723Y-44988094D01*
X59716723Y-44988094D02*
X59526247Y-45035713D01*
X59526247Y-45035713D02*
X59383390Y-45035713D01*
X59383390Y-45035713D02*
X59192914Y-44988094D01*
X59192914Y-44988094D02*
X59097676Y-44940475D01*
X59097676Y-44940475D02*
X59002438Y-44845237D01*
X59002438Y-44845237D02*
X58954819Y-44702380D01*
X58954819Y-44702380D02*
X58954819Y-44607142D01*
X58954819Y-44607142D02*
X59002438Y-44464285D01*
X59002438Y-44464285D02*
X59050057Y-44416666D01*
X59954819Y-43464285D02*
X59954819Y-44035713D01*
X59954819Y-43749999D02*
X58954819Y-43749999D01*
X58954819Y-43749999D02*
X59097676Y-43845237D01*
X59097676Y-43845237D02*
X59192914Y-43940475D01*
X59192914Y-43940475D02*
X59240533Y-44035713D01*
X85704819Y-81642857D02*
X85228628Y-81976190D01*
X85704819Y-82214285D02*
X84704819Y-82214285D01*
X84704819Y-82214285D02*
X84704819Y-81833333D01*
X84704819Y-81833333D02*
X84752438Y-81738095D01*
X84752438Y-81738095D02*
X84800057Y-81690476D01*
X84800057Y-81690476D02*
X84895295Y-81642857D01*
X84895295Y-81642857D02*
X85038152Y-81642857D01*
X85038152Y-81642857D02*
X85133390Y-81690476D01*
X85133390Y-81690476D02*
X85181009Y-81738095D01*
X85181009Y-81738095D02*
X85228628Y-81833333D01*
X85228628Y-81833333D02*
X85228628Y-82214285D01*
X84704819Y-81309523D02*
X84704819Y-80690476D01*
X84704819Y-80690476D02*
X85085771Y-81023809D01*
X85085771Y-81023809D02*
X85085771Y-80880952D01*
X85085771Y-80880952D02*
X85133390Y-80785714D01*
X85133390Y-80785714D02*
X85181009Y-80738095D01*
X85181009Y-80738095D02*
X85276247Y-80690476D01*
X85276247Y-80690476D02*
X85514342Y-80690476D01*
X85514342Y-80690476D02*
X85609580Y-80738095D01*
X85609580Y-80738095D02*
X85657200Y-80785714D01*
X85657200Y-80785714D02*
X85704819Y-80880952D01*
X85704819Y-80880952D02*
X85704819Y-81166666D01*
X85704819Y-81166666D02*
X85657200Y-81261904D01*
X85657200Y-81261904D02*
X85609580Y-81309523D01*
X84704819Y-80071428D02*
X84704819Y-79976190D01*
X84704819Y-79976190D02*
X84752438Y-79880952D01*
X84752438Y-79880952D02*
X84800057Y-79833333D01*
X84800057Y-79833333D02*
X84895295Y-79785714D01*
X84895295Y-79785714D02*
X85085771Y-79738095D01*
X85085771Y-79738095D02*
X85323866Y-79738095D01*
X85323866Y-79738095D02*
X85514342Y-79785714D01*
X85514342Y-79785714D02*
X85609580Y-79833333D01*
X85609580Y-79833333D02*
X85657200Y-79880952D01*
X85657200Y-79880952D02*
X85704819Y-79976190D01*
X85704819Y-79976190D02*
X85704819Y-80071428D01*
X85704819Y-80071428D02*
X85657200Y-80166666D01*
X85657200Y-80166666D02*
X85609580Y-80214285D01*
X85609580Y-80214285D02*
X85514342Y-80261904D01*
X85514342Y-80261904D02*
X85323866Y-80309523D01*
X85323866Y-80309523D02*
X85085771Y-80309523D01*
X85085771Y-80309523D02*
X84895295Y-80261904D01*
X84895295Y-80261904D02*
X84800057Y-80214285D01*
X84800057Y-80214285D02*
X84752438Y-80166666D01*
X84752438Y-80166666D02*
X84704819Y-80071428D01*
X85704819Y-77142857D02*
X85228628Y-77476190D01*
X85704819Y-77714285D02*
X84704819Y-77714285D01*
X84704819Y-77714285D02*
X84704819Y-77333333D01*
X84704819Y-77333333D02*
X84752438Y-77238095D01*
X84752438Y-77238095D02*
X84800057Y-77190476D01*
X84800057Y-77190476D02*
X84895295Y-77142857D01*
X84895295Y-77142857D02*
X85038152Y-77142857D01*
X85038152Y-77142857D02*
X85133390Y-77190476D01*
X85133390Y-77190476D02*
X85181009Y-77238095D01*
X85181009Y-77238095D02*
X85228628Y-77333333D01*
X85228628Y-77333333D02*
X85228628Y-77714285D01*
X84800057Y-76761904D02*
X84752438Y-76714285D01*
X84752438Y-76714285D02*
X84704819Y-76619047D01*
X84704819Y-76619047D02*
X84704819Y-76380952D01*
X84704819Y-76380952D02*
X84752438Y-76285714D01*
X84752438Y-76285714D02*
X84800057Y-76238095D01*
X84800057Y-76238095D02*
X84895295Y-76190476D01*
X84895295Y-76190476D02*
X84990533Y-76190476D01*
X84990533Y-76190476D02*
X85133390Y-76238095D01*
X85133390Y-76238095D02*
X85704819Y-76809523D01*
X85704819Y-76809523D02*
X85704819Y-76190476D01*
X85704819Y-75238095D02*
X85704819Y-75809523D01*
X85704819Y-75523809D02*
X84704819Y-75523809D01*
X84704819Y-75523809D02*
X84847676Y-75619047D01*
X84847676Y-75619047D02*
X84942914Y-75714285D01*
X84942914Y-75714285D02*
X84990533Y-75809523D01*
X111604819Y-77392857D02*
X111128628Y-77726190D01*
X111604819Y-77964285D02*
X110604819Y-77964285D01*
X110604819Y-77964285D02*
X110604819Y-77583333D01*
X110604819Y-77583333D02*
X110652438Y-77488095D01*
X110652438Y-77488095D02*
X110700057Y-77440476D01*
X110700057Y-77440476D02*
X110795295Y-77392857D01*
X110795295Y-77392857D02*
X110938152Y-77392857D01*
X110938152Y-77392857D02*
X111033390Y-77440476D01*
X111033390Y-77440476D02*
X111081009Y-77488095D01*
X111081009Y-77488095D02*
X111128628Y-77583333D01*
X111128628Y-77583333D02*
X111128628Y-77964285D01*
X110700057Y-77011904D02*
X110652438Y-76964285D01*
X110652438Y-76964285D02*
X110604819Y-76869047D01*
X110604819Y-76869047D02*
X110604819Y-76630952D01*
X110604819Y-76630952D02*
X110652438Y-76535714D01*
X110652438Y-76535714D02*
X110700057Y-76488095D01*
X110700057Y-76488095D02*
X110795295Y-76440476D01*
X110795295Y-76440476D02*
X110890533Y-76440476D01*
X110890533Y-76440476D02*
X111033390Y-76488095D01*
X111033390Y-76488095D02*
X111604819Y-77059523D01*
X111604819Y-77059523D02*
X111604819Y-76440476D01*
X110604819Y-75583333D02*
X110604819Y-75773809D01*
X110604819Y-75773809D02*
X110652438Y-75869047D01*
X110652438Y-75869047D02*
X110700057Y-75916666D01*
X110700057Y-75916666D02*
X110842914Y-76011904D01*
X110842914Y-76011904D02*
X111033390Y-76059523D01*
X111033390Y-76059523D02*
X111414342Y-76059523D01*
X111414342Y-76059523D02*
X111509580Y-76011904D01*
X111509580Y-76011904D02*
X111557200Y-75964285D01*
X111557200Y-75964285D02*
X111604819Y-75869047D01*
X111604819Y-75869047D02*
X111604819Y-75678571D01*
X111604819Y-75678571D02*
X111557200Y-75583333D01*
X111557200Y-75583333D02*
X111509580Y-75535714D01*
X111509580Y-75535714D02*
X111414342Y-75488095D01*
X111414342Y-75488095D02*
X111176247Y-75488095D01*
X111176247Y-75488095D02*
X111081009Y-75535714D01*
X111081009Y-75535714D02*
X111033390Y-75583333D01*
X111033390Y-75583333D02*
X110985771Y-75678571D01*
X110985771Y-75678571D02*
X110985771Y-75869047D01*
X110985771Y-75869047D02*
X111033390Y-75964285D01*
X111033390Y-75964285D02*
X111081009Y-76011904D01*
X111081009Y-76011904D02*
X111176247Y-76059523D01*
X53833333Y-76454819D02*
X53500000Y-75978628D01*
X53261905Y-76454819D02*
X53261905Y-75454819D01*
X53261905Y-75454819D02*
X53642857Y-75454819D01*
X53642857Y-75454819D02*
X53738095Y-75502438D01*
X53738095Y-75502438D02*
X53785714Y-75550057D01*
X53785714Y-75550057D02*
X53833333Y-75645295D01*
X53833333Y-75645295D02*
X53833333Y-75788152D01*
X53833333Y-75788152D02*
X53785714Y-75883390D01*
X53785714Y-75883390D02*
X53738095Y-75931009D01*
X53738095Y-75931009D02*
X53642857Y-75978628D01*
X53642857Y-75978628D02*
X53261905Y-75978628D01*
X54166667Y-75454819D02*
X54833333Y-75454819D01*
X54833333Y-75454819D02*
X54404762Y-76454819D01*
X56204819Y-51911904D02*
X56204819Y-51340476D01*
X57204819Y-51626190D02*
X56204819Y-51626190D01*
X57204819Y-50483333D02*
X57204819Y-51054761D01*
X57204819Y-50769047D02*
X56204819Y-50769047D01*
X56204819Y-50769047D02*
X56347676Y-50864285D01*
X56347676Y-50864285D02*
X56442914Y-50959523D01*
X56442914Y-50959523D02*
X56490533Y-51054761D01*
X91857142Y-69704819D02*
X91523809Y-69228628D01*
X91285714Y-69704819D02*
X91285714Y-68704819D01*
X91285714Y-68704819D02*
X91666666Y-68704819D01*
X91666666Y-68704819D02*
X91761904Y-68752438D01*
X91761904Y-68752438D02*
X91809523Y-68800057D01*
X91809523Y-68800057D02*
X91857142Y-68895295D01*
X91857142Y-68895295D02*
X91857142Y-69038152D01*
X91857142Y-69038152D02*
X91809523Y-69133390D01*
X91809523Y-69133390D02*
X91761904Y-69181009D01*
X91761904Y-69181009D02*
X91666666Y-69228628D01*
X91666666Y-69228628D02*
X91285714Y-69228628D01*
X92809523Y-69704819D02*
X92238095Y-69704819D01*
X92523809Y-69704819D02*
X92523809Y-68704819D01*
X92523809Y-68704819D02*
X92428571Y-68847676D01*
X92428571Y-68847676D02*
X92333333Y-68942914D01*
X92333333Y-68942914D02*
X92238095Y-68990533D01*
X93142857Y-68704819D02*
X93809523Y-68704819D01*
X93809523Y-68704819D02*
X93380952Y-69704819D01*
X68833333Y-56859580D02*
X68785714Y-56907200D01*
X68785714Y-56907200D02*
X68642857Y-56954819D01*
X68642857Y-56954819D02*
X68547619Y-56954819D01*
X68547619Y-56954819D02*
X68404762Y-56907200D01*
X68404762Y-56907200D02*
X68309524Y-56811961D01*
X68309524Y-56811961D02*
X68261905Y-56716723D01*
X68261905Y-56716723D02*
X68214286Y-56526247D01*
X68214286Y-56526247D02*
X68214286Y-56383390D01*
X68214286Y-56383390D02*
X68261905Y-56192914D01*
X68261905Y-56192914D02*
X68309524Y-56097676D01*
X68309524Y-56097676D02*
X68404762Y-56002438D01*
X68404762Y-56002438D02*
X68547619Y-55954819D01*
X68547619Y-55954819D02*
X68642857Y-55954819D01*
X68642857Y-55954819D02*
X68785714Y-56002438D01*
X68785714Y-56002438D02*
X68833333Y-56050057D01*
X69404762Y-56383390D02*
X69309524Y-56335771D01*
X69309524Y-56335771D02*
X69261905Y-56288152D01*
X69261905Y-56288152D02*
X69214286Y-56192914D01*
X69214286Y-56192914D02*
X69214286Y-56145295D01*
X69214286Y-56145295D02*
X69261905Y-56050057D01*
X69261905Y-56050057D02*
X69309524Y-56002438D01*
X69309524Y-56002438D02*
X69404762Y-55954819D01*
X69404762Y-55954819D02*
X69595238Y-55954819D01*
X69595238Y-55954819D02*
X69690476Y-56002438D01*
X69690476Y-56002438D02*
X69738095Y-56050057D01*
X69738095Y-56050057D02*
X69785714Y-56145295D01*
X69785714Y-56145295D02*
X69785714Y-56192914D01*
X69785714Y-56192914D02*
X69738095Y-56288152D01*
X69738095Y-56288152D02*
X69690476Y-56335771D01*
X69690476Y-56335771D02*
X69595238Y-56383390D01*
X69595238Y-56383390D02*
X69404762Y-56383390D01*
X69404762Y-56383390D02*
X69309524Y-56431009D01*
X69309524Y-56431009D02*
X69261905Y-56478628D01*
X69261905Y-56478628D02*
X69214286Y-56573866D01*
X69214286Y-56573866D02*
X69214286Y-56764342D01*
X69214286Y-56764342D02*
X69261905Y-56859580D01*
X69261905Y-56859580D02*
X69309524Y-56907200D01*
X69309524Y-56907200D02*
X69404762Y-56954819D01*
X69404762Y-56954819D02*
X69595238Y-56954819D01*
X69595238Y-56954819D02*
X69690476Y-56907200D01*
X69690476Y-56907200D02*
X69738095Y-56859580D01*
X69738095Y-56859580D02*
X69785714Y-56764342D01*
X69785714Y-56764342D02*
X69785714Y-56573866D01*
X69785714Y-56573866D02*
X69738095Y-56478628D01*
X69738095Y-56478628D02*
X69690476Y-56431009D01*
X69690476Y-56431009D02*
X69595238Y-56383390D01*
X103083333Y-41679580D02*
X103035714Y-41727200D01*
X103035714Y-41727200D02*
X102892857Y-41774819D01*
X102892857Y-41774819D02*
X102797619Y-41774819D01*
X102797619Y-41774819D02*
X102654762Y-41727200D01*
X102654762Y-41727200D02*
X102559524Y-41631961D01*
X102559524Y-41631961D02*
X102511905Y-41536723D01*
X102511905Y-41536723D02*
X102464286Y-41346247D01*
X102464286Y-41346247D02*
X102464286Y-41203390D01*
X102464286Y-41203390D02*
X102511905Y-41012914D01*
X102511905Y-41012914D02*
X102559524Y-40917676D01*
X102559524Y-40917676D02*
X102654762Y-40822438D01*
X102654762Y-40822438D02*
X102797619Y-40774819D01*
X102797619Y-40774819D02*
X102892857Y-40774819D01*
X102892857Y-40774819D02*
X103035714Y-40822438D01*
X103035714Y-40822438D02*
X103083333Y-40870057D01*
X103416667Y-40774819D02*
X104083333Y-40774819D01*
X104083333Y-40774819D02*
X103654762Y-41774819D01*
X101607142Y-67929580D02*
X101559523Y-67977200D01*
X101559523Y-67977200D02*
X101416666Y-68024819D01*
X101416666Y-68024819D02*
X101321428Y-68024819D01*
X101321428Y-68024819D02*
X101178571Y-67977200D01*
X101178571Y-67977200D02*
X101083333Y-67881961D01*
X101083333Y-67881961D02*
X101035714Y-67786723D01*
X101035714Y-67786723D02*
X100988095Y-67596247D01*
X100988095Y-67596247D02*
X100988095Y-67453390D01*
X100988095Y-67453390D02*
X101035714Y-67262914D01*
X101035714Y-67262914D02*
X101083333Y-67167676D01*
X101083333Y-67167676D02*
X101178571Y-67072438D01*
X101178571Y-67072438D02*
X101321428Y-67024819D01*
X101321428Y-67024819D02*
X101416666Y-67024819D01*
X101416666Y-67024819D02*
X101559523Y-67072438D01*
X101559523Y-67072438D02*
X101607142Y-67120057D01*
X102559523Y-68024819D02*
X101988095Y-68024819D01*
X102273809Y-68024819D02*
X102273809Y-67024819D01*
X102273809Y-67024819D02*
X102178571Y-67167676D01*
X102178571Y-67167676D02*
X102083333Y-67262914D01*
X102083333Y-67262914D02*
X101988095Y-67310533D01*
X103416666Y-67024819D02*
X103226190Y-67024819D01*
X103226190Y-67024819D02*
X103130952Y-67072438D01*
X103130952Y-67072438D02*
X103083333Y-67120057D01*
X103083333Y-67120057D02*
X102988095Y-67262914D01*
X102988095Y-67262914D02*
X102940476Y-67453390D01*
X102940476Y-67453390D02*
X102940476Y-67834342D01*
X102940476Y-67834342D02*
X102988095Y-67929580D01*
X102988095Y-67929580D02*
X103035714Y-67977200D01*
X103035714Y-67977200D02*
X103130952Y-68024819D01*
X103130952Y-68024819D02*
X103321428Y-68024819D01*
X103321428Y-68024819D02*
X103416666Y-67977200D01*
X103416666Y-67977200D02*
X103464285Y-67929580D01*
X103464285Y-67929580D02*
X103511904Y-67834342D01*
X103511904Y-67834342D02*
X103511904Y-67596247D01*
X103511904Y-67596247D02*
X103464285Y-67501009D01*
X103464285Y-67501009D02*
X103416666Y-67453390D01*
X103416666Y-67453390D02*
X103321428Y-67405771D01*
X103321428Y-67405771D02*
X103130952Y-67405771D01*
X103130952Y-67405771D02*
X103035714Y-67453390D01*
X103035714Y-67453390D02*
X102988095Y-67501009D01*
X102988095Y-67501009D02*
X102940476Y-67596247D01*
X80800057Y-81345238D02*
X80752438Y-81440476D01*
X80752438Y-81440476D02*
X80657200Y-81535714D01*
X80657200Y-81535714D02*
X80514342Y-81678571D01*
X80514342Y-81678571D02*
X80466723Y-81773809D01*
X80466723Y-81773809D02*
X80466723Y-81869047D01*
X80704819Y-81821428D02*
X80657200Y-81916666D01*
X80657200Y-81916666D02*
X80561961Y-82011904D01*
X80561961Y-82011904D02*
X80371485Y-82059523D01*
X80371485Y-82059523D02*
X80038152Y-82059523D01*
X80038152Y-82059523D02*
X79847676Y-82011904D01*
X79847676Y-82011904D02*
X79752438Y-81916666D01*
X79752438Y-81916666D02*
X79704819Y-81821428D01*
X79704819Y-81821428D02*
X79704819Y-81630952D01*
X79704819Y-81630952D02*
X79752438Y-81535714D01*
X79752438Y-81535714D02*
X79847676Y-81440476D01*
X79847676Y-81440476D02*
X80038152Y-81392857D01*
X80038152Y-81392857D02*
X80371485Y-81392857D01*
X80371485Y-81392857D02*
X80561961Y-81440476D01*
X80561961Y-81440476D02*
X80657200Y-81535714D01*
X80657200Y-81535714D02*
X80704819Y-81630952D01*
X80704819Y-81630952D02*
X80704819Y-81821428D01*
X79800057Y-81011904D02*
X79752438Y-80964285D01*
X79752438Y-80964285D02*
X79704819Y-80869047D01*
X79704819Y-80869047D02*
X79704819Y-80630952D01*
X79704819Y-80630952D02*
X79752438Y-80535714D01*
X79752438Y-80535714D02*
X79800057Y-80488095D01*
X79800057Y-80488095D02*
X79895295Y-80440476D01*
X79895295Y-80440476D02*
X79990533Y-80440476D01*
X79990533Y-80440476D02*
X80133390Y-80488095D01*
X80133390Y-80488095D02*
X80704819Y-81059523D01*
X80704819Y-81059523D02*
X80704819Y-80440476D01*
X78169104Y-65464285D02*
X78169104Y-64988095D01*
X78454819Y-65559523D02*
X77454819Y-65226190D01*
X77454819Y-65226190D02*
X78454819Y-64892857D01*
X78454819Y-64035714D02*
X78454819Y-64607142D01*
X78454819Y-64321428D02*
X77454819Y-64321428D01*
X77454819Y-64321428D02*
X77597676Y-64416666D01*
X77597676Y-64416666D02*
X77692914Y-64511904D01*
X77692914Y-64511904D02*
X77740533Y-64607142D01*
X115454819Y-66381904D02*
X116264342Y-66381904D01*
X116264342Y-66381904D02*
X116359580Y-66334285D01*
X116359580Y-66334285D02*
X116407200Y-66286666D01*
X116407200Y-66286666D02*
X116454819Y-66191428D01*
X116454819Y-66191428D02*
X116454819Y-66000952D01*
X116454819Y-66000952D02*
X116407200Y-65905714D01*
X116407200Y-65905714D02*
X116359580Y-65858095D01*
X116359580Y-65858095D02*
X116264342Y-65810476D01*
X116264342Y-65810476D02*
X115454819Y-65810476D01*
X116407200Y-65381904D02*
X116454819Y-65239047D01*
X116454819Y-65239047D02*
X116454819Y-65000952D01*
X116454819Y-65000952D02*
X116407200Y-64905714D01*
X116407200Y-64905714D02*
X116359580Y-64858095D01*
X116359580Y-64858095D02*
X116264342Y-64810476D01*
X116264342Y-64810476D02*
X116169104Y-64810476D01*
X116169104Y-64810476D02*
X116073866Y-64858095D01*
X116073866Y-64858095D02*
X116026247Y-64905714D01*
X116026247Y-64905714D02*
X115978628Y-65000952D01*
X115978628Y-65000952D02*
X115931009Y-65191428D01*
X115931009Y-65191428D02*
X115883390Y-65286666D01*
X115883390Y-65286666D02*
X115835771Y-65334285D01*
X115835771Y-65334285D02*
X115740533Y-65381904D01*
X115740533Y-65381904D02*
X115645295Y-65381904D01*
X115645295Y-65381904D02*
X115550057Y-65334285D01*
X115550057Y-65334285D02*
X115502438Y-65286666D01*
X115502438Y-65286666D02*
X115454819Y-65191428D01*
X115454819Y-65191428D02*
X115454819Y-64953333D01*
X115454819Y-64953333D02*
X115502438Y-64810476D01*
X115931009Y-64048571D02*
X115978628Y-63905714D01*
X115978628Y-63905714D02*
X116026247Y-63858095D01*
X116026247Y-63858095D02*
X116121485Y-63810476D01*
X116121485Y-63810476D02*
X116264342Y-63810476D01*
X116264342Y-63810476D02*
X116359580Y-63858095D01*
X116359580Y-63858095D02*
X116407200Y-63905714D01*
X116407200Y-63905714D02*
X116454819Y-64000952D01*
X116454819Y-64000952D02*
X116454819Y-64381904D01*
X116454819Y-64381904D02*
X115454819Y-64381904D01*
X115454819Y-64381904D02*
X115454819Y-64048571D01*
X115454819Y-64048571D02*
X115502438Y-63953333D01*
X115502438Y-63953333D02*
X115550057Y-63905714D01*
X115550057Y-63905714D02*
X115645295Y-63858095D01*
X115645295Y-63858095D02*
X115740533Y-63858095D01*
X115740533Y-63858095D02*
X115835771Y-63905714D01*
X115835771Y-63905714D02*
X115883390Y-63953333D01*
X115883390Y-63953333D02*
X115931009Y-64048571D01*
X115931009Y-64048571D02*
X115931009Y-64381904D01*
X57804819Y-78166666D02*
X57328628Y-78499999D01*
X57804819Y-78738094D02*
X56804819Y-78738094D01*
X56804819Y-78738094D02*
X56804819Y-78357142D01*
X56804819Y-78357142D02*
X56852438Y-78261904D01*
X56852438Y-78261904D02*
X56900057Y-78214285D01*
X56900057Y-78214285D02*
X56995295Y-78166666D01*
X56995295Y-78166666D02*
X57138152Y-78166666D01*
X57138152Y-78166666D02*
X57233390Y-78214285D01*
X57233390Y-78214285D02*
X57281009Y-78261904D01*
X57281009Y-78261904D02*
X57328628Y-78357142D01*
X57328628Y-78357142D02*
X57328628Y-78738094D01*
X56804819Y-77309523D02*
X56804819Y-77499999D01*
X56804819Y-77499999D02*
X56852438Y-77595237D01*
X56852438Y-77595237D02*
X56900057Y-77642856D01*
X56900057Y-77642856D02*
X57042914Y-77738094D01*
X57042914Y-77738094D02*
X57233390Y-77785713D01*
X57233390Y-77785713D02*
X57614342Y-77785713D01*
X57614342Y-77785713D02*
X57709580Y-77738094D01*
X57709580Y-77738094D02*
X57757200Y-77690475D01*
X57757200Y-77690475D02*
X57804819Y-77595237D01*
X57804819Y-77595237D02*
X57804819Y-77404761D01*
X57804819Y-77404761D02*
X57757200Y-77309523D01*
X57757200Y-77309523D02*
X57709580Y-77261904D01*
X57709580Y-77261904D02*
X57614342Y-77214285D01*
X57614342Y-77214285D02*
X57376247Y-77214285D01*
X57376247Y-77214285D02*
X57281009Y-77261904D01*
X57281009Y-77261904D02*
X57233390Y-77309523D01*
X57233390Y-77309523D02*
X57185771Y-77404761D01*
X57185771Y-77404761D02*
X57185771Y-77595237D01*
X57185771Y-77595237D02*
X57233390Y-77690475D01*
X57233390Y-77690475D02*
X57281009Y-77738094D01*
X57281009Y-77738094D02*
X57376247Y-77785713D01*
X91607142Y-52304819D02*
X91273809Y-51828628D01*
X91035714Y-52304819D02*
X91035714Y-51304819D01*
X91035714Y-51304819D02*
X91416666Y-51304819D01*
X91416666Y-51304819D02*
X91511904Y-51352438D01*
X91511904Y-51352438D02*
X91559523Y-51400057D01*
X91559523Y-51400057D02*
X91607142Y-51495295D01*
X91607142Y-51495295D02*
X91607142Y-51638152D01*
X91607142Y-51638152D02*
X91559523Y-51733390D01*
X91559523Y-51733390D02*
X91511904Y-51781009D01*
X91511904Y-51781009D02*
X91416666Y-51828628D01*
X91416666Y-51828628D02*
X91035714Y-51828628D01*
X92559523Y-52304819D02*
X91988095Y-52304819D01*
X92273809Y-52304819D02*
X92273809Y-51304819D01*
X92273809Y-51304819D02*
X92178571Y-51447676D01*
X92178571Y-51447676D02*
X92083333Y-51542914D01*
X92083333Y-51542914D02*
X91988095Y-51590533D01*
X92940476Y-51400057D02*
X92988095Y-51352438D01*
X92988095Y-51352438D02*
X93083333Y-51304819D01*
X93083333Y-51304819D02*
X93321428Y-51304819D01*
X93321428Y-51304819D02*
X93416666Y-51352438D01*
X93416666Y-51352438D02*
X93464285Y-51400057D01*
X93464285Y-51400057D02*
X93511904Y-51495295D01*
X93511904Y-51495295D02*
X93511904Y-51590533D01*
X93511904Y-51590533D02*
X93464285Y-51733390D01*
X93464285Y-51733390D02*
X92892857Y-52304819D01*
X92892857Y-52304819D02*
X93511904Y-52304819D01*
X59738095Y-54404819D02*
X59738095Y-55214342D01*
X59738095Y-55214342D02*
X59785714Y-55309580D01*
X59785714Y-55309580D02*
X59833333Y-55357200D01*
X59833333Y-55357200D02*
X59928571Y-55404819D01*
X59928571Y-55404819D02*
X60119047Y-55404819D01*
X60119047Y-55404819D02*
X60214285Y-55357200D01*
X60214285Y-55357200D02*
X60261904Y-55309580D01*
X60261904Y-55309580D02*
X60309523Y-55214342D01*
X60309523Y-55214342D02*
X60309523Y-54404819D01*
X61309523Y-55404819D02*
X60738095Y-55404819D01*
X61023809Y-55404819D02*
X61023809Y-54404819D01*
X61023809Y-54404819D02*
X60928571Y-54547676D01*
X60928571Y-54547676D02*
X60833333Y-54642914D01*
X60833333Y-54642914D02*
X60738095Y-54690533D01*
X96954819Y-77611094D02*
X95954819Y-77611094D01*
X95954819Y-77611094D02*
X95954819Y-77372999D01*
X95954819Y-77372999D02*
X96002438Y-77230142D01*
X96002438Y-77230142D02*
X96097676Y-77134904D01*
X96097676Y-77134904D02*
X96192914Y-77087285D01*
X96192914Y-77087285D02*
X96383390Y-77039666D01*
X96383390Y-77039666D02*
X96526247Y-77039666D01*
X96526247Y-77039666D02*
X96716723Y-77087285D01*
X96716723Y-77087285D02*
X96811961Y-77134904D01*
X96811961Y-77134904D02*
X96907200Y-77230142D01*
X96907200Y-77230142D02*
X96954819Y-77372999D01*
X96954819Y-77372999D02*
X96954819Y-77611094D01*
X96954819Y-76087285D02*
X96954819Y-76658713D01*
X96954819Y-76372999D02*
X95954819Y-76372999D01*
X95954819Y-76372999D02*
X96097676Y-76468237D01*
X96097676Y-76468237D02*
X96192914Y-76563475D01*
X96192914Y-76563475D02*
X96240533Y-76658713D01*
X81857142Y-76304819D02*
X81523809Y-75828628D01*
X81285714Y-76304819D02*
X81285714Y-75304819D01*
X81285714Y-75304819D02*
X81666666Y-75304819D01*
X81666666Y-75304819D02*
X81761904Y-75352438D01*
X81761904Y-75352438D02*
X81809523Y-75400057D01*
X81809523Y-75400057D02*
X81857142Y-75495295D01*
X81857142Y-75495295D02*
X81857142Y-75638152D01*
X81857142Y-75638152D02*
X81809523Y-75733390D01*
X81809523Y-75733390D02*
X81761904Y-75781009D01*
X81761904Y-75781009D02*
X81666666Y-75828628D01*
X81666666Y-75828628D02*
X81285714Y-75828628D01*
X82809523Y-76304819D02*
X82238095Y-76304819D01*
X82523809Y-76304819D02*
X82523809Y-75304819D01*
X82523809Y-75304819D02*
X82428571Y-75447676D01*
X82428571Y-75447676D02*
X82333333Y-75542914D01*
X82333333Y-75542914D02*
X82238095Y-75590533D01*
X83285714Y-76304819D02*
X83476190Y-76304819D01*
X83476190Y-76304819D02*
X83571428Y-76257200D01*
X83571428Y-76257200D02*
X83619047Y-76209580D01*
X83619047Y-76209580D02*
X83714285Y-76066723D01*
X83714285Y-76066723D02*
X83761904Y-75876247D01*
X83761904Y-75876247D02*
X83761904Y-75495295D01*
X83761904Y-75495295D02*
X83714285Y-75400057D01*
X83714285Y-75400057D02*
X83666666Y-75352438D01*
X83666666Y-75352438D02*
X83571428Y-75304819D01*
X83571428Y-75304819D02*
X83380952Y-75304819D01*
X83380952Y-75304819D02*
X83285714Y-75352438D01*
X83285714Y-75352438D02*
X83238095Y-75400057D01*
X83238095Y-75400057D02*
X83190476Y-75495295D01*
X83190476Y-75495295D02*
X83190476Y-75733390D01*
X83190476Y-75733390D02*
X83238095Y-75828628D01*
X83238095Y-75828628D02*
X83285714Y-75876247D01*
X83285714Y-75876247D02*
X83380952Y-75923866D01*
X83380952Y-75923866D02*
X83571428Y-75923866D01*
X83571428Y-75923866D02*
X83666666Y-75876247D01*
X83666666Y-75876247D02*
X83714285Y-75828628D01*
X83714285Y-75828628D02*
X83761904Y-75733390D01*
X77179580Y-81892857D02*
X77227200Y-81940476D01*
X77227200Y-81940476D02*
X77274819Y-82083333D01*
X77274819Y-82083333D02*
X77274819Y-82178571D01*
X77274819Y-82178571D02*
X77227200Y-82321428D01*
X77227200Y-82321428D02*
X77131961Y-82416666D01*
X77131961Y-82416666D02*
X77036723Y-82464285D01*
X77036723Y-82464285D02*
X76846247Y-82511904D01*
X76846247Y-82511904D02*
X76703390Y-82511904D01*
X76703390Y-82511904D02*
X76512914Y-82464285D01*
X76512914Y-82464285D02*
X76417676Y-82416666D01*
X76417676Y-82416666D02*
X76322438Y-82321428D01*
X76322438Y-82321428D02*
X76274819Y-82178571D01*
X76274819Y-82178571D02*
X76274819Y-82083333D01*
X76274819Y-82083333D02*
X76322438Y-81940476D01*
X76322438Y-81940476D02*
X76370057Y-81892857D01*
X77274819Y-80940476D02*
X77274819Y-81511904D01*
X77274819Y-81226190D02*
X76274819Y-81226190D01*
X76274819Y-81226190D02*
X76417676Y-81321428D01*
X76417676Y-81321428D02*
X76512914Y-81416666D01*
X76512914Y-81416666D02*
X76560533Y-81511904D01*
X76274819Y-80607142D02*
X76274819Y-79940476D01*
X76274819Y-79940476D02*
X77274819Y-80369047D01*
X101357142Y-60454819D02*
X101023809Y-59978628D01*
X100785714Y-60454819D02*
X100785714Y-59454819D01*
X100785714Y-59454819D02*
X101166666Y-59454819D01*
X101166666Y-59454819D02*
X101261904Y-59502438D01*
X101261904Y-59502438D02*
X101309523Y-59550057D01*
X101309523Y-59550057D02*
X101357142Y-59645295D01*
X101357142Y-59645295D02*
X101357142Y-59788152D01*
X101357142Y-59788152D02*
X101309523Y-59883390D01*
X101309523Y-59883390D02*
X101261904Y-59931009D01*
X101261904Y-59931009D02*
X101166666Y-59978628D01*
X101166666Y-59978628D02*
X100785714Y-59978628D01*
X101738095Y-59550057D02*
X101785714Y-59502438D01*
X101785714Y-59502438D02*
X101880952Y-59454819D01*
X101880952Y-59454819D02*
X102119047Y-59454819D01*
X102119047Y-59454819D02*
X102214285Y-59502438D01*
X102214285Y-59502438D02*
X102261904Y-59550057D01*
X102261904Y-59550057D02*
X102309523Y-59645295D01*
X102309523Y-59645295D02*
X102309523Y-59740533D01*
X102309523Y-59740533D02*
X102261904Y-59883390D01*
X102261904Y-59883390D02*
X101690476Y-60454819D01*
X101690476Y-60454819D02*
X102309523Y-60454819D01*
X102928571Y-59454819D02*
X103023809Y-59454819D01*
X103023809Y-59454819D02*
X103119047Y-59502438D01*
X103119047Y-59502438D02*
X103166666Y-59550057D01*
X103166666Y-59550057D02*
X103214285Y-59645295D01*
X103214285Y-59645295D02*
X103261904Y-59835771D01*
X103261904Y-59835771D02*
X103261904Y-60073866D01*
X103261904Y-60073866D02*
X103214285Y-60264342D01*
X103214285Y-60264342D02*
X103166666Y-60359580D01*
X103166666Y-60359580D02*
X103119047Y-60407200D01*
X103119047Y-60407200D02*
X103023809Y-60454819D01*
X103023809Y-60454819D02*
X102928571Y-60454819D01*
X102928571Y-60454819D02*
X102833333Y-60407200D01*
X102833333Y-60407200D02*
X102785714Y-60359580D01*
X102785714Y-60359580D02*
X102738095Y-60264342D01*
X102738095Y-60264342D02*
X102690476Y-60073866D01*
X102690476Y-60073866D02*
X102690476Y-59835771D01*
X102690476Y-59835771D02*
X102738095Y-59645295D01*
X102738095Y-59645295D02*
X102785714Y-59550057D01*
X102785714Y-59550057D02*
X102833333Y-59502438D01*
X102833333Y-59502438D02*
X102928571Y-59454819D01*
X108954819Y-68642857D02*
X108478628Y-68976190D01*
X108954819Y-69214285D02*
X107954819Y-69214285D01*
X107954819Y-69214285D02*
X107954819Y-68833333D01*
X107954819Y-68833333D02*
X108002438Y-68738095D01*
X108002438Y-68738095D02*
X108050057Y-68690476D01*
X108050057Y-68690476D02*
X108145295Y-68642857D01*
X108145295Y-68642857D02*
X108288152Y-68642857D01*
X108288152Y-68642857D02*
X108383390Y-68690476D01*
X108383390Y-68690476D02*
X108431009Y-68738095D01*
X108431009Y-68738095D02*
X108478628Y-68833333D01*
X108478628Y-68833333D02*
X108478628Y-69214285D01*
X107954819Y-68309523D02*
X107954819Y-67690476D01*
X107954819Y-67690476D02*
X108335771Y-68023809D01*
X108335771Y-68023809D02*
X108335771Y-67880952D01*
X108335771Y-67880952D02*
X108383390Y-67785714D01*
X108383390Y-67785714D02*
X108431009Y-67738095D01*
X108431009Y-67738095D02*
X108526247Y-67690476D01*
X108526247Y-67690476D02*
X108764342Y-67690476D01*
X108764342Y-67690476D02*
X108859580Y-67738095D01*
X108859580Y-67738095D02*
X108907200Y-67785714D01*
X108907200Y-67785714D02*
X108954819Y-67880952D01*
X108954819Y-67880952D02*
X108954819Y-68166666D01*
X108954819Y-68166666D02*
X108907200Y-68261904D01*
X108907200Y-68261904D02*
X108859580Y-68309523D01*
X107954819Y-67357142D02*
X107954819Y-66738095D01*
X107954819Y-66738095D02*
X108335771Y-67071428D01*
X108335771Y-67071428D02*
X108335771Y-66928571D01*
X108335771Y-66928571D02*
X108383390Y-66833333D01*
X108383390Y-66833333D02*
X108431009Y-66785714D01*
X108431009Y-66785714D02*
X108526247Y-66738095D01*
X108526247Y-66738095D02*
X108764342Y-66738095D01*
X108764342Y-66738095D02*
X108859580Y-66785714D01*
X108859580Y-66785714D02*
X108907200Y-66833333D01*
X108907200Y-66833333D02*
X108954819Y-66928571D01*
X108954819Y-66928571D02*
X108954819Y-67214285D01*
X108954819Y-67214285D02*
X108907200Y-67309523D01*
X108907200Y-67309523D02*
X108859580Y-67357142D01*
X108104819Y-77392857D02*
X107628628Y-77726190D01*
X108104819Y-77964285D02*
X107104819Y-77964285D01*
X107104819Y-77964285D02*
X107104819Y-77583333D01*
X107104819Y-77583333D02*
X107152438Y-77488095D01*
X107152438Y-77488095D02*
X107200057Y-77440476D01*
X107200057Y-77440476D02*
X107295295Y-77392857D01*
X107295295Y-77392857D02*
X107438152Y-77392857D01*
X107438152Y-77392857D02*
X107533390Y-77440476D01*
X107533390Y-77440476D02*
X107581009Y-77488095D01*
X107581009Y-77488095D02*
X107628628Y-77583333D01*
X107628628Y-77583333D02*
X107628628Y-77964285D01*
X107200057Y-77011904D02*
X107152438Y-76964285D01*
X107152438Y-76964285D02*
X107104819Y-76869047D01*
X107104819Y-76869047D02*
X107104819Y-76630952D01*
X107104819Y-76630952D02*
X107152438Y-76535714D01*
X107152438Y-76535714D02*
X107200057Y-76488095D01*
X107200057Y-76488095D02*
X107295295Y-76440476D01*
X107295295Y-76440476D02*
X107390533Y-76440476D01*
X107390533Y-76440476D02*
X107533390Y-76488095D01*
X107533390Y-76488095D02*
X108104819Y-77059523D01*
X108104819Y-77059523D02*
X108104819Y-76440476D01*
X107104819Y-75535714D02*
X107104819Y-76011904D01*
X107104819Y-76011904D02*
X107581009Y-76059523D01*
X107581009Y-76059523D02*
X107533390Y-76011904D01*
X107533390Y-76011904D02*
X107485771Y-75916666D01*
X107485771Y-75916666D02*
X107485771Y-75678571D01*
X107485771Y-75678571D02*
X107533390Y-75583333D01*
X107533390Y-75583333D02*
X107581009Y-75535714D01*
X107581009Y-75535714D02*
X107676247Y-75488095D01*
X107676247Y-75488095D02*
X107914342Y-75488095D01*
X107914342Y-75488095D02*
X108009580Y-75535714D01*
X108009580Y-75535714D02*
X108057200Y-75583333D01*
X108057200Y-75583333D02*
X108104819Y-75678571D01*
X108104819Y-75678571D02*
X108104819Y-75916666D01*
X108104819Y-75916666D02*
X108057200Y-76011904D01*
X108057200Y-76011904D02*
X108009580Y-76059523D01*
X91857142Y-63454819D02*
X91523809Y-62978628D01*
X91285714Y-63454819D02*
X91285714Y-62454819D01*
X91285714Y-62454819D02*
X91666666Y-62454819D01*
X91666666Y-62454819D02*
X91761904Y-62502438D01*
X91761904Y-62502438D02*
X91809523Y-62550057D01*
X91809523Y-62550057D02*
X91857142Y-62645295D01*
X91857142Y-62645295D02*
X91857142Y-62788152D01*
X91857142Y-62788152D02*
X91809523Y-62883390D01*
X91809523Y-62883390D02*
X91761904Y-62931009D01*
X91761904Y-62931009D02*
X91666666Y-62978628D01*
X91666666Y-62978628D02*
X91285714Y-62978628D01*
X92809523Y-63454819D02*
X92238095Y-63454819D01*
X92523809Y-63454819D02*
X92523809Y-62454819D01*
X92523809Y-62454819D02*
X92428571Y-62597676D01*
X92428571Y-62597676D02*
X92333333Y-62692914D01*
X92333333Y-62692914D02*
X92238095Y-62740533D01*
X93666666Y-62454819D02*
X93476190Y-62454819D01*
X93476190Y-62454819D02*
X93380952Y-62502438D01*
X93380952Y-62502438D02*
X93333333Y-62550057D01*
X93333333Y-62550057D02*
X93238095Y-62692914D01*
X93238095Y-62692914D02*
X93190476Y-62883390D01*
X93190476Y-62883390D02*
X93190476Y-63264342D01*
X93190476Y-63264342D02*
X93238095Y-63359580D01*
X93238095Y-63359580D02*
X93285714Y-63407200D01*
X93285714Y-63407200D02*
X93380952Y-63454819D01*
X93380952Y-63454819D02*
X93571428Y-63454819D01*
X93571428Y-63454819D02*
X93666666Y-63407200D01*
X93666666Y-63407200D02*
X93714285Y-63359580D01*
X93714285Y-63359580D02*
X93761904Y-63264342D01*
X93761904Y-63264342D02*
X93761904Y-63026247D01*
X93761904Y-63026247D02*
X93714285Y-62931009D01*
X93714285Y-62931009D02*
X93666666Y-62883390D01*
X93666666Y-62883390D02*
X93571428Y-62835771D01*
X93571428Y-62835771D02*
X93380952Y-62835771D01*
X93380952Y-62835771D02*
X93285714Y-62883390D01*
X93285714Y-62883390D02*
X93238095Y-62931009D01*
X93238095Y-62931009D02*
X93190476Y-63026247D01*
X101607142Y-64454819D02*
X101273809Y-63978628D01*
X101035714Y-64454819D02*
X101035714Y-63454819D01*
X101035714Y-63454819D02*
X101416666Y-63454819D01*
X101416666Y-63454819D02*
X101511904Y-63502438D01*
X101511904Y-63502438D02*
X101559523Y-63550057D01*
X101559523Y-63550057D02*
X101607142Y-63645295D01*
X101607142Y-63645295D02*
X101607142Y-63788152D01*
X101607142Y-63788152D02*
X101559523Y-63883390D01*
X101559523Y-63883390D02*
X101511904Y-63931009D01*
X101511904Y-63931009D02*
X101416666Y-63978628D01*
X101416666Y-63978628D02*
X101035714Y-63978628D01*
X101988095Y-63550057D02*
X102035714Y-63502438D01*
X102035714Y-63502438D02*
X102130952Y-63454819D01*
X102130952Y-63454819D02*
X102369047Y-63454819D01*
X102369047Y-63454819D02*
X102464285Y-63502438D01*
X102464285Y-63502438D02*
X102511904Y-63550057D01*
X102511904Y-63550057D02*
X102559523Y-63645295D01*
X102559523Y-63645295D02*
X102559523Y-63740533D01*
X102559523Y-63740533D02*
X102511904Y-63883390D01*
X102511904Y-63883390D02*
X101940476Y-64454819D01*
X101940476Y-64454819D02*
X102559523Y-64454819D01*
X102940476Y-63550057D02*
X102988095Y-63502438D01*
X102988095Y-63502438D02*
X103083333Y-63454819D01*
X103083333Y-63454819D02*
X103321428Y-63454819D01*
X103321428Y-63454819D02*
X103416666Y-63502438D01*
X103416666Y-63502438D02*
X103464285Y-63550057D01*
X103464285Y-63550057D02*
X103511904Y-63645295D01*
X103511904Y-63645295D02*
X103511904Y-63740533D01*
X103511904Y-63740533D02*
X103464285Y-63883390D01*
X103464285Y-63883390D02*
X102892857Y-64454819D01*
X102892857Y-64454819D02*
X103511904Y-64454819D01*
X52704819Y-44666666D02*
X52228628Y-44999999D01*
X52704819Y-45238094D02*
X51704819Y-45238094D01*
X51704819Y-45238094D02*
X51704819Y-44857142D01*
X51704819Y-44857142D02*
X51752438Y-44761904D01*
X51752438Y-44761904D02*
X51800057Y-44714285D01*
X51800057Y-44714285D02*
X51895295Y-44666666D01*
X51895295Y-44666666D02*
X52038152Y-44666666D01*
X52038152Y-44666666D02*
X52133390Y-44714285D01*
X52133390Y-44714285D02*
X52181009Y-44761904D01*
X52181009Y-44761904D02*
X52228628Y-44857142D01*
X52228628Y-44857142D02*
X52228628Y-45238094D01*
X52038152Y-43809523D02*
X52704819Y-43809523D01*
X51657200Y-44047618D02*
X52371485Y-44285713D01*
X52371485Y-44285713D02*
X52371485Y-43666666D01*
X99404819Y-82042857D02*
X98928628Y-82376190D01*
X99404819Y-82614285D02*
X98404819Y-82614285D01*
X98404819Y-82614285D02*
X98404819Y-82233333D01*
X98404819Y-82233333D02*
X98452438Y-82138095D01*
X98452438Y-82138095D02*
X98500057Y-82090476D01*
X98500057Y-82090476D02*
X98595295Y-82042857D01*
X98595295Y-82042857D02*
X98738152Y-82042857D01*
X98738152Y-82042857D02*
X98833390Y-82090476D01*
X98833390Y-82090476D02*
X98881009Y-82138095D01*
X98881009Y-82138095D02*
X98928628Y-82233333D01*
X98928628Y-82233333D02*
X98928628Y-82614285D01*
X98404819Y-81709523D02*
X98404819Y-81090476D01*
X98404819Y-81090476D02*
X98785771Y-81423809D01*
X98785771Y-81423809D02*
X98785771Y-81280952D01*
X98785771Y-81280952D02*
X98833390Y-81185714D01*
X98833390Y-81185714D02*
X98881009Y-81138095D01*
X98881009Y-81138095D02*
X98976247Y-81090476D01*
X98976247Y-81090476D02*
X99214342Y-81090476D01*
X99214342Y-81090476D02*
X99309580Y-81138095D01*
X99309580Y-81138095D02*
X99357200Y-81185714D01*
X99357200Y-81185714D02*
X99404819Y-81280952D01*
X99404819Y-81280952D02*
X99404819Y-81566666D01*
X99404819Y-81566666D02*
X99357200Y-81661904D01*
X99357200Y-81661904D02*
X99309580Y-81709523D01*
X99404819Y-80138095D02*
X99404819Y-80709523D01*
X99404819Y-80423809D02*
X98404819Y-80423809D01*
X98404819Y-80423809D02*
X98547676Y-80519047D01*
X98547676Y-80519047D02*
X98642914Y-80614285D01*
X98642914Y-80614285D02*
X98690533Y-80709523D01*
X89249819Y-77765094D02*
X88249819Y-77765094D01*
X88249819Y-77765094D02*
X88249819Y-77526999D01*
X88249819Y-77526999D02*
X88297438Y-77384142D01*
X88297438Y-77384142D02*
X88392676Y-77288904D01*
X88392676Y-77288904D02*
X88487914Y-77241285D01*
X88487914Y-77241285D02*
X88678390Y-77193666D01*
X88678390Y-77193666D02*
X88821247Y-77193666D01*
X88821247Y-77193666D02*
X89011723Y-77241285D01*
X89011723Y-77241285D02*
X89106961Y-77288904D01*
X89106961Y-77288904D02*
X89202200Y-77384142D01*
X89202200Y-77384142D02*
X89249819Y-77526999D01*
X89249819Y-77526999D02*
X89249819Y-77765094D01*
X88345057Y-76812713D02*
X88297438Y-76765094D01*
X88297438Y-76765094D02*
X88249819Y-76669856D01*
X88249819Y-76669856D02*
X88249819Y-76431761D01*
X88249819Y-76431761D02*
X88297438Y-76336523D01*
X88297438Y-76336523D02*
X88345057Y-76288904D01*
X88345057Y-76288904D02*
X88440295Y-76241285D01*
X88440295Y-76241285D02*
X88535533Y-76241285D01*
X88535533Y-76241285D02*
X88678390Y-76288904D01*
X88678390Y-76288904D02*
X89249819Y-76860332D01*
X89249819Y-76860332D02*
X89249819Y-76241285D01*
X104504819Y-77392857D02*
X104028628Y-77726190D01*
X104504819Y-77964285D02*
X103504819Y-77964285D01*
X103504819Y-77964285D02*
X103504819Y-77583333D01*
X103504819Y-77583333D02*
X103552438Y-77488095D01*
X103552438Y-77488095D02*
X103600057Y-77440476D01*
X103600057Y-77440476D02*
X103695295Y-77392857D01*
X103695295Y-77392857D02*
X103838152Y-77392857D01*
X103838152Y-77392857D02*
X103933390Y-77440476D01*
X103933390Y-77440476D02*
X103981009Y-77488095D01*
X103981009Y-77488095D02*
X104028628Y-77583333D01*
X104028628Y-77583333D02*
X104028628Y-77964285D01*
X103600057Y-77011904D02*
X103552438Y-76964285D01*
X103552438Y-76964285D02*
X103504819Y-76869047D01*
X103504819Y-76869047D02*
X103504819Y-76630952D01*
X103504819Y-76630952D02*
X103552438Y-76535714D01*
X103552438Y-76535714D02*
X103600057Y-76488095D01*
X103600057Y-76488095D02*
X103695295Y-76440476D01*
X103695295Y-76440476D02*
X103790533Y-76440476D01*
X103790533Y-76440476D02*
X103933390Y-76488095D01*
X103933390Y-76488095D02*
X104504819Y-77059523D01*
X104504819Y-77059523D02*
X104504819Y-76440476D01*
X103838152Y-75583333D02*
X104504819Y-75583333D01*
X103457200Y-75821428D02*
X104171485Y-76059523D01*
X104171485Y-76059523D02*
X104171485Y-75440476D01*
X49204819Y-44416666D02*
X48728628Y-44749999D01*
X49204819Y-44988094D02*
X48204819Y-44988094D01*
X48204819Y-44988094D02*
X48204819Y-44607142D01*
X48204819Y-44607142D02*
X48252438Y-44511904D01*
X48252438Y-44511904D02*
X48300057Y-44464285D01*
X48300057Y-44464285D02*
X48395295Y-44416666D01*
X48395295Y-44416666D02*
X48538152Y-44416666D01*
X48538152Y-44416666D02*
X48633390Y-44464285D01*
X48633390Y-44464285D02*
X48681009Y-44511904D01*
X48681009Y-44511904D02*
X48728628Y-44607142D01*
X48728628Y-44607142D02*
X48728628Y-44988094D01*
X49204819Y-43464285D02*
X49204819Y-44035713D01*
X49204819Y-43749999D02*
X48204819Y-43749999D01*
X48204819Y-43749999D02*
X48347676Y-43845237D01*
X48347676Y-43845237D02*
X48442914Y-43940475D01*
X48442914Y-43940475D02*
X48490533Y-44035713D01*
X56204819Y-44916666D02*
X55728628Y-45249999D01*
X56204819Y-45488094D02*
X55204819Y-45488094D01*
X55204819Y-45488094D02*
X55204819Y-45107142D01*
X55204819Y-45107142D02*
X55252438Y-45011904D01*
X55252438Y-45011904D02*
X55300057Y-44964285D01*
X55300057Y-44964285D02*
X55395295Y-44916666D01*
X55395295Y-44916666D02*
X55538152Y-44916666D01*
X55538152Y-44916666D02*
X55633390Y-44964285D01*
X55633390Y-44964285D02*
X55681009Y-45011904D01*
X55681009Y-45011904D02*
X55728628Y-45107142D01*
X55728628Y-45107142D02*
X55728628Y-45488094D01*
X55300057Y-44535713D02*
X55252438Y-44488094D01*
X55252438Y-44488094D02*
X55204819Y-44392856D01*
X55204819Y-44392856D02*
X55204819Y-44154761D01*
X55204819Y-44154761D02*
X55252438Y-44059523D01*
X55252438Y-44059523D02*
X55300057Y-44011904D01*
X55300057Y-44011904D02*
X55395295Y-43964285D01*
X55395295Y-43964285D02*
X55490533Y-43964285D01*
X55490533Y-43964285D02*
X55633390Y-44011904D01*
X55633390Y-44011904D02*
X56204819Y-44583332D01*
X56204819Y-44583332D02*
X56204819Y-43964285D01*
X101054819Y-77442857D02*
X100578628Y-77776190D01*
X101054819Y-78014285D02*
X100054819Y-78014285D01*
X100054819Y-78014285D02*
X100054819Y-77633333D01*
X100054819Y-77633333D02*
X100102438Y-77538095D01*
X100102438Y-77538095D02*
X100150057Y-77490476D01*
X100150057Y-77490476D02*
X100245295Y-77442857D01*
X100245295Y-77442857D02*
X100388152Y-77442857D01*
X100388152Y-77442857D02*
X100483390Y-77490476D01*
X100483390Y-77490476D02*
X100531009Y-77538095D01*
X100531009Y-77538095D02*
X100578628Y-77633333D01*
X100578628Y-77633333D02*
X100578628Y-78014285D01*
X100150057Y-77061904D02*
X100102438Y-77014285D01*
X100102438Y-77014285D02*
X100054819Y-76919047D01*
X100054819Y-76919047D02*
X100054819Y-76680952D01*
X100054819Y-76680952D02*
X100102438Y-76585714D01*
X100102438Y-76585714D02*
X100150057Y-76538095D01*
X100150057Y-76538095D02*
X100245295Y-76490476D01*
X100245295Y-76490476D02*
X100340533Y-76490476D01*
X100340533Y-76490476D02*
X100483390Y-76538095D01*
X100483390Y-76538095D02*
X101054819Y-77109523D01*
X101054819Y-77109523D02*
X101054819Y-76490476D01*
X100054819Y-76157142D02*
X100054819Y-75538095D01*
X100054819Y-75538095D02*
X100435771Y-75871428D01*
X100435771Y-75871428D02*
X100435771Y-75728571D01*
X100435771Y-75728571D02*
X100483390Y-75633333D01*
X100483390Y-75633333D02*
X100531009Y-75585714D01*
X100531009Y-75585714D02*
X100626247Y-75538095D01*
X100626247Y-75538095D02*
X100864342Y-75538095D01*
X100864342Y-75538095D02*
X100959580Y-75585714D01*
X100959580Y-75585714D02*
X101007200Y-75633333D01*
X101007200Y-75633333D02*
X101054819Y-75728571D01*
X101054819Y-75728571D02*
X101054819Y-76014285D01*
X101054819Y-76014285D02*
X101007200Y-76109523D01*
X101007200Y-76109523D02*
X100959580Y-76157142D01*
X45704819Y-44666666D02*
X45228628Y-44999999D01*
X45704819Y-45238094D02*
X44704819Y-45238094D01*
X44704819Y-45238094D02*
X44704819Y-44857142D01*
X44704819Y-44857142D02*
X44752438Y-44761904D01*
X44752438Y-44761904D02*
X44800057Y-44714285D01*
X44800057Y-44714285D02*
X44895295Y-44666666D01*
X44895295Y-44666666D02*
X45038152Y-44666666D01*
X45038152Y-44666666D02*
X45133390Y-44714285D01*
X45133390Y-44714285D02*
X45181009Y-44761904D01*
X45181009Y-44761904D02*
X45228628Y-44857142D01*
X45228628Y-44857142D02*
X45228628Y-45238094D01*
X44704819Y-44333332D02*
X44704819Y-43714285D01*
X44704819Y-43714285D02*
X45085771Y-44047618D01*
X45085771Y-44047618D02*
X45085771Y-43904761D01*
X45085771Y-43904761D02*
X45133390Y-43809523D01*
X45133390Y-43809523D02*
X45181009Y-43761904D01*
X45181009Y-43761904D02*
X45276247Y-43714285D01*
X45276247Y-43714285D02*
X45514342Y-43714285D01*
X45514342Y-43714285D02*
X45609580Y-43761904D01*
X45609580Y-43761904D02*
X45657200Y-43809523D01*
X45657200Y-43809523D02*
X45704819Y-43904761D01*
X45704819Y-43904761D02*
X45704819Y-44190475D01*
X45704819Y-44190475D02*
X45657200Y-44285713D01*
X45657200Y-44285713D02*
X45609580Y-44333332D01*
X85857142Y-64109580D02*
X85809523Y-64157200D01*
X85809523Y-64157200D02*
X85666666Y-64204819D01*
X85666666Y-64204819D02*
X85571428Y-64204819D01*
X85571428Y-64204819D02*
X85428571Y-64157200D01*
X85428571Y-64157200D02*
X85333333Y-64061961D01*
X85333333Y-64061961D02*
X85285714Y-63966723D01*
X85285714Y-63966723D02*
X85238095Y-63776247D01*
X85238095Y-63776247D02*
X85238095Y-63633390D01*
X85238095Y-63633390D02*
X85285714Y-63442914D01*
X85285714Y-63442914D02*
X85333333Y-63347676D01*
X85333333Y-63347676D02*
X85428571Y-63252438D01*
X85428571Y-63252438D02*
X85571428Y-63204819D01*
X85571428Y-63204819D02*
X85666666Y-63204819D01*
X85666666Y-63204819D02*
X85809523Y-63252438D01*
X85809523Y-63252438D02*
X85857142Y-63300057D01*
X86238095Y-63300057D02*
X86285714Y-63252438D01*
X86285714Y-63252438D02*
X86380952Y-63204819D01*
X86380952Y-63204819D02*
X86619047Y-63204819D01*
X86619047Y-63204819D02*
X86714285Y-63252438D01*
X86714285Y-63252438D02*
X86761904Y-63300057D01*
X86761904Y-63300057D02*
X86809523Y-63395295D01*
X86809523Y-63395295D02*
X86809523Y-63490533D01*
X86809523Y-63490533D02*
X86761904Y-63633390D01*
X86761904Y-63633390D02*
X86190476Y-64204819D01*
X86190476Y-64204819D02*
X86809523Y-64204819D01*
X87761904Y-64204819D02*
X87190476Y-64204819D01*
X87476190Y-64204819D02*
X87476190Y-63204819D01*
X87476190Y-63204819D02*
X87380952Y-63347676D01*
X87380952Y-63347676D02*
X87285714Y-63442914D01*
X87285714Y-63442914D02*
X87190476Y-63490533D01*
X71666666Y-56354819D02*
X71666666Y-57069104D01*
X71666666Y-57069104D02*
X71619047Y-57211961D01*
X71619047Y-57211961D02*
X71523809Y-57307200D01*
X71523809Y-57307200D02*
X71380952Y-57354819D01*
X71380952Y-57354819D02*
X71285714Y-57354819D01*
X72666666Y-57354819D02*
X72095238Y-57354819D01*
X72380952Y-57354819D02*
X72380952Y-56354819D01*
X72380952Y-56354819D02*
X72285714Y-56497676D01*
X72285714Y-56497676D02*
X72190476Y-56592914D01*
X72190476Y-56592914D02*
X72095238Y-56640533D01*
X60366666Y-80229819D02*
X60366666Y-80944104D01*
X60366666Y-80944104D02*
X60319047Y-81086961D01*
X60319047Y-81086961D02*
X60223809Y-81182200D01*
X60223809Y-81182200D02*
X60080952Y-81229819D01*
X60080952Y-81229819D02*
X59985714Y-81229819D01*
X60795238Y-80325057D02*
X60842857Y-80277438D01*
X60842857Y-80277438D02*
X60938095Y-80229819D01*
X60938095Y-80229819D02*
X61176190Y-80229819D01*
X61176190Y-80229819D02*
X61271428Y-80277438D01*
X61271428Y-80277438D02*
X61319047Y-80325057D01*
X61319047Y-80325057D02*
X61366666Y-80420295D01*
X61366666Y-80420295D02*
X61366666Y-80515533D01*
X61366666Y-80515533D02*
X61319047Y-80658390D01*
X61319047Y-80658390D02*
X60747619Y-81229819D01*
X60747619Y-81229819D02*
X61366666Y-81229819D01*
X42054819Y-44466666D02*
X41578628Y-44799999D01*
X42054819Y-45038094D02*
X41054819Y-45038094D01*
X41054819Y-45038094D02*
X41054819Y-44657142D01*
X41054819Y-44657142D02*
X41102438Y-44561904D01*
X41102438Y-44561904D02*
X41150057Y-44514285D01*
X41150057Y-44514285D02*
X41245295Y-44466666D01*
X41245295Y-44466666D02*
X41388152Y-44466666D01*
X41388152Y-44466666D02*
X41483390Y-44514285D01*
X41483390Y-44514285D02*
X41531009Y-44561904D01*
X41531009Y-44561904D02*
X41578628Y-44657142D01*
X41578628Y-44657142D02*
X41578628Y-45038094D01*
X41054819Y-43561904D02*
X41054819Y-44038094D01*
X41054819Y-44038094D02*
X41531009Y-44085713D01*
X41531009Y-44085713D02*
X41483390Y-44038094D01*
X41483390Y-44038094D02*
X41435771Y-43942856D01*
X41435771Y-43942856D02*
X41435771Y-43704761D01*
X41435771Y-43704761D02*
X41483390Y-43609523D01*
X41483390Y-43609523D02*
X41531009Y-43561904D01*
X41531009Y-43561904D02*
X41626247Y-43514285D01*
X41626247Y-43514285D02*
X41864342Y-43514285D01*
X41864342Y-43514285D02*
X41959580Y-43561904D01*
X41959580Y-43561904D02*
X42007200Y-43609523D01*
X42007200Y-43609523D02*
X42054819Y-43704761D01*
X42054819Y-43704761D02*
X42054819Y-43942856D01*
X42054819Y-43942856D02*
X42007200Y-44038094D01*
X42007200Y-44038094D02*
X41959580Y-44085713D01*
X39539580Y-75605357D02*
X39587200Y-75652976D01*
X39587200Y-75652976D02*
X39634819Y-75795833D01*
X39634819Y-75795833D02*
X39634819Y-75891071D01*
X39634819Y-75891071D02*
X39587200Y-76033928D01*
X39587200Y-76033928D02*
X39491961Y-76129166D01*
X39491961Y-76129166D02*
X39396723Y-76176785D01*
X39396723Y-76176785D02*
X39206247Y-76224404D01*
X39206247Y-76224404D02*
X39063390Y-76224404D01*
X39063390Y-76224404D02*
X38872914Y-76176785D01*
X38872914Y-76176785D02*
X38777676Y-76129166D01*
X38777676Y-76129166D02*
X38682438Y-76033928D01*
X38682438Y-76033928D02*
X38634819Y-75891071D01*
X38634819Y-75891071D02*
X38634819Y-75795833D01*
X38634819Y-75795833D02*
X38682438Y-75652976D01*
X38682438Y-75652976D02*
X38730057Y-75605357D01*
X39634819Y-74652976D02*
X39634819Y-75224404D01*
X39634819Y-74938690D02*
X38634819Y-74938690D01*
X38634819Y-74938690D02*
X38777676Y-75033928D01*
X38777676Y-75033928D02*
X38872914Y-75129166D01*
X38872914Y-75129166D02*
X38920533Y-75224404D01*
X39634819Y-74176785D02*
X39634819Y-73986309D01*
X39634819Y-73986309D02*
X39587200Y-73891071D01*
X39587200Y-73891071D02*
X39539580Y-73843452D01*
X39539580Y-73843452D02*
X39396723Y-73748214D01*
X39396723Y-73748214D02*
X39206247Y-73700595D01*
X39206247Y-73700595D02*
X38825295Y-73700595D01*
X38825295Y-73700595D02*
X38730057Y-73748214D01*
X38730057Y-73748214D02*
X38682438Y-73795833D01*
X38682438Y-73795833D02*
X38634819Y-73891071D01*
X38634819Y-73891071D02*
X38634819Y-74081547D01*
X38634819Y-74081547D02*
X38682438Y-74176785D01*
X38682438Y-74176785D02*
X38730057Y-74224404D01*
X38730057Y-74224404D02*
X38825295Y-74272023D01*
X38825295Y-74272023D02*
X39063390Y-74272023D01*
X39063390Y-74272023D02*
X39158628Y-74224404D01*
X39158628Y-74224404D02*
X39206247Y-74176785D01*
X39206247Y-74176785D02*
X39253866Y-74081547D01*
X39253866Y-74081547D02*
X39253866Y-73891071D01*
X39253866Y-73891071D02*
X39206247Y-73795833D01*
X39206247Y-73795833D02*
X39158628Y-73748214D01*
X39158628Y-73748214D02*
X39063390Y-73700595D01*
X92083333Y-48609580D02*
X92035714Y-48657200D01*
X92035714Y-48657200D02*
X91892857Y-48704819D01*
X91892857Y-48704819D02*
X91797619Y-48704819D01*
X91797619Y-48704819D02*
X91654762Y-48657200D01*
X91654762Y-48657200D02*
X91559524Y-48561961D01*
X91559524Y-48561961D02*
X91511905Y-48466723D01*
X91511905Y-48466723D02*
X91464286Y-48276247D01*
X91464286Y-48276247D02*
X91464286Y-48133390D01*
X91464286Y-48133390D02*
X91511905Y-47942914D01*
X91511905Y-47942914D02*
X91559524Y-47847676D01*
X91559524Y-47847676D02*
X91654762Y-47752438D01*
X91654762Y-47752438D02*
X91797619Y-47704819D01*
X91797619Y-47704819D02*
X91892857Y-47704819D01*
X91892857Y-47704819D02*
X92035714Y-47752438D01*
X92035714Y-47752438D02*
X92083333Y-47800057D01*
X92940476Y-47704819D02*
X92750000Y-47704819D01*
X92750000Y-47704819D02*
X92654762Y-47752438D01*
X92654762Y-47752438D02*
X92607143Y-47800057D01*
X92607143Y-47800057D02*
X92511905Y-47942914D01*
X92511905Y-47942914D02*
X92464286Y-48133390D01*
X92464286Y-48133390D02*
X92464286Y-48514342D01*
X92464286Y-48514342D02*
X92511905Y-48609580D01*
X92511905Y-48609580D02*
X92559524Y-48657200D01*
X92559524Y-48657200D02*
X92654762Y-48704819D01*
X92654762Y-48704819D02*
X92845238Y-48704819D01*
X92845238Y-48704819D02*
X92940476Y-48657200D01*
X92940476Y-48657200D02*
X92988095Y-48609580D01*
X92988095Y-48609580D02*
X93035714Y-48514342D01*
X93035714Y-48514342D02*
X93035714Y-48276247D01*
X93035714Y-48276247D02*
X92988095Y-48181009D01*
X92988095Y-48181009D02*
X92940476Y-48133390D01*
X92940476Y-48133390D02*
X92845238Y-48085771D01*
X92845238Y-48085771D02*
X92654762Y-48085771D01*
X92654762Y-48085771D02*
X92559524Y-48133390D01*
X92559524Y-48133390D02*
X92511905Y-48181009D01*
X92511905Y-48181009D02*
X92464286Y-48276247D01*
X93304819Y-77592857D02*
X92828628Y-77926190D01*
X93304819Y-78164285D02*
X92304819Y-78164285D01*
X92304819Y-78164285D02*
X92304819Y-77783333D01*
X92304819Y-77783333D02*
X92352438Y-77688095D01*
X92352438Y-77688095D02*
X92400057Y-77640476D01*
X92400057Y-77640476D02*
X92495295Y-77592857D01*
X92495295Y-77592857D02*
X92638152Y-77592857D01*
X92638152Y-77592857D02*
X92733390Y-77640476D01*
X92733390Y-77640476D02*
X92781009Y-77688095D01*
X92781009Y-77688095D02*
X92828628Y-77783333D01*
X92828628Y-77783333D02*
X92828628Y-78164285D01*
X93304819Y-76640476D02*
X93304819Y-77211904D01*
X93304819Y-76926190D02*
X92304819Y-76926190D01*
X92304819Y-76926190D02*
X92447676Y-77021428D01*
X92447676Y-77021428D02*
X92542914Y-77116666D01*
X92542914Y-77116666D02*
X92590533Y-77211904D01*
X92733390Y-76069047D02*
X92685771Y-76164285D01*
X92685771Y-76164285D02*
X92638152Y-76211904D01*
X92638152Y-76211904D02*
X92542914Y-76259523D01*
X92542914Y-76259523D02*
X92495295Y-76259523D01*
X92495295Y-76259523D02*
X92400057Y-76211904D01*
X92400057Y-76211904D02*
X92352438Y-76164285D01*
X92352438Y-76164285D02*
X92304819Y-76069047D01*
X92304819Y-76069047D02*
X92304819Y-75878571D01*
X92304819Y-75878571D02*
X92352438Y-75783333D01*
X92352438Y-75783333D02*
X92400057Y-75735714D01*
X92400057Y-75735714D02*
X92495295Y-75688095D01*
X92495295Y-75688095D02*
X92542914Y-75688095D01*
X92542914Y-75688095D02*
X92638152Y-75735714D01*
X92638152Y-75735714D02*
X92685771Y-75783333D01*
X92685771Y-75783333D02*
X92733390Y-75878571D01*
X92733390Y-75878571D02*
X92733390Y-76069047D01*
X92733390Y-76069047D02*
X92781009Y-76164285D01*
X92781009Y-76164285D02*
X92828628Y-76211904D01*
X92828628Y-76211904D02*
X92923866Y-76259523D01*
X92923866Y-76259523D02*
X93114342Y-76259523D01*
X93114342Y-76259523D02*
X93209580Y-76211904D01*
X93209580Y-76211904D02*
X93257200Y-76164285D01*
X93257200Y-76164285D02*
X93304819Y-76069047D01*
X93304819Y-76069047D02*
X93304819Y-75878571D01*
X93304819Y-75878571D02*
X93257200Y-75783333D01*
X93257200Y-75783333D02*
X93209580Y-75735714D01*
X93209580Y-75735714D02*
X93114342Y-75688095D01*
X93114342Y-75688095D02*
X92923866Y-75688095D01*
X92923866Y-75688095D02*
X92828628Y-75735714D01*
X92828628Y-75735714D02*
X92781009Y-75783333D01*
X92781009Y-75783333D02*
X92733390Y-75878571D01*
D13*
%TO.C,U2*%
X103085000Y-54490000D02*
X97565000Y-54490000D01*
X103085000Y-54220000D02*
X103085000Y-54490000D01*
X103085000Y-48970000D02*
X103085000Y-49240000D01*
X97565000Y-54490000D02*
X97565000Y-54220000D01*
X97565000Y-49240000D02*
X97565000Y-48970000D01*
X97565000Y-48970000D02*
X103085000Y-48970000D01*
X104255000Y-54700000D02*
X103575000Y-54700000D01*
X103915000Y-54230000D01*
X104255000Y-54700000D01*
G36*
X104255000Y-54700000D02*
G01*
X103575000Y-54700000D01*
X103915000Y-54230000D01*
X104255000Y-54700000D01*
G37*
%TO.C,R28*%
X110465000Y-81172936D02*
X110465000Y-81627064D01*
X111935000Y-81172936D02*
X111935000Y-81627064D01*
%TO.C,R32*%
X106965000Y-81172936D02*
X106965000Y-81627064D01*
X108435000Y-81172936D02*
X108435000Y-81627064D01*
%TO.C,R11*%
X97272936Y-46015000D02*
X97727064Y-46015000D01*
X97272936Y-47485000D02*
X97727064Y-47485000D01*
%TO.C,R9*%
X87022936Y-49265000D02*
X87477064Y-49265000D01*
X87022936Y-50735000D02*
X87477064Y-50735000D01*
%TO.C,C12*%
X116765000Y-50988748D02*
X116765000Y-51511252D01*
X118235000Y-50988748D02*
X118235000Y-51511252D01*
%TO.C,C14*%
X86038748Y-60765000D02*
X86561252Y-60765000D01*
X86038748Y-62235000D02*
X86561252Y-62235000D01*
%TO.C,C2*%
X45302500Y-77988748D02*
X45302500Y-78511252D01*
X46772500Y-77988748D02*
X46772500Y-78511252D01*
%TO.C,R15*%
X96227064Y-59765000D02*
X95772936Y-59765000D01*
X96227064Y-61235000D02*
X95772936Y-61235000D01*
%TO.C,C9*%
X64338748Y-62665000D02*
X64861252Y-62665000D01*
X64338748Y-64135000D02*
X64861252Y-64135000D01*
%TO.C,J3*%
X32170000Y-74770000D02*
X32170000Y-46770000D01*
X32170000Y-77370000D02*
X32170000Y-76040000D01*
X33500000Y-77370000D02*
X32170000Y-77370000D01*
X34830000Y-46770000D02*
X32170000Y-46770000D01*
X34830000Y-74770000D02*
X32170000Y-74770000D01*
X34830000Y-74770000D02*
X34830000Y-46770000D01*
D14*
%TO.C,Q1*%
X53070000Y-79500000D02*
X54470000Y-79500000D01*
X53070000Y-81400000D02*
X53070000Y-80600000D01*
X54470000Y-81000000D02*
X54470000Y-80600000D01*
X54470000Y-82500000D02*
X53070000Y-82500000D01*
X55170000Y-82700000D02*
G75*
G02*
X54870000Y-82700000I-150000J0D01*
G01*
X54870000Y-82700000D02*
G75*
G02*
X55170000Y-82700000I150000J0D01*
G01*
D13*
%TO.C,R27*%
X109515000Y-62727064D02*
X109515000Y-62272936D01*
X110985000Y-62727064D02*
X110985000Y-62272936D01*
%TO.C,C10*%
X102988748Y-46015000D02*
X103511252Y-46015000D01*
X102988748Y-47485000D02*
X103511252Y-47485000D01*
%TO.C,C4*%
X53488748Y-73515000D02*
X54011252Y-73515000D01*
X53488748Y-74985000D02*
X54011252Y-74985000D01*
%TO.C,XTAL1*%
X62840000Y-57340000D02*
X62840000Y-60760000D01*
X62840000Y-60760000D02*
X66960000Y-60760000D01*
%TO.C,C20*%
X68052500Y-60390000D02*
X68052500Y-62740000D01*
X68052500Y-67210000D02*
X68052500Y-64860000D01*
X73808063Y-60390000D02*
X68052500Y-60390000D01*
X73808063Y-67210000D02*
X68052500Y-67210000D01*
X74872500Y-61454437D02*
X73808063Y-60390000D01*
X74872500Y-61454437D02*
X74872500Y-62740000D01*
X74872500Y-66145563D02*
X73808063Y-67210000D01*
X74872500Y-66145563D02*
X74872500Y-64860000D01*
%TO.C,C11*%
X107515000Y-52988748D02*
X107515000Y-53511252D01*
X108985000Y-52988748D02*
X108985000Y-53511252D01*
%TO.C,C13*%
X111240000Y-49440000D02*
X112440000Y-49440000D01*
X111240000Y-52895563D02*
X111240000Y-49440000D01*
X111690000Y-54450000D02*
X112190000Y-54450000D01*
X111940000Y-54700000D02*
X111940000Y-54200000D01*
X112304437Y-53960000D02*
X111240000Y-52895563D01*
X112304437Y-53960000D02*
X112440000Y-53960000D01*
X114695563Y-53960000D02*
X114560000Y-53960000D01*
X114695563Y-53960000D02*
X115760000Y-52895563D01*
X115760000Y-49440000D02*
X114560000Y-49440000D01*
X115760000Y-52895563D02*
X115760000Y-49440000D01*
%TO.C,C18*%
X63765000Y-72511252D02*
X63765000Y-71988748D01*
X65235000Y-72511252D02*
X65235000Y-71988748D01*
%TO.C,C15*%
X77727500Y-76451248D02*
X77727500Y-76973752D01*
X79197500Y-76451248D02*
X79197500Y-76973752D01*
%TO.C,R10*%
X48765000Y-78477064D02*
X48765000Y-78022936D01*
X50235000Y-78477064D02*
X50235000Y-78022936D01*
%TO.C,R8*%
X53977064Y-70015000D02*
X53522936Y-70015000D01*
X53977064Y-71485000D02*
X53522936Y-71485000D01*
%TO.C,R13*%
X95772936Y-65015000D02*
X96227064Y-65015000D01*
X95772936Y-66485000D02*
X96227064Y-66485000D01*
%TO.C,U3*%
X69100000Y-68090000D02*
X72860000Y-68090000D01*
X69100000Y-74910000D02*
X72860000Y-74910000D01*
X72860000Y-68090000D02*
X72860000Y-69350000D01*
X72860000Y-74910000D02*
X72860000Y-73650000D01*
X67820000Y-68190000D02*
X67580000Y-67860000D01*
X68060000Y-67860000D01*
X67820000Y-68190000D01*
G36*
X67820000Y-68190000D02*
G01*
X67580000Y-67860000D01*
X68060000Y-67860000D01*
X67820000Y-68190000D01*
G37*
%TO.C,Q3*%
X94177500Y-79190000D02*
X95697500Y-79190000D01*
X94177500Y-79240000D02*
X94177500Y-79190000D01*
X94177500Y-81140000D02*
X94177500Y-80360000D01*
X94177500Y-82310000D02*
X94177500Y-82260000D01*
X95697500Y-79190000D02*
X95697500Y-80190000D01*
X95697500Y-81310000D02*
X95697500Y-82310000D01*
X95697500Y-82310000D02*
X94177500Y-82310000D01*
X93877500Y-80700000D02*
X93397500Y-80700000D01*
X93637500Y-80370000D01*
X93877500Y-80700000D01*
G36*
X93877500Y-80700000D02*
G01*
X93397500Y-80700000D01*
X93637500Y-80370000D01*
X93877500Y-80700000D01*
G37*
%TO.C,R14*%
X106015000Y-62272936D02*
X106015000Y-62727064D01*
X107485000Y-62272936D02*
X107485000Y-62727064D01*
%TO.C,C5*%
X60265000Y-65538748D02*
X60265000Y-66061252D01*
X61735000Y-65538748D02*
X61735000Y-66061252D01*
%TO.C,C3*%
X58765000Y-71238748D02*
X58765000Y-71761252D01*
X60235000Y-71238748D02*
X60235000Y-71761252D01*
%TO.C,R29*%
X103465000Y-81172936D02*
X103465000Y-81627064D01*
X104935000Y-81172936D02*
X104935000Y-81627064D01*
%TO.C,C1*%
X60515000Y-44238748D02*
X60515000Y-44761252D01*
X61985000Y-44238748D02*
X61985000Y-44761252D01*
%TO.C,R30*%
X86265000Y-81022936D02*
X86265000Y-81477064D01*
X87735000Y-81022936D02*
X87735000Y-81477064D01*
%TO.C,R21*%
X86265000Y-76727064D02*
X86265000Y-76272936D01*
X87735000Y-76727064D02*
X87735000Y-76272936D01*
%TO.C,R26*%
X112065000Y-76977064D02*
X112065000Y-76522936D01*
X113535000Y-76977064D02*
X113535000Y-76522936D01*
%TO.C,R7*%
X53977064Y-77015000D02*
X53522936Y-77015000D01*
X53977064Y-78485000D02*
X53522936Y-78485000D01*
%TO.C,T1*%
X53101000Y-56799000D02*
G75*
G02*
X46501000Y-56799000I-3300000J0D01*
G01*
X46501000Y-56799000D02*
G75*
G02*
X53101000Y-56799000I3300000J0D01*
G01*
X57401000Y-56799000D02*
G75*
G02*
X42201000Y-56799000I-7600000J0D01*
G01*
X42201000Y-56799000D02*
G75*
G02*
X57401000Y-56799000I7600000J0D01*
G01*
%TO.C,R17*%
X96227064Y-68515000D02*
X95772936Y-68515000D01*
X96227064Y-69985000D02*
X95772936Y-69985000D01*
%TO.C,C8*%
X68738748Y-57265000D02*
X69261252Y-57265000D01*
X68738748Y-58735000D02*
X69261252Y-58735000D01*
%TO.C,C7*%
X102988748Y-42265000D02*
X103511252Y-42265000D01*
X102988748Y-43735000D02*
X103511252Y-43735000D01*
%TO.C,C16*%
X101988748Y-68515000D02*
X102511252Y-68515000D01*
X101988748Y-69985000D02*
X102511252Y-69985000D01*
%TO.C,Q2*%
X81240000Y-80427500D02*
X81290000Y-80427500D01*
X81240000Y-81947500D02*
X81240000Y-80427500D01*
X82240000Y-81947500D02*
X81240000Y-81947500D01*
X82410000Y-80427500D02*
X83190000Y-80427500D01*
X84310000Y-80427500D02*
X84360000Y-80427500D01*
X84360000Y-80427500D02*
X84360000Y-81947500D01*
X84360000Y-81947500D02*
X83360000Y-81947500D01*
X83180000Y-79887500D02*
X82850000Y-80127500D01*
X82850000Y-79647500D01*
X83180000Y-79887500D01*
G36*
X83180000Y-79887500D02*
G01*
X82850000Y-80127500D01*
X82850000Y-79647500D01*
X83180000Y-79887500D01*
G37*
%TO.C,A1*%
X76520000Y-56100000D02*
X76520000Y-74140000D01*
X76520000Y-74140000D02*
X79190000Y-74140000D01*
X79190000Y-58770000D02*
X79190000Y-56100000D01*
X79190000Y-58770000D02*
X117290000Y-58770000D01*
X79190000Y-71470000D02*
X79190000Y-74140000D01*
X81730000Y-71470000D02*
X79190000Y-71470000D01*
X81730000Y-71470000D02*
X81730000Y-74140000D01*
X81730000Y-71470000D02*
X117290000Y-71470000D01*
X81730000Y-74140000D02*
X119960000Y-74140000D01*
X112080000Y-61180000D02*
X122500000Y-61180000D01*
X112080000Y-69060000D02*
X112080000Y-61180000D01*
X117290000Y-58770000D02*
X117290000Y-56100000D01*
X117290000Y-71470000D02*
X117290000Y-74140000D01*
X119960000Y-56100000D02*
X76520000Y-56100000D01*
X119960000Y-56100000D02*
X119960000Y-61180000D01*
X119960000Y-74140000D02*
X119960000Y-69060000D01*
X122500000Y-61180000D02*
X122500000Y-69060000D01*
X122500000Y-69060000D02*
X112080000Y-69060000D01*
%TO.C,R6*%
X58265000Y-78227064D02*
X58265000Y-77772936D01*
X59735000Y-78227064D02*
X59735000Y-77772936D01*
%TO.C,R12*%
X92022936Y-52765000D02*
X92477064Y-52765000D01*
X92022936Y-54235000D02*
X92477064Y-54235000D01*
%TO.C,U1*%
X58777500Y-57890000D02*
X58952500Y-57890000D01*
X58777500Y-61110000D02*
X58777500Y-57890000D01*
X58952500Y-61110000D02*
X58777500Y-61110000D01*
X61822500Y-57890000D02*
X61997500Y-57890000D01*
X61997500Y-57890000D02*
X61997500Y-61110000D01*
X61997500Y-61110000D02*
X61822500Y-61110000D01*
X62157500Y-57580000D02*
X61827500Y-57340000D01*
X62157500Y-57100000D01*
X62157500Y-57580000D01*
G36*
X62157500Y-57580000D02*
G01*
X61827500Y-57340000D01*
X62157500Y-57100000D01*
X62157500Y-57580000D01*
G37*
%TO.C,D1*%
X97400000Y-74790000D02*
X97400000Y-78650000D01*
X99400000Y-74790000D02*
X97400000Y-74790000D01*
X99400000Y-74790000D02*
X99400000Y-78650000D01*
%TO.C,R19*%
X82272936Y-76765000D02*
X82727064Y-76765000D01*
X82272936Y-78235000D02*
X82727064Y-78235000D01*
%TO.C,C17*%
X77765000Y-81511252D02*
X77765000Y-80988748D01*
X79235000Y-81511252D02*
X79235000Y-80988748D01*
%TO.C,R20*%
X102477064Y-61265000D02*
X102022936Y-61265000D01*
X102477064Y-62735000D02*
X102022936Y-62735000D01*
%TO.C,R33*%
X109515000Y-67772936D02*
X109515000Y-68227064D01*
X110985000Y-67772936D02*
X110985000Y-68227064D01*
%TO.C,R25*%
X108565000Y-76977064D02*
X108565000Y-76522936D01*
X110035000Y-76977064D02*
X110035000Y-76522936D01*
%TO.C,R16*%
X96227064Y-62265000D02*
X95772936Y-62265000D01*
X96227064Y-63735000D02*
X95772936Y-63735000D01*
%TO.C,R22*%
X102022936Y-65015000D02*
X102477064Y-65015000D01*
X102022936Y-66485000D02*
X102477064Y-66485000D01*
%TO.C,R4*%
X53265000Y-44272936D02*
X53265000Y-44727064D01*
X54735000Y-44272936D02*
X54735000Y-44727064D01*
%TO.C,R31*%
X99965000Y-81172936D02*
X99965000Y-81627064D01*
X101435000Y-81172936D02*
X101435000Y-81627064D01*
%TO.C,D2*%
X89700000Y-79110000D02*
X89700000Y-75250000D01*
X89700000Y-79110000D02*
X91700000Y-79110000D01*
X91700000Y-79110000D02*
X91700000Y-75250000D01*
%TO.C,R24*%
X105065000Y-76977064D02*
X105065000Y-76522936D01*
X106535000Y-76977064D02*
X106535000Y-76522936D01*
%TO.C,R1*%
X49765000Y-44272936D02*
X49765000Y-44727064D01*
X51235000Y-44272936D02*
X51235000Y-44727064D01*
%TO.C,R2*%
X56765000Y-44272936D02*
X56765000Y-44727064D01*
X58235000Y-44272936D02*
X58235000Y-44727064D01*
%TO.C,R23*%
X101565000Y-76977064D02*
X101565000Y-76522936D01*
X103035000Y-76977064D02*
X103035000Y-76522936D01*
%TO.C,R3*%
X46265000Y-44272936D02*
X46265000Y-44727064D01*
X47735000Y-44272936D02*
X47735000Y-44727064D01*
%TO.C,C21*%
X86511252Y-64765000D02*
X85988748Y-64765000D01*
X86511252Y-66235000D02*
X85988748Y-66235000D01*
%TO.C,J1*%
X64500000Y-40200000D02*
X79500000Y-40200000D01*
X64500000Y-55200000D02*
X64500000Y-40200000D01*
X72000000Y-40400000D02*
X71000000Y-41400000D01*
X72000000Y-40400000D02*
X73000000Y-41400000D01*
X79500000Y-40200000D02*
X79500000Y-55200000D01*
X79500000Y-55200000D02*
X64500000Y-55200000D01*
%TO.C,J2*%
X62400000Y-79725000D02*
X63150000Y-79725000D01*
X63150000Y-76775000D02*
X68700000Y-76775000D01*
X63150000Y-79725000D02*
X63150000Y-76775000D01*
X74050000Y-82275000D02*
X75300000Y-82275000D01*
X74250000Y-76775000D02*
X68700000Y-76775000D01*
X74250000Y-79725000D02*
X74250000Y-76775000D01*
X75000000Y-79725000D02*
X74250000Y-79725000D01*
X75300000Y-82275000D02*
X75300000Y-81025000D01*
X64200000Y-81975000D02*
X62400000Y-81975000D01*
X62400000Y-81225000D01*
X64200000Y-81225000D01*
X64200000Y-81975000D01*
X71700000Y-81975000D02*
X65700000Y-81975000D01*
X65700000Y-81225000D01*
X71700000Y-81225000D01*
X71700000Y-81975000D01*
X75000000Y-81975000D02*
X73200000Y-81975000D01*
X73200000Y-81225000D01*
X75000000Y-81225000D01*
X75000000Y-81975000D01*
X75010000Y-81985000D02*
X62390000Y-81985000D01*
X62390000Y-76015000D01*
X75010000Y-76015000D01*
X75010000Y-81985000D01*
%TO.C,R5*%
X42515000Y-44272936D02*
X42515000Y-44727064D01*
X43985000Y-44272936D02*
X43985000Y-44727064D01*
%TO.C,C19*%
X36765000Y-74701248D02*
X36765000Y-75223752D01*
X38235000Y-74701248D02*
X38235000Y-75223752D01*
%TO.C,C6*%
X91988748Y-49265000D02*
X92511252Y-49265000D01*
X91988748Y-50735000D02*
X92511252Y-50735000D01*
%TO.C,R18*%
X93865000Y-76927064D02*
X93865000Y-76472936D01*
X95335000Y-76927064D02*
X95335000Y-76472936D01*
%TD*%
M02*
