%TF.GenerationSoftware,KiCad,Pcbnew,9.0.6*%
%TF.CreationDate,2026-04-02T10:37:20-07:00*%
%TF.ProjectId,AA-W6EEN,41412d57-3645-4454-9e2e-6b696361645f,rev?*%
%TF.SameCoordinates,Original*%
%TF.FileFunction,Copper,L1,Top*%
%TF.FilePolarity,Positive*%
%FSLAX46Y46*%
G04 Gerber Fmt 4.6, Leading zero omitted, Abs format (unit mm)*
G04 Created by KiCad (PCBNEW 9.0.6) date 2026-04-02 10:37:20*
%MOMM*%
%LPD*%
G01*
G04 APERTURE LIST*
G04 Aperture macros list*
%AMRoundRect*
0 Rectangle with rounded corners*
0 $1 Rounding radius*
0 $2 $3 $4 $5 $6 $7 $8 $9 X,Y pos of 4 corners*
0 Add a 4 corners polygon primitive as box body*
4,1,4,$2,$3,$4,$5,$6,$7,$8,$9,$2,$3,0*
0 Add four circle primitives for the rounded corners*
1,1,$1+$1,$2,$3*
1,1,$1+$1,$4,$5*
1,1,$1+$1,$6,$7*
1,1,$1+$1,$8,$9*
0 Add four rect primitives between the rounded corners*
20,1,$1+$1,$2,$3,$4,$5,0*
20,1,$1+$1,$4,$5,$6,$7,0*
20,1,$1+$1,$6,$7,$8,$9,0*
20,1,$1+$1,$8,$9,$2,$3,0*%
G04 Aperture macros list end*
%TA.AperFunction,SMDPad,CuDef*%
%ADD10RoundRect,0.162500X0.993750X0.162500X-0.993750X0.162500X-0.993750X-0.162500X0.993750X-0.162500X0*%
%TD*%
%TA.AperFunction,SMDPad,CuDef*%
%ADD11RoundRect,0.162500X1.081250X0.162500X-1.081250X0.162500X-1.081250X-0.162500X1.081250X-0.162500X0*%
%TD*%
%TA.AperFunction,SMDPad,CuDef*%
%ADD12RoundRect,0.250000X-0.450000X0.350000X-0.450000X-0.350000X0.450000X-0.350000X0.450000X0.350000X0*%
%TD*%
%TA.AperFunction,SMDPad,CuDef*%
%ADD13RoundRect,0.250000X-0.350000X-0.450000X0.350000X-0.450000X0.350000X0.450000X-0.350000X0.450000X0*%
%TD*%
%TA.AperFunction,SMDPad,CuDef*%
%ADD14RoundRect,0.250000X-0.475000X0.337500X-0.475000X-0.337500X0.475000X-0.337500X0.475000X0.337500X0*%
%TD*%
%TA.AperFunction,SMDPad,CuDef*%
%ADD15RoundRect,0.250000X-0.337500X-0.475000X0.337500X-0.475000X0.337500X0.475000X-0.337500X0.475000X0*%
%TD*%
%TA.AperFunction,SMDPad,CuDef*%
%ADD16RoundRect,0.250000X0.350000X0.450000X-0.350000X0.450000X-0.350000X-0.450000X0.350000X-0.450000X0*%
%TD*%
%TA.AperFunction,ComponentPad*%
%ADD17R,1.700000X1.700000*%
%TD*%
%TA.AperFunction,ComponentPad*%
%ADD18C,1.700000*%
%TD*%
%TA.AperFunction,SMDPad,CuDef*%
%ADD19RoundRect,0.247500X0.382500X0.247500X-0.382500X0.247500X-0.382500X-0.247500X0.382500X-0.247500X0*%
%TD*%
%TA.AperFunction,SMDPad,CuDef*%
%ADD20RoundRect,0.147500X0.482500X0.147500X-0.482500X0.147500X-0.482500X-0.147500X0.482500X-0.147500X0*%
%TD*%
%TA.AperFunction,SMDPad,CuDef*%
%ADD21RoundRect,0.250000X0.450000X-0.350000X0.450000X0.350000X-0.450000X0.350000X-0.450000X-0.350000X0*%
%TD*%
%TA.AperFunction,SMDPad,CuDef*%
%ADD22RoundRect,0.250000X-0.450000X-0.350000X0.450000X-0.350000X0.450000X0.350000X-0.450000X0.350000X0*%
%TD*%
%TA.AperFunction,SMDPad,CuDef*%
%ADD23RoundRect,0.250000X1.412500X0.550000X-1.412500X0.550000X-1.412500X-0.550000X1.412500X-0.550000X0*%
%TD*%
%TA.AperFunction,SMDPad,CuDef*%
%ADD24RoundRect,0.250000X0.550000X-1.050000X0.550000X1.050000X-0.550000X1.050000X-0.550000X-1.050000X0*%
%TD*%
%TA.AperFunction,SMDPad,CuDef*%
%ADD25RoundRect,0.250000X0.475000X-0.337500X0.475000X0.337500X-0.475000X0.337500X-0.475000X-0.337500X0*%
%TD*%
%TA.AperFunction,SMDPad,CuDef*%
%ADD26RoundRect,0.375000X-0.625000X-0.375000X0.625000X-0.375000X0.625000X0.375000X-0.625000X0.375000X0*%
%TD*%
%TA.AperFunction,SMDPad,CuDef*%
%ADD27RoundRect,0.500000X-0.500000X-1.400000X0.500000X-1.400000X0.500000X1.400000X-0.500000X1.400000X0*%
%TD*%
%TA.AperFunction,SMDPad,CuDef*%
%ADD28RoundRect,0.150000X-0.587500X-0.150000X0.587500X-0.150000X0.587500X0.150000X-0.587500X0.150000X0*%
%TD*%
%TA.AperFunction,ComponentPad*%
%ADD29C,3.000000*%
%TD*%
%TA.AperFunction,SMDPad,CuDef*%
%ADD30RoundRect,0.150000X-0.150000X0.587500X-0.150000X-0.587500X0.150000X-0.587500X0.150000X0.587500X0*%
%TD*%
%TA.AperFunction,ComponentPad*%
%ADD31R,1.600000X1.600000*%
%TD*%
%TA.AperFunction,ComponentPad*%
%ADD32O,1.600000X1.600000*%
%TD*%
%TA.AperFunction,SMDPad,CuDef*%
%ADD33RoundRect,0.087500X-0.087500X0.725000X-0.087500X-0.725000X0.087500X-0.725000X0.087500X0.725000X0*%
%TD*%
%TA.AperFunction,SMDPad,CuDef*%
%ADD34RoundRect,0.250000X-0.300000X0.300000X-0.300000X-0.300000X0.300000X-0.300000X0.300000X0.300000X0*%
%TD*%
%TA.AperFunction,SMDPad,CuDef*%
%ADD35RoundRect,0.250000X0.300000X-0.300000X0.300000X0.300000X-0.300000X0.300000X-0.300000X-0.300000X0*%
%TD*%
%TA.AperFunction,SMDPad,CuDef*%
%ADD36RoundRect,0.250000X0.337500X0.475000X-0.337500X0.475000X-0.337500X-0.475000X0.337500X-0.475000X0*%
%TD*%
%TA.AperFunction,ComponentPad*%
%ADD37O,1.600000X2.500000*%
%TD*%
%TA.AperFunction,ComponentPad*%
%ADD38O,3.500000X7.000000*%
%TD*%
%TA.AperFunction,ComponentPad*%
%ADD39RoundRect,0.250000X0.600000X0.725000X-0.600000X0.725000X-0.600000X-0.725000X0.600000X-0.725000X0*%
%TD*%
%TA.AperFunction,ComponentPad*%
%ADD40O,1.700000X1.950000*%
%TD*%
%TA.AperFunction,ViaPad*%
%ADD41C,0.600000*%
%TD*%
%TA.AperFunction,Conductor*%
%ADD42C,0.500000*%
%TD*%
%TA.AperFunction,Conductor*%
%ADD43C,0.200000*%
%TD*%
G04 APERTURE END LIST*
D10*
%TO.P,U2,1*%
%TO.N,Net-(U2A--)*%
X103568750Y-53635000D03*
%TO.P,U2,2,-*%
X103568750Y-52365000D03*
%TO.P,U2,3,+*%
%TO.N,Net-(U2A-+)*%
X103568750Y-51095000D03*
%TO.P,U2,4,V-*%
%TO.N,GND*%
X103568750Y-49825000D03*
D11*
%TO.P,U2,5,+*%
%TO.N,Net-(U2B-+)*%
X97168750Y-49825000D03*
%TO.P,U2,6,-*%
%TO.N,Net-(U2A-+)*%
X97168750Y-51095000D03*
%TO.P,U2,7*%
X97168750Y-52365000D03*
%TO.P,U2,8,V+*%
%TO.N,Net-(U2C-V+)*%
X97168750Y-53635000D03*
%TD*%
D12*
%TO.P,R28,1*%
%TO.N,Net-(J3-Pin_4)*%
X111200000Y-80400000D03*
%TO.P,R28,2*%
%TO.N,GND*%
X111200000Y-82400000D03*
%TD*%
%TO.P,R32,1*%
%TO.N,Net-(J3-Pin_7)*%
X107700000Y-80400000D03*
%TO.P,R32,2*%
%TO.N,GND*%
X107700000Y-82400000D03*
%TD*%
D13*
%TO.P,R11,1*%
%TO.N,Net-(C6-Pad1)*%
X96500000Y-46750000D03*
%TO.P,R11,2*%
%TO.N,Net-(U2B-+)*%
X98500000Y-46750000D03*
%TD*%
%TO.P,R9,1*%
%TO.N,Net-(C4-Pad2)*%
X86250000Y-50000000D03*
%TO.P,R9,2*%
%TO.N,Net-(C6-Pad1)*%
X88250000Y-50000000D03*
%TD*%
D14*
%TO.P,C12,1*%
%TO.N,GND*%
X117500000Y-50212500D03*
%TO.P,C12,2*%
%TO.N,Net-(A1-AREF)*%
X117500000Y-52287500D03*
%TD*%
D15*
%TO.P,C14,1*%
%TO.N,GND*%
X85262500Y-61500000D03*
%TO.P,C14,2*%
%TO.N,+5V*%
X87337500Y-61500000D03*
%TD*%
D14*
%TO.P,C2,1*%
%TO.N,Net-(C2-Pad1)*%
X46037500Y-77212500D03*
%TO.P,C2,2*%
%TO.N,GND*%
X46037500Y-79287500D03*
%TD*%
D16*
%TO.P,R15,1*%
%TO.N,SCL*%
X97000000Y-60500000D03*
%TO.P,R15,2*%
%TO.N,+3.3V*%
X95000000Y-60500000D03*
%TD*%
D15*
%TO.P,C9,1*%
%TO.N,+3.3V*%
X63562500Y-63400000D03*
%TO.P,C9,2*%
%TO.N,GND*%
X65637500Y-63400000D03*
%TD*%
D17*
%TO.P,J3,1,Pin_1*%
%TO.N,GND*%
X33500000Y-76040000D03*
D18*
%TO.P,J3,2,Pin_2*%
%TO.N,+3.3V*%
X33500000Y-73500000D03*
%TO.P,J3,3,Pin_3*%
%TO.N,Net-(J3-Pin_3)*%
X33500000Y-70960000D03*
%TO.P,J3,4,Pin_4*%
%TO.N,Net-(J3-Pin_4)*%
X33500000Y-68420000D03*
%TO.P,J3,5,Pin_5*%
%TO.N,Net-(J3-Pin_5)*%
X33500000Y-65880000D03*
%TO.P,J3,6,Pin_6*%
%TO.N,Net-(J3-Pin_6)*%
X33500000Y-63340000D03*
%TO.P,J3,7,Pin_7*%
%TO.N,Net-(J3-Pin_7)*%
X33500000Y-60800000D03*
%TO.P,J3,8,Pin_8*%
%TO.N,+3.3V*%
X33500000Y-58260000D03*
%TO.P,J3,9,Pin_9*%
%TO.N,Net-(A1-D2)*%
X33500000Y-55720000D03*
%TO.P,J3,10,Pin_10*%
%TO.N,Net-(A1-D3)*%
X33500000Y-53180000D03*
%TO.P,J3,11,Pin_11*%
%TO.N,Net-(A1-D4)*%
X33500000Y-50640000D03*
%TO.P,J3,12,Pin_12*%
%TO.N,PWR_BTN*%
X33500000Y-48100000D03*
%TD*%
D19*
%TO.P,Q1,1*%
%TO.N,GND*%
X54750000Y-81750000D03*
D20*
%TO.P,Q1,2*%
%TO.N,Net-(C4-Pad2)*%
X54750000Y-80050000D03*
%TO.P,Q1,3*%
%TO.N,Net-(C5-Pad2)*%
X52770000Y-80050000D03*
%TO.P,Q1,4*%
%TO.N,Net-(C3-Pad2)*%
X52770000Y-81950000D03*
%TD*%
D21*
%TO.P,R27,1*%
%TO.N,Net-(J3-Pin_3)*%
X110250000Y-63500000D03*
%TO.P,R27,2*%
%TO.N,Net-(A1-D13)*%
X110250000Y-61500000D03*
%TD*%
D15*
%TO.P,C10,1*%
%TO.N,Net-(U2C-V+)*%
X102212500Y-46750000D03*
%TO.P,C10,2*%
%TO.N,GND*%
X104287500Y-46750000D03*
%TD*%
%TO.P,C4,1*%
%TO.N,GND*%
X52712500Y-74250000D03*
%TO.P,C4,2*%
%TO.N,Net-(C4-Pad2)*%
X54787500Y-74250000D03*
%TD*%
D22*
%TO.P,XTAL1,1,1*%
%TO.N,Net-(U1-XB)*%
X63800000Y-59900000D03*
%TO.P,XTAL1,2,2*%
%TO.N,GND*%
X66000000Y-59900000D03*
%TO.P,XTAL1,3,3*%
%TO.N,Net-(U1-XA)*%
X66000000Y-58200000D03*
%TO.P,XTAL1,4,4*%
%TO.N,GND*%
X63800000Y-58200000D03*
%TD*%
D23*
%TO.P,C20,1*%
%TO.N,+3.3V*%
X74000000Y-63800000D03*
%TO.P,C20,2*%
%TO.N,GND*%
X68925000Y-63800000D03*
%TD*%
D14*
%TO.P,C11,1*%
%TO.N,Net-(U2A--)*%
X108250000Y-52212500D03*
%TO.P,C11,2*%
%TO.N,Net-(A1-A0)*%
X108250000Y-54287500D03*
%TD*%
D24*
%TO.P,C13,1*%
%TO.N,Net-(A1-AREF)*%
X113500000Y-53500000D03*
%TO.P,C13,2*%
%TO.N,GND*%
X113500000Y-49900000D03*
%TD*%
D25*
%TO.P,C18,1*%
%TO.N,+5V*%
X64500000Y-73287500D03*
%TO.P,C18,2*%
%TO.N,GND*%
X64500000Y-71212500D03*
%TD*%
D14*
%TO.P,C15,1*%
%TO.N,Net-(J2-Pin_3)*%
X78462500Y-75675000D03*
%TO.P,C15,2*%
%TO.N,GND*%
X78462500Y-77750000D03*
%TD*%
D21*
%TO.P,R10,1*%
%TO.N,GND*%
X49500000Y-79250000D03*
%TO.P,R10,2*%
%TO.N,Net-(C5-Pad2)*%
X49500000Y-77250000D03*
%TD*%
D16*
%TO.P,R8,1*%
%TO.N,Net-(C3-Pad2)*%
X54750000Y-70750000D03*
%TO.P,R8,2*%
%TO.N,GND*%
X52750000Y-70750000D03*
%TD*%
D13*
%TO.P,R13,1*%
%TO.N,+3.3V*%
X95000000Y-65750000D03*
%TO.P,R13,2*%
%TO.N,Net-(A1-A0)*%
X97000000Y-65750000D03*
%TD*%
D26*
%TO.P,U3,1,GND*%
%TO.N,GND*%
X67800000Y-69200000D03*
%TO.P,U3,2,VO*%
%TO.N,+3.3V*%
X67800000Y-71500000D03*
D27*
X74100000Y-71500000D03*
D26*
%TO.P,U3,3,VI*%
%TO.N,+5V*%
X67800000Y-73800000D03*
%TD*%
D28*
%TO.P,Q3,1,B*%
%TO.N,Net-(Q3-B)*%
X94000000Y-79800000D03*
%TO.P,Q3,2,E*%
%TO.N,GND*%
X94000000Y-81700000D03*
%TO.P,Q3,3,C*%
%TO.N,Net-(D1-A)*%
X95875000Y-80750000D03*
%TD*%
D12*
%TO.P,R14,1*%
%TO.N,Net-(A1-A0)*%
X106750000Y-61500000D03*
%TO.P,R14,2*%
%TO.N,GND*%
X106750000Y-63500000D03*
%TD*%
D14*
%TO.P,C5,1*%
%TO.N,Net-(U1-CLK1)*%
X61000000Y-64762500D03*
%TO.P,C5,2*%
%TO.N,Net-(C5-Pad2)*%
X61000000Y-66837500D03*
%TD*%
%TO.P,C3,1*%
%TO.N,Net-(C3-Pad1)*%
X59500000Y-70462500D03*
%TO.P,C3,2*%
%TO.N,Net-(C3-Pad2)*%
X59500000Y-72537500D03*
%TD*%
D12*
%TO.P,R29,1*%
%TO.N,Net-(J3-Pin_5)*%
X104200000Y-80400000D03*
%TO.P,R29,2*%
%TO.N,GND*%
X104200000Y-82400000D03*
%TD*%
D14*
%TO.P,C1,1*%
%TO.N,Net-(J1-In)*%
X61250000Y-43462500D03*
%TO.P,C1,2*%
%TO.N,Net-(C1-Pad2)*%
X61250000Y-45537500D03*
%TD*%
D12*
%TO.P,R30,1*%
%TO.N,Net-(J2-Pin_4)*%
X87000000Y-80250000D03*
%TO.P,R30,2*%
%TO.N,D6*%
X87000000Y-82250000D03*
%TD*%
D21*
%TO.P,R21,1*%
%TO.N,Net-(J2-Pin_3)*%
X87000000Y-77500000D03*
%TO.P,R21,2*%
%TO.N,Net-(C16-Pad1)*%
X87000000Y-75500000D03*
%TD*%
%TO.P,R26,1*%
%TO.N,Net-(J3-Pin_4)*%
X112800000Y-77750000D03*
%TO.P,R26,2*%
%TO.N,Net-(A1-D11)*%
X112800000Y-75750000D03*
%TD*%
D16*
%TO.P,R7,1*%
%TO.N,Net-(C2-Pad1)*%
X54750000Y-77750000D03*
%TO.P,R7,2*%
%TO.N,Net-(C4-Pad2)*%
X52750000Y-77750000D03*
%TD*%
D29*
%TO.P,T1,1,1*%
%TO.N,Net-(R3-Pad2)*%
X44801000Y-48799000D03*
%TO.P,T1,2,2*%
%TO.N,GND*%
X44801000Y-64799000D03*
%TO.P,T1,3,3*%
%TO.N,Net-(C1-Pad2)*%
X54801000Y-48799000D03*
%TO.P,T1,4,4*%
%TO.N,Net-(C3-Pad1)*%
X54801000Y-64799000D03*
%TD*%
D16*
%TO.P,R17,1*%
%TO.N,D5*%
X97000000Y-69250000D03*
%TO.P,R17,2*%
%TO.N,GND*%
X95000000Y-69250000D03*
%TD*%
D15*
%TO.P,C8,1*%
%TO.N,+3.3V*%
X67962500Y-58000000D03*
%TO.P,C8,2*%
%TO.N,GND*%
X70037500Y-58000000D03*
%TD*%
%TO.P,C7,1*%
%TO.N,Net-(U2B-+)*%
X102212500Y-43000000D03*
%TO.P,C7,2*%
%TO.N,GND*%
X104287500Y-43000000D03*
%TD*%
%TO.P,C16,1*%
%TO.N,Net-(C16-Pad1)*%
X101212500Y-69250000D03*
%TO.P,C16,2*%
%TO.N,GND*%
X103287500Y-69250000D03*
%TD*%
D30*
%TO.P,Q2,1,G*%
%TO.N,Net-(D1-A)*%
X83750000Y-80250000D03*
%TO.P,Q2,2,S*%
%TO.N,Net-(J2-Pin_3)*%
X81850000Y-80250000D03*
%TO.P,Q2,3,D*%
%TO.N,Net-(J2-Pin_4)*%
X82800000Y-82125000D03*
%TD*%
D31*
%TO.P,A1,1,D1/TX*%
%TO.N,unconnected-(A1-D1{slash}TX-Pad1)*%
X80460000Y-72740000D03*
D32*
%TO.P,A1,2,D0/RX*%
%TO.N,unconnected-(A1-D0{slash}RX-Pad2)*%
X83000000Y-72740000D03*
%TO.P,A1,3,~{RESET}*%
%TO.N,unconnected-(A1-~{RESET}-Pad3)*%
X85540000Y-72740000D03*
%TO.P,A1,4,GND*%
%TO.N,GND*%
X88080000Y-72740000D03*
%TO.P,A1,5,D2*%
%TO.N,Net-(A1-D2)*%
X90620000Y-72740000D03*
%TO.P,A1,6,D3*%
%TO.N,Net-(A1-D3)*%
X93160000Y-72740000D03*
%TO.P,A1,7,D4*%
%TO.N,Net-(A1-D4)*%
X95700000Y-72740000D03*
%TO.P,A1,8,D5*%
%TO.N,D5*%
X98240000Y-72740000D03*
%TO.P,A1,9,D6*%
%TO.N,D6*%
X100780000Y-72740000D03*
%TO.P,A1,10,D7*%
%TO.N,unconnected-(A1-D7-Pad10)*%
X103320000Y-72740000D03*
%TO.P,A1,11,D8*%
%TO.N,Net-(A1-D8)*%
X105860000Y-72740000D03*
%TO.P,A1,12,D9*%
%TO.N,Net-(A1-D9)*%
X108400000Y-72740000D03*
%TO.P,A1,13,D10*%
%TO.N,Net-(A1-D10)*%
X110940000Y-72740000D03*
%TO.P,A1,14,D11*%
%TO.N,Net-(A1-D11)*%
X113480000Y-72740000D03*
%TO.P,A1,15,D12*%
%TO.N,unconnected-(A1-D12-Pad15)*%
X116020000Y-72740000D03*
%TO.P,A1,16,D13*%
%TO.N,Net-(A1-D13)*%
X116020000Y-57500000D03*
%TO.P,A1,17,3V3*%
%TO.N,unconnected-(A1-3V3-Pad17)*%
X113480000Y-57500000D03*
%TO.P,A1,18,AREF*%
%TO.N,Net-(A1-AREF)*%
X110940000Y-57500000D03*
%TO.P,A1,19,A0*%
%TO.N,Net-(A1-A0)*%
X108400000Y-57500000D03*
%TO.P,A1,20,A1*%
%TO.N,unconnected-(A1-A1-Pad20)*%
X105860000Y-57500000D03*
%TO.P,A1,21,A2*%
%TO.N,A2*%
X103320000Y-57500000D03*
%TO.P,A1,22,A3*%
%TO.N,unconnected-(A1-A3-Pad22)*%
X100780000Y-57500000D03*
%TO.P,A1,23,A4*%
%TO.N,SDA*%
X98240000Y-57500000D03*
%TO.P,A1,24,A5*%
%TO.N,SCL*%
X95700000Y-57500000D03*
%TO.P,A1,25,A6*%
%TO.N,unconnected-(A1-A6-Pad25)*%
X93160000Y-57500000D03*
%TO.P,A1,26,A7*%
%TO.N,unconnected-(A1-A7-Pad26)*%
X90620000Y-57500000D03*
%TO.P,A1,27,+5V*%
%TO.N,+5V*%
X88080000Y-57500000D03*
%TO.P,A1,28,~{RESET}*%
%TO.N,unconnected-(A1-~{RESET}-Pad28)*%
X85540000Y-57500000D03*
%TO.P,A1,29,GND*%
%TO.N,GND*%
X83000000Y-57500000D03*
%TO.P,A1,30,VIN*%
%TO.N,unconnected-(A1-VIN-Pad30)*%
X80460000Y-57500000D03*
%TD*%
D21*
%TO.P,R6,1*%
%TO.N,+5V*%
X59000000Y-79000000D03*
%TO.P,R6,2*%
%TO.N,Net-(C2-Pad1)*%
X59000000Y-77000000D03*
%TD*%
D13*
%TO.P,R12,1*%
%TO.N,+5V*%
X91250000Y-53500000D03*
%TO.P,R12,2*%
%TO.N,Net-(U2C-V+)*%
X93250000Y-53500000D03*
%TD*%
D33*
%TO.P,U1,1,VDD*%
%TO.N,+3.3V*%
X61387500Y-57387500D03*
%TO.P,U1,2,XA*%
%TO.N,Net-(U1-XA)*%
X60887500Y-57387500D03*
%TO.P,U1,3,XB*%
%TO.N,Net-(U1-XB)*%
X60387500Y-57387500D03*
%TO.P,U1,4,SCL*%
%TO.N,SCL*%
X59887500Y-57387500D03*
%TO.P,U1,5,SDA*%
%TO.N,SDA*%
X59387500Y-57387500D03*
%TO.P,U1,6,CLK2*%
%TO.N,unconnected-(U1-CLK2-Pad6)*%
X59387500Y-61612500D03*
%TO.P,U1,7,VDDO*%
%TO.N,+3.3V*%
X59887500Y-61612500D03*
%TO.P,U1,8,GND*%
%TO.N,GND*%
X60387500Y-61612500D03*
%TO.P,U1,9,CLK1*%
%TO.N,Net-(U1-CLK1)*%
X60887500Y-61612500D03*
%TO.P,U1,10,CLK0*%
%TO.N,Net-(U1-CLK0)*%
X61387500Y-61612500D03*
%TD*%
D34*
%TO.P,D1,1,K*%
%TO.N,PWR_BTN*%
X98400000Y-75600000D03*
%TO.P,D1,2,A*%
%TO.N,Net-(D1-A)*%
X98400000Y-78400000D03*
%TD*%
D13*
%TO.P,R19,1*%
%TO.N,Net-(J2-Pin_3)*%
X81500000Y-77500000D03*
%TO.P,R19,2*%
%TO.N,Net-(D1-A)*%
X83500000Y-77500000D03*
%TD*%
D25*
%TO.P,C17,1*%
%TO.N,Net-(J2-Pin_4)*%
X78500000Y-82287500D03*
%TO.P,C17,2*%
%TO.N,GND*%
X78500000Y-80212500D03*
%TD*%
D16*
%TO.P,R20,1*%
%TO.N,A2*%
X103250000Y-62000000D03*
%TO.P,R20,2*%
%TO.N,Net-(C16-Pad1)*%
X101250000Y-62000000D03*
%TD*%
D12*
%TO.P,R33,1*%
%TO.N,Net-(J3-Pin_3)*%
X110250000Y-67000000D03*
%TO.P,R33,2*%
%TO.N,GND*%
X110250000Y-69000000D03*
%TD*%
D21*
%TO.P,R25,1*%
%TO.N,Net-(J3-Pin_7)*%
X109300000Y-77750000D03*
%TO.P,R25,2*%
%TO.N,Net-(A1-D10)*%
X109300000Y-75750000D03*
%TD*%
D16*
%TO.P,R16,1*%
%TO.N,SDA*%
X97000000Y-63000000D03*
%TO.P,R16,2*%
%TO.N,+3.3V*%
X95000000Y-63000000D03*
%TD*%
D13*
%TO.P,R22,1*%
%TO.N,Net-(C16-Pad1)*%
X101250000Y-65750000D03*
%TO.P,R22,2*%
%TO.N,GND*%
X103250000Y-65750000D03*
%TD*%
D12*
%TO.P,R4,1*%
%TO.N,Net-(R3-Pad2)*%
X54000000Y-43500000D03*
%TO.P,R4,2*%
%TO.N,GND*%
X54000000Y-45500000D03*
%TD*%
%TO.P,R31,1*%
%TO.N,Net-(J3-Pin_6)*%
X100700000Y-80400000D03*
%TO.P,R31,2*%
%TO.N,GND*%
X100700000Y-82400000D03*
%TD*%
D35*
%TO.P,D2,1,K*%
%TO.N,PWR_BTN*%
X90700000Y-78300000D03*
%TO.P,D2,2,A*%
%TO.N,D6*%
X90700000Y-75500000D03*
%TD*%
D21*
%TO.P,R24,1*%
%TO.N,Net-(J3-Pin_5)*%
X105800000Y-77750000D03*
%TO.P,R24,2*%
%TO.N,Net-(A1-D9)*%
X105800000Y-75750000D03*
%TD*%
D12*
%TO.P,R1,1*%
%TO.N,Net-(R1-Pad1)*%
X50500000Y-43500000D03*
%TO.P,R1,2*%
%TO.N,GND*%
X50500000Y-45500000D03*
%TD*%
%TO.P,R2,1*%
%TO.N,Net-(R1-Pad1)*%
X57500000Y-43500000D03*
%TO.P,R2,2*%
%TO.N,Net-(C1-Pad2)*%
X57500000Y-45500000D03*
%TD*%
D21*
%TO.P,R23,1*%
%TO.N,Net-(J3-Pin_6)*%
X102300000Y-77750000D03*
%TO.P,R23,2*%
%TO.N,Net-(A1-D8)*%
X102300000Y-75750000D03*
%TD*%
D12*
%TO.P,R3,1*%
%TO.N,Net-(R1-Pad1)*%
X47000000Y-43500000D03*
%TO.P,R3,2*%
%TO.N,Net-(R3-Pad2)*%
X47000000Y-45500000D03*
%TD*%
D36*
%TO.P,C21,1*%
%TO.N,+3.3V*%
X87287500Y-65500000D03*
%TO.P,C21,2*%
%TO.N,GND*%
X85212500Y-65500000D03*
%TD*%
D37*
%TO.P,J1,1,In*%
%TO.N,Net-(J1-In)*%
X72000000Y-52900000D03*
D38*
%TO.P,J1,2,Ext*%
%TO.N,GND*%
X66920000Y-47820000D03*
D37*
X69460000Y-52900000D03*
D38*
X77080000Y-47820000D03*
%TD*%
D39*
%TO.P,J2,1,Pin_1*%
%TO.N,GND*%
X72450000Y-79525000D03*
D40*
%TO.P,J2,2,Pin_2*%
%TO.N,+5V*%
X69950000Y-79525000D03*
%TO.P,J2,3,Pin_3*%
%TO.N,Net-(J2-Pin_3)*%
X67450000Y-79525000D03*
%TO.P,J2,4,Pin_4*%
%TO.N,Net-(J2-Pin_4)*%
X64950000Y-79525000D03*
%TD*%
D12*
%TO.P,R5,1*%
%TO.N,Net-(R1-Pad1)*%
X43250000Y-43500000D03*
%TO.P,R5,2*%
%TO.N,Net-(U1-CLK0)*%
X43250000Y-45500000D03*
%TD*%
D14*
%TO.P,C19,1*%
%TO.N,+3.3V*%
X37500000Y-73925000D03*
%TO.P,C19,2*%
%TO.N,GND*%
X37500000Y-76000000D03*
%TD*%
D15*
%TO.P,C6,1*%
%TO.N,Net-(C6-Pad1)*%
X91212500Y-50000000D03*
%TO.P,C6,2*%
%TO.N,Net-(U2A-+)*%
X93287500Y-50000000D03*
%TD*%
D21*
%TO.P,R18,1*%
%TO.N,Net-(Q3-B)*%
X94600000Y-77700000D03*
%TO.P,R18,2*%
%TO.N,D5*%
X94600000Y-75700000D03*
%TD*%
D41*
%TO.N,GND*%
X104500000Y-48500000D03*
X78462500Y-79000000D03*
X72450000Y-74850000D03*
X62800000Y-71400000D03*
X64800000Y-69200000D03*
X102500000Y-82450000D03*
X65637500Y-61500000D03*
X80500000Y-61500000D03*
X51500000Y-75000000D03*
X96250000Y-81700000D03*
X52000000Y-45500000D03*
X84000000Y-65000000D03*
X115750000Y-49900000D03*
X51050000Y-79450000D03*
X106000000Y-82400000D03*
X50300000Y-53750000D03*
X50350000Y-57700000D03*
X83000000Y-60000000D03*
X57500000Y-80000000D03*
X109550000Y-82450000D03*
X44500000Y-79500000D03*
X105125000Y-65125000D03*
X52500000Y-69000000D03*
X67000000Y-63800000D03*
X40050000Y-53450000D03*
X40000000Y-59100000D03*
X58750000Y-59750000D03*
X88850000Y-74950000D03*
X104287500Y-44950000D03*
X37500000Y-80500000D03*
X70037500Y-61500000D03*
X106500000Y-69250000D03*
X88900000Y-78900000D03*
X93100000Y-69250000D03*
%TO.N,+5V*%
X88100000Y-54700000D03*
X77650000Y-63050000D03*
X77650000Y-68150000D03*
X87337500Y-60462500D03*
X62825000Y-74925000D03*
X68475000Y-74925000D03*
%TO.N,Net-(A1-A0)*%
X102250000Y-64401000D03*
X98900000Y-64401000D03*
%TO.N,Net-(C3-Pad2)*%
X57000000Y-75400000D03*
X57000000Y-73700000D03*
%TO.N,Net-(C4-Pad2)*%
X54850000Y-72700000D03*
X52750000Y-78950000D03*
X54800000Y-79000000D03*
X58000000Y-62500000D03*
%TO.N,Net-(U2A-+)*%
X101900000Y-50950000D03*
X98900000Y-50950000D03*
%TO.N,PWR_BTN*%
X91950000Y-79650000D03*
%TO.N,Net-(J3-Pin_7)*%
X107900000Y-76200000D03*
%TO.N,Net-(J3-Pin_5)*%
X104000000Y-77400000D03*
%TO.N,Net-(J3-Pin_6)*%
X100650000Y-76800000D03*
%TO.N,Net-(J3-Pin_3)*%
X49500000Y-70300000D03*
X70750000Y-70300000D03*
X102150000Y-67000000D03*
X98900000Y-67000000D03*
%TO.N,Net-(J3-Pin_4)*%
X112325000Y-79275000D03*
%TD*%
D42*
%TO.N,GND*%
X64312500Y-71400000D02*
X64500000Y-71212500D01*
X52500000Y-69000000D02*
X52500000Y-70500000D01*
X88850000Y-74950000D02*
X88850000Y-78850000D01*
X50500000Y-45500000D02*
X52000000Y-45500000D01*
D43*
X49700000Y-79450000D02*
X49500000Y-79250000D01*
D42*
X117187500Y-49900000D02*
X117500000Y-50212500D01*
X64500000Y-71212500D02*
X64500000Y-69500000D01*
X84500000Y-61500000D02*
X83000000Y-60000000D01*
X65637500Y-61500000D02*
X65637500Y-60262500D01*
X40000000Y-59100000D02*
X40000000Y-59998000D01*
X37460000Y-76040000D02*
X37500000Y-76000000D01*
D43*
X102500000Y-82450000D02*
X104150000Y-82450000D01*
X106000000Y-82400000D02*
X107700000Y-82400000D01*
X78462500Y-80175000D02*
X78500000Y-80212500D01*
D42*
X52712500Y-74250000D02*
X52250000Y-74250000D01*
X40050000Y-59050000D02*
X40000000Y-59100000D01*
X72450000Y-74850000D02*
X72450000Y-79525000D01*
X104287500Y-43000000D02*
X104287500Y-44950000D01*
D43*
X58750000Y-62339348D02*
X58750000Y-59750000D01*
D42*
X70037500Y-58000000D02*
X70037500Y-61500000D01*
X84500000Y-65500000D02*
X84000000Y-65000000D01*
X103250000Y-65750000D02*
X104500000Y-65750000D01*
D43*
X59460652Y-63050000D02*
X58750000Y-62339348D01*
X44500000Y-79500000D02*
X44712500Y-79287500D01*
D42*
X81500000Y-61500000D02*
X83000000Y-60000000D01*
X65637500Y-63400000D02*
X65637500Y-61500000D01*
X104000000Y-49000000D02*
X104500000Y-48500000D01*
X67000000Y-63800000D02*
X66037500Y-63800000D01*
D43*
X94000000Y-81700000D02*
X96250000Y-81700000D01*
X59460652Y-63050000D02*
X59814348Y-63050000D01*
D42*
X93100000Y-69250000D02*
X95000000Y-69250000D01*
X40050000Y-53450000D02*
X40050000Y-59050000D01*
X115750000Y-49900000D02*
X117187500Y-49900000D01*
X62800000Y-71400000D02*
X64312500Y-71400000D01*
X70037500Y-61500000D02*
X70037500Y-62687500D01*
X49002000Y-69000000D02*
X52500000Y-69000000D01*
X105125000Y-65125000D02*
X106750000Y-63500000D01*
X70037500Y-62687500D02*
X68925000Y-63800000D01*
X104000000Y-49690000D02*
X104000000Y-49000000D01*
D43*
X60387500Y-62476848D02*
X60387500Y-61612500D01*
D42*
X106500000Y-69250000D02*
X110000000Y-69250000D01*
D43*
X63800000Y-58200000D02*
X65500000Y-59900000D01*
D42*
X80500000Y-61500000D02*
X81500000Y-61500000D01*
X91570000Y-69250000D02*
X93100000Y-69250000D01*
D43*
X109550000Y-82450000D02*
X111150000Y-82450000D01*
X109500000Y-82400000D02*
X109550000Y-82450000D01*
D42*
X104500000Y-48500000D02*
X112100000Y-48500000D01*
X88850000Y-73510000D02*
X88080000Y-72740000D01*
X112100000Y-48500000D02*
X113500000Y-49900000D01*
X110000000Y-69250000D02*
X110250000Y-69000000D01*
X78462500Y-79000000D02*
X78462500Y-80175000D01*
D43*
X59814348Y-63050000D02*
X60387500Y-62476848D01*
D42*
X55750000Y-81750000D02*
X57500000Y-80000000D01*
X104287500Y-44950000D02*
X104287500Y-46750000D01*
D43*
X107700000Y-82400000D02*
X109500000Y-82400000D01*
D42*
X103287500Y-69250000D02*
X106500000Y-69250000D01*
X50350000Y-53800000D02*
X50300000Y-53750000D01*
X104500000Y-65750000D02*
X105125000Y-65125000D01*
X113500000Y-49900000D02*
X115750000Y-49900000D01*
X44801000Y-64799000D02*
X49002000Y-69000000D01*
D43*
X44712500Y-79287500D02*
X46037500Y-79287500D01*
D42*
X37500000Y-76000000D02*
X37500000Y-80500000D01*
X66920000Y-47820000D02*
X69460000Y-50360000D01*
X50350000Y-57700000D02*
X50350000Y-53800000D01*
D43*
X104200000Y-82400000D02*
X106000000Y-82400000D01*
D42*
X40000000Y-59998000D02*
X44801000Y-64799000D01*
X68925000Y-63800000D02*
X67000000Y-63800000D01*
X104500000Y-46962500D02*
X104287500Y-46750000D01*
X78462500Y-77750000D02*
X78462500Y-79000000D01*
D43*
X102450000Y-82400000D02*
X102500000Y-82450000D01*
D42*
X85262500Y-61500000D02*
X84500000Y-61500000D01*
D43*
X65500000Y-59900000D02*
X66000000Y-59900000D01*
D42*
X52500000Y-70500000D02*
X52750000Y-70750000D01*
D43*
X100700000Y-82400000D02*
X102450000Y-82400000D01*
D42*
X33500000Y-76040000D02*
X37460000Y-76040000D01*
X64800000Y-69200000D02*
X67800000Y-69200000D01*
D43*
X51050000Y-79450000D02*
X49700000Y-79450000D01*
D42*
X52250000Y-74250000D02*
X51500000Y-75000000D01*
X88080000Y-72740000D02*
X91570000Y-69250000D01*
D43*
X111150000Y-82450000D02*
X111200000Y-82400000D01*
D42*
X54750000Y-81750000D02*
X55750000Y-81750000D01*
D43*
X60400000Y-61625000D02*
X60387500Y-61612500D01*
D42*
X88850000Y-74950000D02*
X88850000Y-73510000D01*
X52000000Y-45500000D02*
X54000000Y-45500000D01*
X88850000Y-78850000D02*
X88900000Y-78900000D01*
X85212500Y-65500000D02*
X84500000Y-65500000D01*
X69460000Y-50360000D02*
X69460000Y-52900000D01*
X64500000Y-69500000D02*
X64800000Y-69200000D01*
X66037500Y-63800000D02*
X65637500Y-63400000D01*
X65637500Y-60262500D02*
X66000000Y-59900000D01*
X104500000Y-48500000D02*
X104500000Y-46962500D01*
D43*
X104150000Y-82450000D02*
X104200000Y-82400000D01*
D42*
%TO.N,+5V*%
X89300000Y-53500000D02*
X88100000Y-54700000D01*
X62825000Y-74925000D02*
X62875000Y-74975000D01*
X62875000Y-74975000D02*
X62875000Y-75125000D01*
X69950000Y-76400000D02*
X68475000Y-74925000D01*
X76100000Y-73950000D02*
X77650000Y-72400000D01*
X62875000Y-75125000D02*
X59000000Y-79000000D01*
X77650000Y-63050000D02*
X85787500Y-63050000D01*
X64462500Y-73287500D02*
X62825000Y-74925000D01*
X88080000Y-57500000D02*
X88100000Y-57500000D01*
X85787500Y-63050000D02*
X87337500Y-61500000D01*
X59000000Y-79000000D02*
X58750000Y-79000000D01*
X77650000Y-72400000D02*
X77650000Y-68150000D01*
X87337500Y-60462500D02*
X87337500Y-61500000D01*
X71700000Y-73950000D02*
X76100000Y-73950000D01*
X68475000Y-74925000D02*
X67650000Y-74100000D01*
X69950000Y-76400000D02*
X69950000Y-75700000D01*
X69950000Y-75700000D02*
X71700000Y-73950000D01*
X91250000Y-53500000D02*
X89300000Y-53500000D01*
X64500000Y-73287500D02*
X64462500Y-73287500D01*
X69950000Y-79525000D02*
X69950000Y-76400000D01*
D43*
%TO.N,SDA*%
X98240000Y-57500000D02*
X98240000Y-61760000D01*
X59387500Y-57387500D02*
X59387500Y-56523152D01*
X59387500Y-56523152D02*
X60510652Y-55400000D01*
X98240000Y-61760000D02*
X97000000Y-63000000D01*
X60510652Y-55400000D02*
X96140000Y-55400000D01*
X96140000Y-55400000D02*
X98240000Y-57500000D01*
%TO.N,Net-(A1-D11)*%
X113500000Y-72760000D02*
X113480000Y-72740000D01*
X112800000Y-73420000D02*
X113480000Y-72740000D01*
X112800000Y-75750000D02*
X112800000Y-73420000D01*
%TO.N,Net-(A1-D10)*%
X109300000Y-74380000D02*
X110940000Y-72740000D01*
X109300000Y-75750000D02*
X109300000Y-74380000D01*
%TO.N,D5*%
X94600000Y-75700000D02*
X95280000Y-75700000D01*
X95280000Y-75700000D02*
X98240000Y-72740000D01*
X97000000Y-69250000D02*
X97000000Y-71500000D01*
X94700000Y-75600000D02*
X94600000Y-75700000D01*
X97000000Y-71500000D02*
X98240000Y-72740000D01*
X95400000Y-75600000D02*
X94700000Y-75600000D01*
%TO.N,SCL*%
X59887500Y-56523152D02*
X59887500Y-57387500D01*
X95700000Y-57500000D02*
X94200000Y-59000000D01*
X95700000Y-57500000D02*
X95700000Y-59200000D01*
X74700000Y-55900000D02*
X60510652Y-55900000D01*
X60510652Y-55900000D02*
X59887500Y-56523152D01*
X95700000Y-59200000D02*
X97000000Y-60500000D01*
X77800000Y-59000000D02*
X74700000Y-55900000D01*
X94200000Y-59000000D02*
X77800000Y-59000000D01*
%TO.N,A2*%
X103250000Y-62000000D02*
X103250000Y-57570000D01*
X103250000Y-57570000D02*
X103320000Y-57500000D01*
%TO.N,Net-(A1-D9)*%
X105800000Y-75750000D02*
X105800000Y-75340000D01*
X105800000Y-75340000D02*
X108400000Y-72740000D01*
%TO.N,Net-(A1-D13)*%
X110250000Y-61500000D02*
X112020000Y-61500000D01*
X112020000Y-61500000D02*
X116020000Y-57500000D01*
%TO.N,Net-(A1-D8)*%
X102300000Y-75750000D02*
X102850000Y-75750000D01*
X102850000Y-75750000D02*
X105860000Y-72740000D01*
%TO.N,Net-(A1-A0)*%
X106750000Y-61450000D02*
X108400000Y-59800000D01*
X108400000Y-59800000D02*
X108400000Y-57500000D01*
X98349000Y-64401000D02*
X98900000Y-64401000D01*
X97000000Y-65750000D02*
X98349000Y-64401000D01*
X105900000Y-61500000D02*
X106750000Y-61500000D01*
X102999000Y-64401000D02*
X105900000Y-61500000D01*
X108400000Y-54437500D02*
X108250000Y-54287500D01*
X106750000Y-61500000D02*
X106750000Y-61450000D01*
X108400000Y-57500000D02*
X108400000Y-54437500D01*
X102250000Y-64401000D02*
X102999000Y-64401000D01*
%TO.N,D6*%
X87926000Y-83176000D02*
X95824000Y-83176000D01*
X87000000Y-82250000D02*
X87926000Y-83176000D01*
X99679000Y-73841000D02*
X100780000Y-72740000D01*
X95285160Y-76601000D02*
X95385160Y-76501000D01*
X92151000Y-76501000D02*
X93814840Y-76501000D01*
X91000000Y-75350000D02*
X92151000Y-76501000D01*
X93814840Y-76501000D02*
X93914840Y-76601000D01*
X95824000Y-83176000D02*
X99750000Y-79250000D01*
X99750000Y-79250000D02*
X99750000Y-73770000D01*
X99750000Y-73770000D02*
X100780000Y-72740000D01*
X98159000Y-73841000D02*
X99679000Y-73841000D01*
X95499000Y-76501000D02*
X98159000Y-73841000D01*
X95385160Y-76501000D02*
X95499000Y-76501000D01*
X93914840Y-76601000D02*
X95285160Y-76601000D01*
D42*
%TO.N,Net-(A1-AREF)*%
X113500000Y-53500000D02*
X113500000Y-54940000D01*
X116287500Y-53500000D02*
X117500000Y-52287500D01*
X113500000Y-54940000D02*
X110940000Y-57500000D01*
X113500000Y-53500000D02*
X116287500Y-53500000D01*
D43*
%TO.N,Net-(J1-In)*%
X61250000Y-43462500D02*
X68262500Y-43462500D01*
X72000000Y-47200000D02*
X72000000Y-52900000D01*
X68262500Y-43462500D02*
X72000000Y-47200000D01*
%TO.N,Net-(C1-Pad2)*%
X57500000Y-46100000D02*
X57500000Y-45500000D01*
X57537500Y-45537500D02*
X57500000Y-45500000D01*
X54801000Y-48799000D02*
X57500000Y-46100000D01*
X61250000Y-45537500D02*
X57537500Y-45537500D01*
%TO.N,Net-(C2-Pad1)*%
X53819000Y-78681000D02*
X54750000Y-77750000D01*
X51300000Y-80300000D02*
X51646000Y-80646000D01*
X53819000Y-80387362D02*
X53819000Y-78681000D01*
X51646000Y-80646000D02*
X53560362Y-80646000D01*
X46037500Y-77373660D02*
X49309840Y-80646000D01*
X49309840Y-80646000D02*
X50204000Y-80646000D01*
X53560362Y-80646000D02*
X53819000Y-80387362D01*
X58750000Y-77000000D02*
X58750000Y-76300057D01*
X50204000Y-80646000D02*
X50550000Y-80300000D01*
X56751057Y-74799000D02*
X54750000Y-76800057D01*
X54750000Y-76800057D02*
X54750000Y-77750000D01*
X58750000Y-76300057D02*
X57248943Y-74799000D01*
X50550000Y-80300000D02*
X51300000Y-80300000D01*
X57248943Y-74799000D02*
X56751057Y-74799000D01*
X46037500Y-77212500D02*
X46037500Y-77373660D01*
%TO.N,Net-(C3-Pad2)*%
X56537500Y-72537500D02*
X54750000Y-70750000D01*
X57700000Y-72537500D02*
X56537500Y-72537500D01*
X55366556Y-80954000D02*
X53766000Y-80954000D01*
X59500000Y-72537500D02*
X57700000Y-72537500D01*
X57100000Y-72537500D02*
X57000000Y-72637500D01*
X57700000Y-72537500D02*
X57100000Y-72537500D01*
X53766000Y-80954000D02*
X52770000Y-81950000D01*
X57000000Y-75400000D02*
X57000000Y-79320556D01*
X57000000Y-79320556D02*
X55366556Y-80954000D01*
X57000000Y-72637500D02*
X57000000Y-73700000D01*
%TO.N,Net-(D1-A)*%
X87685160Y-76599000D02*
X84401000Y-76599000D01*
X95825000Y-80800000D02*
X88301000Y-80800000D01*
X84401000Y-76599000D02*
X83500000Y-77500000D01*
D42*
X83500000Y-80000000D02*
X83750000Y-80250000D01*
D43*
X88301000Y-80800000D02*
X88301000Y-77214840D01*
D42*
X83500000Y-77500000D02*
X83500000Y-80000000D01*
D43*
X88301000Y-77214840D02*
X87685160Y-76599000D01*
X95875000Y-80750000D02*
X98225000Y-78400000D01*
X95875000Y-80750000D02*
X95825000Y-80800000D01*
X98225000Y-78400000D02*
X98400000Y-78400000D01*
%TO.N,Net-(C3-Pad1)*%
X62026000Y-66264840D02*
X62026000Y-67936500D01*
X54801000Y-64799000D02*
X55951000Y-65949000D01*
X62026000Y-67936500D02*
X59500000Y-70462500D01*
X61710160Y-65949000D02*
X62026000Y-66264840D01*
X55951000Y-65949000D02*
X61710160Y-65949000D01*
%TO.N,Net-(C4-Pad2)*%
X54800000Y-79000000D02*
X54800000Y-80000000D01*
X54787500Y-75712500D02*
X52750000Y-77750000D01*
X60810652Y-54600000D02*
X58000000Y-57410652D01*
X54787500Y-74250000D02*
X54787500Y-75712500D01*
X54850000Y-72700000D02*
X54850000Y-74187500D01*
X86250000Y-50000000D02*
X81650000Y-54600000D01*
X81650000Y-54600000D02*
X60810652Y-54600000D01*
X54800000Y-80000000D02*
X54750000Y-80050000D01*
X58000000Y-57410652D02*
X58000000Y-62500000D01*
X52750000Y-77750000D02*
X52750000Y-78950000D01*
X54850000Y-74187500D02*
X54787500Y-74250000D01*
%TO.N,Net-(U1-CLK1)*%
X61863500Y-60724152D02*
X61638348Y-60499000D01*
X61136652Y-60499000D02*
X60887500Y-60748152D01*
X61000000Y-64762500D02*
X61863500Y-63899000D01*
X61863500Y-63899000D02*
X61863500Y-60724152D01*
X60887500Y-60748152D02*
X60887500Y-61612500D01*
X61638348Y-60499000D02*
X61136652Y-60499000D01*
%TO.N,Net-(C5-Pad2)*%
X61000000Y-66837500D02*
X57076340Y-66837500D01*
X53651000Y-71712840D02*
X49500000Y-75863840D01*
X49500000Y-75863840D02*
X49500000Y-77250000D01*
X49500000Y-77250000D02*
X50700000Y-78450000D01*
X51170000Y-78450000D02*
X52770000Y-80050000D01*
X57076340Y-66837500D02*
X53651000Y-70262840D01*
X53651000Y-70262840D02*
X53651000Y-71712840D01*
X50700000Y-78450000D02*
X51170000Y-78450000D01*
%TO.N,Net-(C6-Pad1)*%
X91212500Y-50000000D02*
X94462500Y-46750000D01*
X94462500Y-46750000D02*
X96500000Y-46750000D01*
X91212500Y-50000000D02*
X88250000Y-50000000D01*
%TO.N,Net-(U2A-+)*%
X93287500Y-50000000D02*
X94247500Y-50960000D01*
X94247500Y-50960000D02*
X96825000Y-50960000D01*
X96825000Y-50960000D02*
X96825000Y-52230000D01*
X101900000Y-50950000D02*
X101910000Y-50960000D01*
X101910000Y-50960000D02*
X104000000Y-50960000D01*
X96825000Y-50960000D02*
X98890000Y-50960000D01*
X98890000Y-50960000D02*
X98900000Y-50950000D01*
%TO.N,Net-(U2B-+)*%
X96825000Y-49690000D02*
X98500000Y-48015000D01*
X102212500Y-43037500D02*
X102212500Y-43000000D01*
X98500000Y-46750000D02*
X102212500Y-43037500D01*
X98500000Y-48015000D02*
X98500000Y-46750000D01*
D42*
%TO.N,+3.3V*%
X57500000Y-83000000D02*
X46575000Y-83000000D01*
X46575000Y-83000000D02*
X37500000Y-73925000D01*
X74000000Y-63800000D02*
X74000000Y-60151708D01*
X31700000Y-60060000D02*
X33500000Y-58260000D01*
X66000000Y-74500000D02*
X57500000Y-83000000D01*
X33500000Y-73500000D02*
X31700000Y-71700000D01*
X33925000Y-73925000D02*
X33500000Y-73500000D01*
X67800000Y-71500000D02*
X74100000Y-71500000D01*
D43*
X61500000Y-56228000D02*
X66190500Y-56228000D01*
D42*
X31700000Y-71700000D02*
X31700000Y-60060000D01*
X67800000Y-71500000D02*
X66000000Y-73300000D01*
X69462500Y-56500000D02*
X67962500Y-58000000D01*
X94750000Y-65500000D02*
X95000000Y-65750000D01*
X66162500Y-66000000D02*
X63562500Y-63400000D01*
X67800000Y-71500000D02*
X71500000Y-67800000D01*
X95000000Y-60500000D02*
X95000000Y-65750000D01*
X71500000Y-66000000D02*
X66162500Y-66000000D01*
X74000000Y-63800000D02*
X71800000Y-66000000D01*
D43*
X60635652Y-60000000D02*
X61671790Y-60000000D01*
X61671790Y-60000000D02*
X63562500Y-61890710D01*
X61387500Y-57387500D02*
X61387500Y-56340500D01*
X61500000Y-56228000D02*
X61387500Y-56340500D01*
X66190500Y-56228000D02*
X67962500Y-58000000D01*
D42*
X71500000Y-67800000D02*
X71500000Y-66000000D01*
X74000000Y-60151708D02*
X70348292Y-56500000D01*
X37500000Y-73925000D02*
X33925000Y-73925000D01*
X85587500Y-63800000D02*
X87287500Y-65500000D01*
D43*
X63212500Y-63050000D02*
X63562500Y-63400000D01*
D42*
X70348292Y-56500000D02*
X69462500Y-56500000D01*
X87287500Y-65500000D02*
X94750000Y-65500000D01*
D43*
X59887500Y-61612500D02*
X59887500Y-60748152D01*
X63562500Y-61890710D02*
X63562500Y-63400000D01*
D42*
X66000000Y-73300000D02*
X66000000Y-74500000D01*
X71800000Y-66000000D02*
X71500000Y-66000000D01*
D43*
X59887500Y-60748152D02*
X60635652Y-60000000D01*
D42*
X74000000Y-63800000D02*
X85587500Y-63800000D01*
D43*
%TO.N,Net-(U2C-V+)*%
X97637499Y-53500000D02*
X102212500Y-48924999D01*
X96825000Y-53500000D02*
X97637499Y-53500000D01*
X102212500Y-48924999D02*
X102212500Y-46750000D01*
X93250000Y-53500000D02*
X96825000Y-53500000D01*
%TO.N,Net-(U2A--)*%
X104000000Y-52230000D02*
X108232500Y-52230000D01*
X108232500Y-52230000D02*
X108250000Y-52212500D01*
X104000000Y-53500000D02*
X104000000Y-52230000D01*
D42*
%TO.N,Net-(J2-Pin_3)*%
X77125000Y-75675000D02*
X78462500Y-75675000D01*
X73347292Y-80951000D02*
X76300000Y-77998292D01*
X76300000Y-76500000D02*
X77125000Y-75675000D01*
X68876000Y-80951000D02*
X73347292Y-80951000D01*
X78462500Y-75675000D02*
X79675000Y-75675000D01*
D43*
X87000000Y-78379468D02*
X83851468Y-81528000D01*
D42*
X81500000Y-77500000D02*
X81500000Y-79900000D01*
X79675000Y-75675000D02*
X81500000Y-77500000D01*
D43*
X83851468Y-81528000D02*
X83582468Y-81528000D01*
D42*
X67450000Y-79525000D02*
X68876000Y-80951000D01*
X76300000Y-77998292D02*
X76300000Y-76500000D01*
D43*
X83582468Y-81528000D02*
X82304468Y-80250000D01*
X82304468Y-80250000D02*
X81850000Y-80250000D01*
D42*
X81500000Y-79900000D02*
X81850000Y-80250000D01*
D43*
X87000000Y-77500000D02*
X87000000Y-78379468D01*
%TO.N,Net-(C16-Pad1)*%
X101250000Y-62000000D02*
X101250000Y-69212500D01*
X90675950Y-68249000D02*
X86641000Y-72283950D01*
X100211500Y-68249000D02*
X90675950Y-68249000D01*
X101250000Y-69212500D02*
X101212500Y-69250000D01*
X101212500Y-69250000D02*
X100211500Y-68249000D01*
X86641000Y-72283950D02*
X86641000Y-75141000D01*
X86641000Y-75141000D02*
X87000000Y-75500000D01*
D42*
%TO.N,Net-(J2-Pin_4)*%
X87000000Y-80250000D02*
X85125000Y-82125000D01*
X67674000Y-82249000D02*
X78461500Y-82249000D01*
X78461500Y-82249000D02*
X78500000Y-82287500D01*
X64950000Y-79525000D02*
X67674000Y-82249000D01*
X85125000Y-82125000D02*
X82800000Y-82125000D01*
X82800000Y-82125000D02*
X78662500Y-82125000D01*
D43*
X78662500Y-82125000D02*
X78500000Y-82287500D01*
%TO.N,PWR_BTN*%
X98400000Y-75600000D02*
X98400000Y-76779468D01*
X98400000Y-76779468D02*
X94778468Y-80401000D01*
X92801000Y-80401000D02*
X90700000Y-78300000D01*
X94778468Y-80401000D02*
X92801000Y-80401000D01*
%TO.N,Net-(J3-Pin_7)*%
X109300000Y-78800000D02*
X107700000Y-80400000D01*
X107900000Y-76350000D02*
X109300000Y-77750000D01*
X107900000Y-76200000D02*
X107900000Y-76350000D01*
X109300000Y-77750000D02*
X109300000Y-78800000D01*
%TO.N,Net-(J3-Pin_5)*%
X104000000Y-77400000D02*
X105450000Y-77400000D01*
X105450000Y-77400000D02*
X105800000Y-77750000D01*
X105800000Y-77750000D02*
X105800000Y-78800000D01*
X105800000Y-78800000D02*
X104200000Y-80400000D01*
%TO.N,Net-(J3-Pin_6)*%
X102300000Y-78800000D02*
X100700000Y-80400000D01*
X101350000Y-76800000D02*
X102300000Y-77750000D01*
X102300000Y-77750000D02*
X102300000Y-78800000D01*
X100650000Y-76800000D02*
X101350000Y-76800000D01*
%TO.N,Net-(J3-Pin_3)*%
X48210000Y-70960000D02*
X33500000Y-70960000D01*
X71800000Y-70350000D02*
X75150000Y-67000000D01*
X49500000Y-70300000D02*
X48870000Y-70300000D01*
X70750000Y-70300000D02*
X70800000Y-70350000D01*
X102150000Y-67000000D02*
X110250000Y-67000000D01*
X48870000Y-70300000D02*
X48210000Y-70960000D01*
X110250000Y-67000000D02*
X110250000Y-63500000D01*
X70800000Y-70350000D02*
X71800000Y-70350000D01*
X75150000Y-67000000D02*
X98900000Y-67000000D01*
%TO.N,Net-(J3-Pin_4)*%
X112800000Y-78800000D02*
X112325000Y-79275000D01*
X112800000Y-77750000D02*
X112800000Y-78800000D01*
X112325000Y-79275000D02*
X111200000Y-80400000D01*
%TO.N,Net-(Q3-B)*%
X94600000Y-79200000D02*
X94600000Y-77700000D01*
X94000000Y-79800000D02*
X94600000Y-79200000D01*
%TO.N,Net-(R1-Pad1)*%
X47000000Y-43500000D02*
X50500000Y-43500000D01*
X50500000Y-43500000D02*
X51401000Y-42599000D01*
X43250000Y-43500000D02*
X47000000Y-43500000D01*
X51401000Y-42599000D02*
X56599000Y-42599000D01*
X56599000Y-42599000D02*
X57500000Y-43500000D01*
%TO.N,Net-(R3-Pad2)*%
X47000000Y-46600000D02*
X47000000Y-45500000D01*
X53099000Y-44401000D02*
X48099000Y-44401000D01*
X54000000Y-43500000D02*
X53099000Y-44401000D01*
X44801000Y-48799000D02*
X47000000Y-46600000D01*
X48099000Y-44401000D02*
X47000000Y-45500000D01*
%TO.N,Net-(U1-CLK0)*%
X60900000Y-63600000D02*
X57400000Y-63600000D01*
X61387500Y-61612500D02*
X61387500Y-63112500D01*
X52653001Y-62200000D02*
X41449000Y-50995999D01*
X61387500Y-63112500D02*
X60900000Y-63600000D01*
X57400000Y-63600000D02*
X56000000Y-62200000D01*
X41449000Y-47301000D02*
X43250000Y-45500000D01*
X56000000Y-62200000D02*
X52653001Y-62200000D01*
X41449000Y-50995999D02*
X41449000Y-47301000D01*
%TO.N,Net-(U1-XA)*%
X63114840Y-57299000D02*
X65099000Y-57299000D01*
X61213840Y-58578188D02*
X61835652Y-58578188D01*
X61835652Y-58578188D02*
X63114840Y-57299000D01*
X60887500Y-57387500D02*
X60887500Y-58251848D01*
X60887500Y-58251848D02*
X61213840Y-58578188D01*
X65099000Y-57299000D02*
X66000000Y-58200000D01*
%TO.N,Net-(U1-XB)*%
X62035652Y-59900000D02*
X60387500Y-58251848D01*
X60387500Y-58251848D02*
X60387500Y-57387500D01*
X63800000Y-59900000D02*
X62035652Y-59900000D01*
%TD*%
M02*
