M48
; DRILL file {KiCad 9.0.6} date 2026-04-02T10:37:17-0700
; FORMAT={-:-/ absolute / inch / decimal}
; #@! TF.CreationDate,2026-04-02T10:37:17-07:00
; #@! TF.GenerationSoftware,Kicad,Pcbnew,9.0.6
; #@! TF.FileFunction,Plated,1,2,PTH
FMAT,2
INCH
; #@! TA.AperFunction,Plated,PTH,ViaDrill
T1C0.0118
; #@! TA.AperFunction,Plated,PTH,ComponentDrill
T2C0.0350
; #@! TA.AperFunction,Plated,PTH,ComponentDrill
T3C0.0374
; #@! TA.AperFunction,Plated,PTH,ComponentDrill
T4C0.0394
; #@! TA.AperFunction,Plated,PTH,ComponentDrill
T5C0.0472
; #@! TA.AperFunction,Plated,PTH,ComponentDrill
T6C0.0791
%
G90
G05
T1
X1.4764Y-3.1693
X1.5748Y-2.3268
X1.5768Y-2.1043
X1.752Y-3.1299
X1.9488Y-2.7677
X1.9803Y-2.1161
X1.9823Y-2.2717
X2.0098Y-3.128
X2.0276Y-2.9528
X2.0472Y-1.7913
X2.0669Y-2.7165
X2.0768Y-3.1083
X2.1575Y-3.1102
X2.1594Y-2.8622
X2.2441Y-2.9016
X2.2441Y-2.9685
X2.2638Y-3.1496
X2.2835Y-2.4606
X2.313Y-2.3524
X2.4724Y-2.811
X2.4734Y-2.9498
X2.5512Y-2.7244
X2.5842Y-2.4213
X2.6378Y-2.5118
X2.6959Y-2.9498
X2.7574Y-2.4213
X2.7854Y-2.7677
X2.8524Y-2.9469
X3.0571Y-2.4823
X3.0571Y-2.6831
X3.0891Y-3.1102
X3.1693Y-2.4213
X3.2677Y-2.3622
X3.3071Y-2.5591
X3.4385Y-2.3804
X3.4685Y-2.1535
X3.498Y-2.9508
X3.5Y-3.1063
X3.6201Y-3.1358
X3.6654Y-2.7264
X3.7894Y-3.2165
X3.8937Y-2.0059
X3.8937Y-2.5355
X3.8937Y-2.6378
X3.9626Y-3.0236
X4.0118Y-2.0059
X4.0217Y-2.6378
X4.0256Y-2.5355
X4.0354Y-3.2461
X4.0945Y-3.0472
X4.1058Y-1.7697
X4.1142Y-1.9094
X4.1388Y-2.564
X4.1732Y-3.2441
X4.1929Y-2.7264
X4.248Y-3.0
X4.313Y-3.2461
X4.4222Y-3.1211
X4.5571Y-1.9646
T2
X2.7346Y-2.0827
X2.8346Y-2.0827
T3
X2.5571Y-3.1309
X2.6555Y-3.1309
X2.7539Y-3.1309
X2.8524Y-3.1309
T4
X1.3189Y-1.8937
X1.3189Y-1.9937
X1.3189Y-2.0937
X1.3189Y-2.1937
X1.3189Y-2.2937
X1.3189Y-2.3937
X1.3189Y-2.4937
X1.3189Y-2.5937
X1.3189Y-2.6937
X1.3189Y-2.7937
X1.3189Y-2.8937
X1.3189Y-2.9937
X3.1677Y-2.2638
X3.1677Y-2.8638
X3.2677Y-2.2638
X3.2677Y-2.8638
X3.3677Y-2.2638
X3.3677Y-2.8638
X3.4677Y-2.2638
X3.4677Y-2.8638
X3.5677Y-2.2638
X3.5677Y-2.8638
X3.6677Y-2.2638
X3.6677Y-2.8638
X3.7677Y-2.2638
X3.7677Y-2.8638
X3.8677Y-2.2638
X3.8677Y-2.8638
X3.9677Y-2.2638
X3.9677Y-2.8638
X4.0677Y-2.2638
X4.0677Y-2.8638
X4.1677Y-2.2638
X4.1677Y-2.8638
X4.2677Y-2.2638
X4.2677Y-2.8638
X4.3677Y-2.2638
X4.3677Y-2.8638
X4.4677Y-2.2638
X4.4677Y-2.8638
X4.5677Y-2.2638
X4.5677Y-2.8638
T5
X1.7638Y-1.9212
X1.7638Y-2.5511
X2.1575Y-1.9212
X2.1575Y-2.5511
T6
X2.6346Y-1.8827
X3.0346Y-1.8827
M30
